<svg version="1" xmlns="http://www.w3.org/2000/svg" width="933.333" height="933.333" viewBox="0 0 700.000000 700.000000"><path d="M323.7.6c-.1.1-3.6.4-7.8.8-14.1 1.1-11.6-.5-47.4 30-7.1 6.1-13.2 11.3-13.5 11.6-.3.3-2.3 2-4.5 3.9s-6.7 5.7-10 8.6c-3.3 2.9-10.3 9-15.5 13.5-5.2 4.5-11.1 9.7-13 11.4-1.9 1.7-8.4 7.4-14.5 12.6-6 5.2-11.2 9.7-11.5 10-.7.8-34 28.5-47.5 39.6-44.9 36.6-72.1 54.5-99.5 65.5l-11.4 4.6-3.7 9.9c-2.1 5.4-3.6 10.1-3.4 10.3.7.6 12.4-2.8 22.5-6.6 27.9-10.6 58.4-30.1 101-64.7 21.7-17.6 27.4-22.4 43.4-36 8.3-7 16.2-13.8 17.6-15 4.6-3.8 17.5-15.1 18-15.6.4-.5 28.6-25 41.4-36 1.6-1.4 3.4-3 4-3.5 5.7-5.2 34.7-29.5 49.4-41.3 2.2-1.9 5-4.1 6.1-5 1.1-1 3.8-3 6.1-4.6 2.2-1.7 4-3.3 4-3.7 0-.6-9.6-.8-10.3-.3zM390.9 10.2c-27.3 17.3-74.2 51.2-98.9 71.5-.8.7-5.8 4.6-11 8.8-15.7 12.6-16.7 13.5-34.4 28-9.4 7.6-17.3 14.2-17.6 14.5-.3.3-2.5 2.1-5 4s-4.7 3.7-5 4c-.3.3-5.2 4.3-11 8.9-5.8 4.6-11.4 9.1-12.5 10-5.2 4.3-39.7 30-55.5 41.3-48.3 34.5-79.1 50.7-108.6 57.3-7.8 1.8-11 2.2-16.5 2.4l-3.7.1-1.7 7.2c-2.9 12.8-3.2 11.6 2.8 11.2 4.6-.2 8-.6 17.8-1.9 7.1-1 21.7-5.4 34.2-10.4 38.5-15.4 99.5-57.3 184.8-127.1 9.6-7.8 18.5-15.1 19.9-16.3 6.1-5.2 48.4-38.8 55.5-44.2 4.4-3.3 8.2-6.2 8.5-6.5 1.5-1.7 30.1-22.1 45.5-32.6 19.2-13 31.5-20.8 43.3-27.5 7.5-4.2 7.9-4.7 4.6-5.3-1.1-.2-5.3-1.1-9.4-1.9-15.2-3.1-13.5-3.4-26.1 4.5zM222 23.9c-15.1 5.9-37.9 16.9-40.5 19.4-.6.7-5.9 5.6-11.7 11-5.8 5.4-12.1 11.2-14 13-5.8 5.4-24.7 22.6-30.5 27.8-18.6 16.5-35.5 30.5-49 40.7-5.4 4.1-9.7 8.4-12.5 12.5-6.2 9-16.8 25.9-16.8 26.8 0 2 26.6-14.7 43-27 9.8-7.3 34.4-27.2 36-29.1.3-.3 3.8-3.5 7.9-7 4.1-3.6 8.4-7.4 9.5-8.5 1.2-1.1 4.8-4.4 8.1-7.4 5-4.4 19.1-17.5 31.6-29.1 1.5-1.4 8.2-7.7 15-14.1 6.8-6.5 14.2-13.4 16.4-15.4C227.8 25 232.9 20 232.3 20.1c-.5 0-5.1 1.7-10.3 3.8z"/><path d="M481.9 33.4c-35.6 16.1-71.5 36.4-111.4 63-31.7 21.2-61.7 43.2-128 94.1C171.9 244.7 104.1 285.9 64 299c-18.9 6.1-39.3 8.5-55.7 6.4-4.1-.5-5.3-.3-5.4.7 0 .8-.2 2.1-.4 2.9-.1.8-.5 4.3-.8 7.7l-.6 6.2 4.7.7c5.8 1 23.6 1 31.7.2 20.5-2.2 43.9-10.1 71-23.9 37.6-19.1 83.6-48.6 128.5-82.4 20.5-15.5 52.7-39.9 55.4-42.2 1.1-.9 9.8-7.4 19.5-14.6 9.7-7.2 17.8-13.3 18.1-13.6.3-.3 2.1-1.7 4-3.1 1.9-1.3 8.9-6.3 15.5-11 55.7-39.7 105.7-68.8 150.8-87.6 3.4-1.4 7.7-3.3 9.6-4.2l3.3-1.5-5.8-3c-3.3-1.7-8.2-4-11-5.3l-5.1-2.2-9.4 4.2z"/><path d="M552 77c-41.8 12.9-91.2 35.7-139 64.3-29.4 17.5-69.3 44.7-126.5 86.1-70.6 51.1-92.7 65.6-129.9 85.5C88.4 349.2 48.3 359 9 349c-4.3-1.1-8.1-2-8.5-2-.3 0-.5 4.1-.4 9 .1 7.3.5 9.2 1.8 9.9 2 1.1 14.4 3.7 22.1 4.6 6.2.8 25 .9 29.5.1 1.7-.2 5.5-.8 8.5-1.1 12.4-1.5 35.8-8.6 55-16.7 9.2-3.9 39.7-18.8 51-25 6.3-3.4 28.9-16.5 32.5-18.8 1.3-.8 5.6-3.5 9.6-6 12.7-7.8 44.1-29.7 81.4-56.6C394 172.3 439.1 144 495.8 118.1c26.5-12.1 62-24.9 82.5-29.7 1.5-.3 2.7-1 2.7-1.4 0-.6-11.2-10.1-15.5-13.1-.5-.4-6.6 1-13.5 3.1z"/><path d="M618.9 127.4c-.3.3-2 .8-3.9 1.1-11.9 2.1-47.2 11.1-52.5 13.5-1.1.5-4.5 1.6-7.5 2.6-24.5 7.6-74.7 30.1-105.5 47.2-35.1 19.6-69.2 41.3-124.3 79.4-66.4 45.9-79 54.4-100.9 68-47.6 29.5-100.7 52.5-139.8 60.3-13.4 2.7-40.4 2.7-52 0-6.5-1.4-20.5-5.9-28.6-9-1.4-.5-1.5.1-.8 5.2.5 3.2 1 6.9 1.3 8.3.2 1.4.5 3.4.5 4.6.1 1.7 1.6 2.5 8.8 4.7 16.8 5.1 23.6 6.1 42.3 6.2 19.4 0 23.7-.4 40.5-4.1 28.8-6.2 86.1-29.8 114.9-47.3 3.7-2.2 7-4.1 7.2-4.1.8 0 24.1-14.6 44.4-27.9 9.9-6.5 46.1-31.3 70.5-48.4 15.6-10.9 66.2-44.6 79.9-53.1 55.9-35 101.8-57.4 151.1-73.7 10.7-3.5 27.5-8.4 32.3-9.4.9-.2 5.3-1.2 9.7-2.3 4.4-1.1 12.1-2.8 17.2-3.7 6.2-1.2 9-2.2 8.6-2.9-2.6-4.3-11.6-15.6-12.4-15.6-.3 0-.8.2-1 .4z"/><path d="M651.8 187.1c-1.4.4-4.5.9-6.9 1.2-6.6.8-26.7 5.3-41.9 9.3-52 13.8-100.2 35-164.5 72.4-8.6 5-32.4 19.8-48 29.8-8.3 5.4-50.1 33.2-74 49.3-85.2 57.4-126.3 79.1-177.4 93.9-14.9 4.3-34.2 8.4-44.6 9.4-7 .7-31.3.9-32.3.2-.4-.2-2.9-.7-5.5-1C46 450.3 27.1 444.2 15 438c-2.2-1.1-4-1.7-4-1.2 0 2.2 6.3 21.8 7.3 22.8 2 1.9 22.8 8.3 32.7 10 13.9 2.4 42.7 2.4 55-.1 1.4-.2 3.6-.7 5-1 1.4-.2 3.9-.7 5.5-1 14.5-2.4 45.6-11.8 65-19.5 34.6-13.8 76.7-37.8 136-77.5 72.6-48.7 116-77 132.5-86.2 1.9-1.1 8.8-5 15.4-8.7 16.7-9.5 47.6-25.1 63.6-32 7.4-3.2 15-6.5 16.8-7.3 16.8-7.3 48.3-17.6 71.2-23.3 11.7-2.9 37.3-7.9 44.3-8.7 3.2-.3 5.9-.9 6.2-1.3.2-.3-1.4-4.3-3.6-8.8-4.3-8.8-4.7-9.1-12.1-7.1z"/><path d="M679.5 245.8c-1.1.1-5.4.9-9.5 1.7-4.1.8-9.1 1.7-11 2-14.1 2.3-46.8 10.9-65.5 17.1-39 12.9-79.4 31.2-120 54.5-8.8 5-18 10.3-20.5 11.7-15.2 8.7-51.7 32.1-104.3 67-29.5 19.6-60.1 39.3-72.2 46.5-4.9 2.9-10 6-22.7 13.3-11 6.3-40.9 21-52.6 25.9-23.3 9.5-46.1 15.8-72 19.9-12 1.9-17.7 2.3-31.2 2-18-.3-18.6-.4-31-3-8-1.6-21.7-6.7-31-11.4-3.3-1.6-6.2-3-6.5-3-.3 0 2.4 5.8 5.9 12.8 7.2 14.4 6.1 13.5 22.1 18.1 6.3 1.8 8.9 2.4 16 3.6 36.9 6.2 92.7-3.5 140.8-24.6 41.3-18.1 67.6-33.8 170.7-102.1 48-31.8 76.6-49.4 108.5-67 15.7-8.7 57.9-29 72-34.6 14.7-5.9 39.1-14.4 51-17.7 21.9-6.2 50.7-12.6 62.5-14 4.8-.5 10-1.8 10-2.3 0-.4-.9-4.4-2.1-8.9-2.2-8.4-2.2-8.4-7.4-7.5z"/><path d="M691 305.3c-.3.3-2.7.8-5.5 1.2-2.7.3-9.2 1.5-14.4 2.6-5.1 1.2-10.1 2.2-11 2.4-19.1 3.8-60.9 17.5-85.5 28-25.1 10.7-54.9 25.4-77.1 38.1-9.3 5.3-17.9 10.1-19 10.8-1.1.6-8.1 4.8-15.5 9.4-7.4 4.6-14.4 8.8-15.5 9.5-3.5 2.2-44.5 29.1-71.5 46.9-40.9 27-55.6 36.5-67 43.6-29.6 18.4-65.9 37.7-87.5 46.5-10 4.1-30.5 11.4-34.4 12.2-.9.2-6.5 1.5-12.6 2.9-6 1.4-13 2.8-15.5 3.1-2.5.3-5.6.8-7 1-10.3 1.5-41 2.3-46.5 1.2-1.1-.3-4.5-.8-7.5-1.2-6.2-.7-22.8-5-27.8-7.1l-3.2-1.3 2.9 4.2c5 7.2 16.9 21.1 18.3 21.3.7.1 3 .5 5.1.8 18.1 2.9 49.4 2.8 66.7-.3 3-.6 6.9-1.2 8.5-1.5 29.7-5 73.1-21.8 109.4-42.3 5.1-2.9 9.5-5.3 9.7-5.3.8 0 35.2-21.2 52.9-32.6 10.5-6.7 35.9-23.4 56.5-37.1 49.8-33 52.8-35 79.5-51.1 57.8-35 105.6-57.6 153.5-72.5 17.4-5.5 44-12 57.5-14.1 1.7-.2 4.9-.7 7.3-1.1l4.3-.7-.7-6.6c-.4-3.7-.8-7.6-.9-8.7-.1-1.4-1-2.1-3.1-2.3-1.6-.2-3.2-.1-3.4.1zM695 365.1c-10 2-15.9 3.3-23 5.1-4.1 1-8.5 2.1-9.8 2.4-8.3 1.7-38.4 11.7-52.7 17.4-20.3 8.1-53.9 23.9-71.5 33.6-34.9 19.2-61.9 35.9-106.5 65.8-16.5 11-30.2 20.3-30.5 20.6-1.1 1.3-72.3 48.2-83.5 55-26.8 16.3-55.6 31.5-76 40-5.5 2.3-10.9 4.5-12 5-10.5 4.4-32.9 10.7-45.9 12.9-14.7 2.6-23.9 3.5-36.8 3.5-6 .1-10.8.2-10.8.3 0 .4 12.7 10 18.6 14 4.6 3.1 6.8 4 9.5 3.8 39.3-3 83.4-18.3 132.9-46.1 34.7-19.4 82.8-50.4 130-83.7 11.5-8.1 50-33.7 63-41.9 50.3-31.7 99.4-56.5 143-72.1 16-5.8 38.9-12.2 53.6-15.2 6.3-1.2 11.6-2.4 11.9-2.6.4-.5 1.8-18.9 1.3-18.8-.2.1-2.3.5-4.8 1zM676.2 429c-42.7 10.8-92.2 33-145.7 65.4-19.4 11.8-59.2 38.2-86.2 57.2-23.7 16.7-40.1 28.2-54.3 38.1-39.3 27.4-73.9 49.2-100.3 63.2-11.3 6-33.6 16.3-39.3 18.1-2.2.7-4.3 1.6-4.9 2-.5.4-4.3 1.8-8.3 3-8.7 2.9-8.7 2.9 8.6 8.1l12.2 3.7 9.1-3.9c40.2-17.4 81.7-42.6 152.9-92.7 7.4-5.3 23.4-16.5 35.5-25 94.9-66.8 158.8-101.2 218.8-117.6 6.4-1.8 12.1-3.6 12.6-4.2.5-.5 1.6-4.1 2.5-8 .9-3.9 1.8-7.9 2.2-8.8.9-2.2-1.8-2-15.4 1.4zM658.5 493.6c-21.8 7.5-53.2 21.9-75 34.4-6 3.4-11.9 6.8-13 7.4-21.3 11.9-71.1 46-117.2 80.3-33.7 25-37.4 27.7-49.8 36.7-21 15.2-34.6 24.6-51 35.4-8.8 5.8-16.4 10.9-16.8 11.3-.5.4 6.6.7 15.7.8H368l8.2-5.6c12.8-8.7 43.5-30.8 62.3-44.7 56.5-41.9 77.8-57.2 105-75.3 40.2-26.8 73.9-45.2 106.7-58.3l10.6-4.2 5.1-10.4c2.8-5.7 5.1-10.6 5.1-10.9 0-1-2.6-.3-12.5 3.1zM611.5 573.7c-25.1 13.7-46.7 27.6-78.9 50.8-8.5 6.2-54.7 41.4-56.3 43.1-.6.6-5.2 4.2-10.2 8-4.9 3.7-8.9 6.9-8.8 7.1.6.6 17.3-5.3 27.2-9.6 2.2-1 6-2.6 8.5-3.7 12.1-5.1 30.3-15.2 38.4-21.3 17-12.7 21.1-15.6 36.3-26.1 15.4-10.7 29.5-23.4 44.1-39.9 3.7-4.2 7.7-8.7 9-10.1 2.2-2.5 2.8-4.1 1.5-3.9-.5.1-5.3 2.6-10.8 5.6z"/></svg>