<svg id="Layer_1" data-name="Layer 1" xmlns="http://www.w3.org/2000/svg" viewBox="0 0 340.49 114.65"><defs><style>.cls-1{fill:#ffc500;}.cls-2{fill:#ffbf00;}.cls-3{fill:#ffba00;}.cls-4{fill:#ffb400;}.cls-5{fill:#ffaf00;}.cls-6{fill:#fa0;}.cls-7{fill:#ffa400;}.cls-8{fill:#ff9f00;}.cls-9{fill:#f90;}.cls-10{fill:#ff9400;}.cls-11{fill:#ff8e00;}.cls-12{fill:#ff8900;}.cls-13{fill:#ff8300;}.cls-14{fill:#ff7e00;}.cls-15{fill:#ff7800;}.cls-16{fill:#ff7300;}.cls-17{fill:#ff6e00;}.cls-18{fill:#ff6800;}.cls-19{fill:#ff6300;}.cls-20{fill:#ff5d00;}.cls-21{fill:#ff5800;}.cls-22{fill:#ff5200;}.cls-23{fill:#ff4d00;}.cls-24{fill:#ff4700;}.cls-25{fill:#ff4200;}</style></defs><title>FLOAT_LOGO-pack_01</title><path class="cls-1" d="M22.51,11.79a57.62,57.62,0,0,0-7.05,6.4c6.2-3,12.7-7.79,19.88-13.07l1-.74,1.15-.85a57.42,57.42,0,0,0-10.19,5Q24.84,10.24,22.51,11.79Z"/><path class="cls-2" d="M41.57,3c-2.48,1.77-4.89,3.49-7.24,5.12l-.58.4c-7.83,5.43-14.59,10.11-20.88,12.66-.78,1-1.52,1.95-2.24,3,7.35-2.24,15.1-7.61,24.26-14l.58-.4c2.36-1.64,4.78-3.37,7.27-5.14C44.51,3.31,46.32,2,48.16.72c-1.66.27-3.29.62-4.9,1Z"/><path class="cls-3" d="M42.49,7.32c-3.13,2.14-6.09,4.16-9,6.09C23.89,19.64,16.24,24.63,9.12,26.3q-.73,1.13-1.4,2.29c8.13-1.31,16.6-6.84,26.88-13.54,2.92-1.91,5.89-3.93,9-6.08,4.33-3,8.82-6,13.48-9-1.32,0-2.62,0-3.92.14C49.51,2.53,46,5,42.49,7.32Z"/><path class="cls-4" d="M32.68,18.68c-10,6.12-18.21,11.12-26,11.83-.37.7-.72,1.41-1.06,2.13,8.58-.31,17.34-5.66,28.13-12.25,3.49-2.13,7.06-4.47,10.85-7C51.14,9.13,58.08,4.6,65.45.58L65.12.52C64.09.38,63.05.27,62,.19,55.52,3.88,49.35,7.91,43.47,11.76,39.7,14.23,36.14,16.56,32.68,18.68Z"/><path class="cls-5" d="M44.51,16.27c-4.43,2.79-8.62,5.42-12.66,7.72C20.62,30.38,12.46,34.7,4.78,34.43c-.28.64-.54,1.27-.8,1.92C13,37,22.14,31.81,32.84,25.72c4.08-2.32,8.28-5,12.73-7.76C54.15,12.57,63.36,6.79,73.33,2.27c-1-.29-2-.55-3.05-.79C61.06,5.88,52.51,11.24,44.51,16.27Z"/><path class="cls-6" d="M45.6,20.84c-5.12,3.09-10,6-14.57,8.44C19.5,35.37,11.28,39.34,3.31,38.1c-.22.63-.43,1.27-.63,1.92,8.68,1.47,17.49-2.75,29.28-9,4.67-2.46,9.53-5.4,14.67-8.5C57,16.3,68.31,9.47,80.7,5Q79.37,4.38,78,3.85C66.24,8.4,55.48,14.87,45.6,20.84Z"/><path class="cls-7" d="M31.08,36.39c5.28-2.56,10.81-5.78,16.67-9.18C59.66,20.28,72.89,12.6,87.46,8.55q-1.17-.73-2.38-1.39C71,11.38,58.26,18.78,46.75,25.48c-5.82,3.39-11.32,6.58-16.53,9.11-11.33,5.49-19.7,9.14-28,7-.18.64-.36,1.29-.52,1.94C10.44,45.79,19.28,42.11,31.08,36.39Z"/><path class="cls-8" d="M47.93,30.18c-6.54,3.67-12.72,7.14-18.54,9.71C17.2,45.28,9.23,47.95,1.32,45.16c-.14.65-.28,1.3-.4,2,8.86,3,17.57-.23,29.27-5.4,5.9-2.61,12.12-6.1,18.71-9.8,13.23-7.43,28.17-15.8,44.59-19.09q-1-.83-2.09-1.62C75.36,14.78,60.84,22.93,47.93,30.18Z"/><path class="cls-9" d="M29.32,47.05c6.54-2.61,13.46-6.37,20.79-10.35C63.17,29.6,78,21.56,94,18.42c1.58-.31,3.13-.56,4.67-.77q-.86-.9-1.76-1.76c-1.09.17-2.18.36-3.29.58-16.36,3.2-31.3,11.32-44.49,18.49C41.88,38.9,35,42.63,28.58,45.2,16.21,50.12,8.38,52,.68,48.65c0,.3-.1.59-.15.89s-.08.76-.13,1.14C9.4,54.32,18.14,51.51,29.32,47.05Z"/><path class="cls-10" d="M50.42,39.76C42.39,44,34.81,48,27.76,50.5,15.64,54.8,8,56.24.23,52.25.17,53,.13,53.69.09,54.4c8.09,3.82,16.21,2.29,28.34-2,7.18-2.55,14.83-6.58,22.92-10.86,12.39-6.54,26.44-14,41.45-17.18a73.33,73.33,0,0,1,10.35-1.47c-.48-.64-1-1.27-1.49-1.89a75.86,75.86,0,0,0-9.28,1.41C77.1,25.68,62.93,33.16,50.42,39.76Z"/><path class="cls-11" d="M27.55,57.72C35.38,55.28,43.75,51,52.62,46.41c11.71-6,25-12.85,39-16.13a75.91,75.91,0,0,1,15.16-2q-.58-1-1.2-2a77.83,77.83,0,0,0-14.41,2C76.9,31.67,63.52,38.55,51.7,44.63,42.92,49.15,34.62,53.42,27,55.81,15.21,59.46,7.78,60.46,0,55.94c0,.76,0,1.52,0,2.27C8,62.44,15.87,61.35,27.55,57.72Z"/><path class="cls-12" d="M26.66,63c8.5-2.26,17.61-6.85,27.25-11.71,11.55-5.81,23.49-11.83,36.46-15.13a81,81,0,0,1,19.14-2.64c-.31-.67-.62-1.34-1-2a83.22,83.22,0,0,0-18.68,2.69C76.69,37.63,64.65,43.69,53,49.55c-9.55,4.81-18.57,9.35-26.87,11.56C15.12,64,7.77,64.64.06,59.76Q.11,61,.21,62.17C8.07,66.62,15.79,65.94,26.66,63Z"/><path class="cls-13" d="M25.77,68.37c9.17-2,19-6.91,29.45-12.07C66,51,77.17,45.44,89.15,42.14A83.63,83.63,0,0,1,111.65,39c-.23-.67-.46-1.34-.71-2a85.71,85.71,0,0,0-22.32,3.25c-12.16,3.35-23.41,8.91-34.29,14.3-10.32,5.11-20.06,9.93-29,11.91C14,68.93,7.12,68.48.37,63.89c.1.87.22,1.74.36,2.6C7.5,70.5,14.71,70.83,25.77,68.37Z"/><path class="cls-14" d="M24.87,73.7C34.72,72,45.31,66.79,56.52,61.31c10-4.9,20.41-10,31.41-13.24a85.12,85.12,0,0,1,25.23-3.8c-.16-.67-.31-1.33-.49-2a87.15,87.15,0,0,0-25.31,3.87C76.2,49.46,65.75,54.57,55.64,59.51,44.56,64.93,34.1,70,24.53,71.73c-10.44,1.84-17,1.12-23.46-3.4q.27,1.4.61,2.77C8,74.91,14.84,75.47,24.87,73.7Z"/><path class="cls-15" d="M24,79c10.53-1.38,21.85-6.87,33.84-12.68C67.09,61.85,76.67,57.2,86.71,54a86.32,86.32,0,0,1,27.42-4.46c-.09-.67-.18-1.34-.3-2A88.36,88.36,0,0,0,86.1,52.09C75.93,55.33,66.28,60,56.95,64.54c-11.84,5.74-23,11.17-33.23,12.5-9.33,1.22-15.5.35-21.46-3.8q.43,1.49.94,3C9,79.5,15.21,80.17,24,79Z"/><path class="cls-16" d="M23.08,84.35c11.21-.95,23.26-6.78,36-13C67.6,67.29,76.38,63,85.49,59.93a88.88,88.88,0,0,1,28.3-5.22h.81c0-.67-.07-1.34-.12-2h-.71A90.8,90.8,0,0,0,84.85,58c-9.23,3.15-18.06,7.42-26.61,11.56C45.65,75.69,33.76,81.44,22.92,82.36,15,83,9.43,82.14,4.17,78.77q.63,1.55,1.34,3.06C10.47,84.31,15.91,85,23.08,84.35Z"/><path class="cls-17" d="M22.19,89.67c11.89-.45,24.66-6.64,38.17-13.2A256.93,256.93,0,0,1,84.27,65.86c10.22-3.72,19.12-5.62,28-6,.8,0,1.56,0,2.33,0,0-.67,0-1.33,0-2-.81,0-1.62,0-2.46,0-9.1.36-18.19,2.3-28.61,6.09a258.64,258.64,0,0,0-24.1,10.69c-13.32,6.46-25.9,12.57-37.38,13-6.22.24-10.94-.64-15-2.7.54,1,1.12,1.95,1.72,2.9A34,34,0,0,0,22.19,89.67Z"/><path class="cls-18" d="M61.59,81.55c7-3.4,14.15-6.92,21.47-9.76,10.31-4,19.11-6.14,27.7-6.73q1.74-.12,3.4-.14c.09-.67.16-1.33.22-2q-1.84,0-3.76.14c-8.8.6-17.79,2.78-28.29,6.86-7.4,2.87-14.63,6.41-21.62,9.83-14,6.87-27.3,13.35-39.4,13.24a32.13,32.13,0,0,1-10-1.51c.67.9,1.35,1.78,2.07,2.64a37.29,37.29,0,0,0,7.92.86C33.86,95.11,47.33,88.52,61.59,81.55Z"/><path class="cls-19" d="M81.84,77.71c10.4-4.3,19.11-6.68,27.4-7.48,1.37-.13,2.7-.21,4-.25.15-.66.3-1.33.43-2-1.51,0-3,.11-4.62.26-8.49.83-17.38,3.25-28,7.62-6.53,2.7-13,5.89-19.19,9C47.14,92.14,33.22,99,20.51,98.31c-1.29-.07-2.49-.21-3.65-.39q1.18,1.18,2.42,2.29c.37,0,.73.07,1.11.1,13.24.76,27.39-6.26,42.38-13.68C69,83.56,75.37,80.38,81.84,77.71Z"/><path class="cls-20" d="M80.62,83.64c10.64-4.67,19-7.21,27.11-8.24,1.42-.18,2.79-.3,4.13-.37.22-.67.43-1.34.62-2q-2.44.09-5,.41c-8.3,1.05-16.83,3.64-27.66,8.39C74.13,84.3,68.47,87.16,63,89.91c-13.88,7-27.07,13.63-39.28,13.86.89.65,1.81,1.26,2.74,1.86,11.86-1,24.35-7.33,37.45-13.94C69.35,89,75,86.11,80.62,83.64Z"/><path class="cls-21" d="M79.4,89.56c10.74-5,19-7.77,26.81-9,1.27-.2,2.51-.35,3.73-.45q.44-1,.85-2.07c-1.59.1-3.21.28-4.89.54-8,1.25-16.42,4.08-27.34,9.16-5.1,2.37-10.2,5.05-15.13,7.65-11,5.77-21.53,11.33-31.5,13.32q1.47.73,3,1.38c9.44-2.4,19.26-7.57,29.44-12.93C69.27,94.59,74.35,91.91,79.4,89.56Z"/><path class="cls-22" d="M78.18,95.49c11.06-5.42,19-8.34,26.51-9.75.91-.17,1.8-.31,2.68-.42q.59-1.06,1.14-2.15c-1.37.14-2.76.34-4.19.61-7.71,1.45-15.79,4.41-27,9.92-4,2-8.09,4.15-12,6.23-8.76,4.65-17.27,9.16-25.47,12,1.08.34,2.17.66,3.27.94,7.51-2.88,15.22-7,23.13-11.17C70.14,99.61,74.18,97.47,78.18,95.49Z"/><path class="cls-23" d="M102.75,89C93.42,91,84,95.5,76,99.64c-3.28,1.71-6.6,3.53-9.81,5.29-5.93,3.25-11.75,6.44-17.45,9.07l.77.13q1.47.2,2.93.33c4.83-2.36,9.73-5,14.71-7.77,3.2-1.75,6.51-3.57,9.78-5.27,7.85-4.08,17.11-8.51,26.21-10.51l.73-.15q.82-1.14,1.59-2.33C104.6,88.58,103.68,88.75,102.75,89Z"/><path class="cls-24" d="M98.83,96.87q1.28-1.34,2.48-2.77l-.13,0c-9,2.25-18,6.83-26.39,11.45-2.56,1.41-5.12,2.86-7.67,4.31-2.85,1.62-5.68,3.22-8.48,4.75,1.57,0,3.12-.14,4.66-.3l4.81-2.72c2.55-1.44,5.1-2.89,7.65-4.29C83.15,103.28,91,99.25,98.83,96.87Z"/><path class="cls-25" d="M71,113a57.13,57.13,0,0,0,10.73-3.81Q83.88,108,86,107a57.66,57.66,0,0,0,8.37-5.87C86.62,104,78.78,108.45,71,113Z"/><path d="M147.39,86.44v-58a1.7,1.7,0,0,1,1.49-1.69c3.85-.5,12.8-1.08,17.32-1.08,16.69,0,24,5.47,24,17a13,13,0,0,1-9.1,12.27,15.65,15.65,0,0,1,12.1,15.54c0,11.3-6.27,18.46-27.37,18.46a149.7,149.7,0,0,1-16.94-.8A1.7,1.7,0,0,1,147.39,86.44Zm13-49.69V51.58h5.21c8.21,0,11.3-3.27,11.3-7.95s-2.38-7.33-10.6-7.33A39.48,39.48,0,0,0,160.37,36.75Zm0,24.73v16.6c1.94.18,4.86.26,8.57.26,8.48,0,10.86-3.71,10.86-8.57s-3-8.3-11.74-8.3Z"/><path d="M236,88.14h-7.5a1.72,1.72,0,0,1-1.65-1.29,15.41,15.41,0,0,1-.45-3.74c-3.36,4.15-8.21,6-13.69,6-8.48,0-13.6-5.74-13.6-13,0-6.89,3.71-11.83,14.39-14.48l7-1.77c3.62-.88,4.77-2.12,4.77-4.24s-2-3.8-6.36-3.8A47.16,47.16,0,0,0,205,54.21a1.7,1.7,0,0,1-2.24-1.61V46.1a1.71,1.71,0,0,1,1.1-1.59,45.59,45.59,0,0,1,16-2.54c10.77,0,17.84,4.06,17.84,16.6V86.44A1.7,1.7,0,0,1,236,88.14ZM225.28,66.07a5.62,5.62,0,0,1-2.83,1.41L217.34,69c-4.67,1.39-5.78,3.28-5.83,5.85a5.08,5.08,0,0,0,5,5.1c5.43.09,8.8-3,8.8-8Z"/><path d="M286.31,49.91c1.24,3,1.68,7,1.68,12.19V86.44a1.7,1.7,0,0,1-1.7,1.7h-9a1.7,1.7,0,0,1-1.7-1.7V64.83c0-5.21-.27-7.06-.88-8.83-.88-2.47-2.74-3.71-5.65-3.71-5.65,0-8.92,3.36-8.92,13.07V86.44a1.7,1.7,0,0,1-1.7,1.7h-9a1.7,1.7,0,0,1-1.7-1.7V44.81a1.7,1.7,0,0,1,1.7-1.7h7.45a1.7,1.7,0,0,1,1.66,1.32,25.16,25.16,0,0,1,.49,4.86c2-4,7.06-7.33,13.86-7.33C279.42,42,284.1,44.43,286.31,49.91Z"/><path d="M299.46,24.21h9a1.7,1.7,0,0,1,1.7,1.7V48.67C312.33,45,316.75,42,322.75,42c10.33,0,14.83,5.74,14.83,12.72,0,6.18-3.18,10.68-9.71,13.42,3,2.71,8.76,11.13,12.39,17.51a1.7,1.7,0,0,1-1.48,2.53H328.21a1.69,1.69,0,0,1-1.5-.91c-2.46-4.71-7.62-12.75-10.93-16.22l-1.77.44c-3.27.79-3.8,4.5-3.8,9.27v5.72a1.7,1.7,0,0,1-1.7,1.7h-9a1.7,1.7,0,0,1-1.7-1.7V25.91A1.7,1.7,0,0,1,299.46,24.21Zm10.75,40V65a7.54,7.54,0,0,1,3.8-1.85L319,61.83c4.15-1.15,6.18-3.09,6.18-5.74s-1.59-4.24-4.68-4.24C314.19,51.85,310.21,56.62,310.21,64.21Z"/></svg>