<svg id="Layer_1" data-name="Layer 1" xmlns="http://www.w3.org/2000/svg" viewBox="0 0 114.66 114.64"><defs><style>.cls-1{fill:#ffc100;}.cls-2{fill:#ffb600;}.cls-3{fill:#ffac00;}.cls-4{fill:#ffa100;}.cls-5{fill:#ff9600;}.cls-6{fill:#ff8c00;}.cls-7{fill:#ff8100;}.cls-8{fill:#ff7600;}.cls-9{fill:#ff6c00;}.cls-10{fill:#ff6100;}.cls-11{fill:#ff5600;}.cls-12{fill:#ff4c00;}.cls-13{fill:#ff4100;}</style></defs><title>FLOAT_LOGO-pack_01</title><path class="cls-1" d="M29,13l.6-.56c2-1.85,4-3.79,6.11-5.77l4.13-3.92a57,57,0,0,0-7.55,3c-1.6,1.52-3.19,3-4.74,4.46l-.6.56c-6.26,5.81-11.75,10.9-17,14.34a57.33,57.33,0,0,0-3.14,5.19C14,26.9,21,20.37,29,13Z"/><path class="cls-2" d="M27.4,20.55C18.4,28,11.31,33.91,4.18,35.94q-.67,1.67-1.24,3.39C11.45,37.68,19.47,31,29.32,22.86c3-2.51,6.1-5.22,9.36-8.08C44.23,9.9,50.08,4.76,56.35,0,54.56,0,52.78.14,51,.33c-5,4-9.78,8.19-14.34,12.2C33.46,15.38,30.4,18.06,27.4,20.55Z"/><path class="cls-3" d="M27.24,30.9C16.89,38.49,9.42,43.59,1.65,43.82q-.36,1.5-.64,3c8.86.05,17.09-5.54,28-13.53,4.11-3,8.33-6.46,12.79-10.11,9-7.35,18.79-15.34,29.84-21.45-1.45-.37-2.93-.67-4.42-.93-10,6-19,13.28-27.32,20.06C35.48,24.52,31.29,27.94,27.24,30.9Z"/><path class="cls-4" d="M27.09,41.26C15.87,48.4,8.39,52.28.41,50.91q-.17,1.49-.26,3C9.38,55.4,17.69,50.8,28.7,43.79c5.27-3.35,10.7-7.51,16.46-11.92,11.7-9,24.84-19,40-24.7q-1.75-1-3.58-1.83c-14.52,5.95-27,15.54-38.27,24.14C37.64,33.86,32.25,38,27.09,41.26Z"/><path class="cls-5" d="M28.38,54.25c6.49-3.51,13.21-8.38,20.33-13.54,11.64-8.44,24.83-18,39.69-23.24a80.17,80.17,0,0,1,7.81-2.33q-1.34-1.24-2.77-2.39c-2,.54-4,1.17-6,1.89C72.13,20,58.75,29.73,46.95,38.29c-7,5.1-13.68,9.92-20,13.33C15.51,57.79,8.15,60.42.06,57.78c0,1.06,0,2.12.12,3.17C9.69,63.62,18,59.89,28.38,54.25Z"/><path class="cls-6" d="M28,64.71c7.79-3.47,15.84-9.06,24.37-15,11-7.63,22.33-15.51,35.22-20.59a79.71,79.71,0,0,1,16.74-4.66q-1-1.38-2-2.7a83.28,83.28,0,0,0-15.83,4.57C73.32,31.56,61.31,39.9,50.7,47.27,42.3,53.11,34.36,58.62,26.83,62,15.9,66.84,8.82,68.59.56,64.88c.15,1.16.33,2.31.56,3.44C9.62,71.45,17.37,69.46,28,64.71Z"/><path class="cls-7" d="M27.7,75.17C36.85,72,46.25,65.62,56.2,58.91c9.68-6.53,19.68-13.28,30.67-18.09a83.76,83.76,0,0,1,23-6.57q-.63-1.44-1.35-2.84a86.85,86.85,0,0,0-22.85,6.66C74.43,43,64.31,49.82,54.53,56.42s-19,12.84-27.82,15.92c-10.62,3.72-17.36,4-24.59.23q.54,2,1.21,3.88C10.39,79.33,17.47,78.75,27.7,75.17Z"/><path class="cls-8" d="M27.34,85.62C37.92,82.91,48.65,75.76,60,68.2c8.32-5.54,16.92-11.26,26.1-15.71a86.22,86.22,0,0,1,27-8.44q-.35-1.47-.77-2.92A90.44,90.44,0,0,0,84.8,49.79C75.44,54.32,66.75,60.11,58.35,65.7c-11.15,7.42-21.67,14.43-31.75,17C17.8,85,11.73,84.83,5.38,81.47q1,2.2,2.23,4.29C13.41,87.86,19.41,87.65,27.34,85.62Z"/><path class="cls-9" d="M63.76,77.57c6.94-4.63,14.12-9.43,21.59-13.42C94.94,59,103.42,55.89,112,54.3c.87-.16,1.72-.28,2.57-.4q-.09-1.51-.26-3c-.94.13-1.89.28-2.86.46C102.56,53,93.8,56.23,83.94,61.51c-7.6,4.06-14.84,8.9-21.84,13.57-12.45,8.31-24.21,16.16-35.6,18-5.79.94-10.36.68-14.48-.74q1.57,2,3.32,3.92A36.09,36.09,0,0,0,27,96.05C39,94.1,51,86.07,63.76,77.57Z"/><path class="cls-10" d="M84.59,75.82c9.69-5.71,17.93-9.27,25.92-11.22,1.3-.32,2.57-.58,3.82-.79q.17-1.53.27-3.08c-1.57.24-3.17.56-4.8,1-8.29,2-16.78,5.69-26.73,11.55-6,3.51-11.76,7.46-17.37,11.28C52,93.81,39.1,102.6,26.4,103.49c-1,.07-2,.09-2.88.08,1.35,1,2.73,1.92,4.17,2.79C40.83,105,53.74,96.27,67.38,87,73,83.2,78.72,79.27,84.59,75.82Z"/><path class="cls-11" d="M83.83,87.48C93.76,81,101.52,77.17,109,74.89q1.65-.5,3.24-.88c.33-1.07.61-2.16.88-3.26q-2.45.5-5,1.27C100.37,74.38,92.37,78.37,82.2,85c-4.43,2.87-8.83,6-13.09,9-10.31,7.27-20.23,14.25-30,17.71q2.32.78,4.72,1.37c8.92-3.87,17.83-10.14,27-16.63C75.07,93.4,79.45,90.31,83.83,87.48Z"/><path class="cls-12" d="M106.44,82.36c-9,3.32-17.74,9.1-25.1,14.32-3,2.12-6,4.34-8.88,6.49-5.47,4.05-10.83,8-16.14,11.43l1.06,0c1.56,0,3.1-.08,4.63-.2,4-2.77,8.11-5.79,12.24-8.85,2.89-2.14,5.88-4.36,8.83-6.46,7.2-5.1,15.73-10.75,24.4-14h0q1-1.86,1.94-3.81C108.43,81.66,107.44,82,106.44,82.36Z"/><path class="cls-13" d="M100.92,94.59c-8.14,4.24-16.14,10.42-24,16.64A57.42,57.42,0,0,0,100.92,94.59Z"/></svg>