<svg width="4961.01" height="1799.64" xmlns="http://www.w3.org/2000/svg">
 <defs>
  <style>.cls-1{fill:#f0f;}.cls-2{fill:#fa00ff;}.cls-3{fill:#f600ff;}.cls-4{fill:#f100ff;}.cls-5{fill:#ed00ff;}.cls-6{fill:#e800ff;}.cls-7{fill:#e400ff;}.cls-8{fill:#df00ff;}.cls-9{fill:#db00ff;}.cls-10{fill:#d600ff;}.cls-11{fill:#d200ff;}.cls-12{fill:#cd00ff;}.cls-13{fill:#c900ff;}.cls-14{fill:#c400ff;}.cls-15{fill:#c000ff;}.cls-16{fill:#b0f;}.cls-17{fill:#b700ff;}.cls-18{fill:#b200ff;}.cls-19{fill:#ae00ff;}.cls-20{fill:#a900ff;}.cls-21{fill:#a500ff;}.cls-22{fill:#a000ff;}.cls-23{fill:#9c00ff;}.cls-24{fill:#9700ff;}.cls-25{fill:#9300ff;}.cls-26{fill:#8e00ff;}.cls-27{fill:#8a00ff;}.cls-28{fill:#8500ff;}.cls-29{fill:#8100ff;}.cls-30{fill:#7c00ff;}.cls-31{fill:#7800ff;}.cls-32{fill:#7300ff;}.cls-33{fill:#6f00ff;}.cls-34{fill:#6a00ff;}.cls-35{fill:#60f;}.cls-36{fill:#6100ff;}.cls-37{fill:#5d00ff;}.cls-38{fill:#5800ff;}.cls-39{fill:#5400ff;}.cls-40{fill:#4f00ff;}.cls-41{fill:#4b00ff;}.cls-42{fill:#4600ff;}</style>
 </defs>
 <title>Curves_Pop-up_overlay_background_01</title>
 <g>
  <title>background</title>
  <rect fill="none" id="canvas_background" height="602" width="802" y="-1" x="-1"/>
 </g>
 <g>
  <title>Layer 1</title>
  <g transform="rotate(-180 2474.534912109375,898.4775390625001) " id="svg_43">
   <path id="svg_1" d="m45,1712.27l-1.34,-5.21c293,-75.32 568.91,-154.35 820,-234.88c197.93,-63.48 385.65,-129.59 557.95,-196.52c36.43,-14.15 72,-28.28 106.48,-41.94c239.08,-94.85 445.55,-176.77 739.3,-193.53c72.85,-4.15 129,-3.13 178.53,-2.23c91.34,1.66 151.66,2.76 224.82,-33.82c36.89,-18.44 67.39,-41.33 93.26,-70c23.13,-25.59 42.05,-55.3 57.86,-90.83c29.52,-66.32 43.07,-141.07 57.41,-220.2c21.14,-116.63 43,-237.24 119.93,-332.36c43.88,-54.27 106.2,-100.25 185.22,-136.68c91.15,-42 207.56,-72.77 346,-91.38c155.14,-20.86 342.5,-27.12 556.88,-18.6c235.88,9.42 511.14,36.91 818.11,81.91l-0.78,5.32c-306.78,-44.9 -581.85,-72.42 -817.56,-81.8c-214.07,-8.52 -401.12,-2.28 -555.95,18.54c-137.9,18.55 -253.79,49.14 -344.46,90.94c-78.27,36.08 -139.93,81.56 -183.29,135.18c-76.06,94.06 -97.8,214 -118.82,329.94c-14.4,79.46 -28,154.52 -57.79,221.43c-16,36.05 -35.27,66.23 -58.79,92.25c-26.33,29.13 -57.35,52.41 -94.85,71.16c-74.33,37.17 -135.19,36.06 -227.32,34.38c-49.44,-0.9 -105.48,-1.92 -178.13,2.22c-292.88,16.7 -499,98.47 -737.62,193.16c-34.45,13.67 -70.06,27.8 -106.51,42c-172.39,67 -360.22,133.12 -558.25,196.63c-251.21,80.52 -527.21,159.57 -820.29,234.92z" class="cls-1"/>
   <path id="svg_2" d="m50.62,1685.17l-1.12,-5.26c533.68,-113.54 997.82,-245.75 1379.51,-393c64.18,-24.65 125,-50 183.9,-74.57c105.39,-43.95 204.94,-85.46 311.64,-118.13c119.81,-36.69 231.48,-56.95 351.43,-63.76c83.14,-4.72 147.64,-0.53 199.47,2.83c81.68,5.3 140.69,9.13 210.47,-25.12c151,-74.1 178,-219.09 206.61,-372.59c21.55,-115.64 43.84,-235.21 121.22,-330.24c43.68,-53.71 105.25,-99.33 183.12,-135.42c89.73,-41.67 204.06,-72.26 339.82,-90.93c152.05,-20.91 335.53,-27.5 545.31,-19.58c230.73,8.7 499.85,35.19 799.88,78.74l-0.77,5.32c-299.84,-43.51 -568.77,-70 -799.31,-78.68c-209.48,-7.9 -392.64,-1.33 -544.39,19.54c-135.23,18.59 -249,49 -338.28,90.48c-77.08,35.79 -138,80.87 -181.21,134c-76.51,94 -98.67,212.86 -120.1,327.83c-14.55,78.07 -28.3,151.81 -57.86,217.26c-15.92,35.25 -35,64.71 -58.17,90.07c-26,28.37 -56.57,51 -93.5,69.1c-71.07,34.88 -130.68,31 -213.19,25.66c-51.68,-3.35 -116,-7.53 -198.81,-2.83c-119.51,6.79 -230.77,27 -350.16,63.54c-106.45,32.59 -205.88,74.05 -311.14,117.95c-58.89,24.56 -119.79,49.95 -184,74.62c-381.99,147.28 -846.41,279.58 -1380.37,393.17z" class="cls-2"/>
   <path id="svg_3" d="m56.27,1658.08l-0.89,-5.3c539.9,-91.07 1004.55,-210.37 1381.05,-354.57c82.15,-31.19 158.36,-65.1 232.07,-97.89c191.64,-85.26 372.64,-165.78 616.1,-179.55c90.21,-5.09 158.76,2.69 213.85,9c78.19,8.88 134.68,15.3 202.68,-17.48c148.51,-71.64 175.77,-213.79 204.63,-364.29c22,-114.62 44.72,-233.15 122.55,-328.08c43.48,-53.21 104.38,-98.37 181,-134.22c88.3,-41.31 200.56,-71.75 333.64,-90.47c149,-21 328.57,-27.88 533.77,-20.57c225.56,8 488.54,33.47 781.63,75.62l-0.77,5.33c-292.9,-42.12 -555.69,-67.55 -781.06,-75.57c-204.9,-7.29 -384.17,-0.39 -532.83,20.52c-132.56,18.64 -244.3,48.93 -332.11,90c-75.89,35.5 -136.16,80.17 -179.13,132.75c-77,93.88 -99.57,211.73 -121.43,325.69c-14.7,76.67 -28.59,149.09 -57.93,213.08c-15.8,34.46 -34.62,63.21 -57.54,87.9c-25.64,27.62 -55.77,49.56 -92.12,67.08c-69.4,33.45 -126.54,27 -205.62,18c-54.88,-6.23 -123.18,-14 -212.94,-8.93c-242.47,13.71 -423,94 -614.22,179.1c-73.77,32.82 -150.05,66.76 -232.33,98c-376.8,144.33 -841.8,263.72 -1382.05,354.85z" class="cls-3"/>
   <path id="svg_4" d="m61.92,1631l-0.67,-5.34c541.09,-67.57 1006.26,-173.94 1382.59,-316.17c94.13,-35.57 180,-76.52 263,-116.12c182.53,-87 354.93,-169.27 586.34,-182.31c95.39,-5.36 167,6.3 224.6,15.67c76.26,12.41 131.35,21.37 198.52,-10.43c146,-69.13 173.51,-208.43 202.63,-355.9c22.43,-113.58 45.62,-231 123.92,-325.89c43.28,-52.68 103.47,-97.43 178.91,-133c86.88,-41 197.06,-71.24 327.47,-90c145.9,-21 321.59,-28.25 522.22,-21.56c220.39,7.35 477.23,31.75 763.38,72.51l-0.76,5.33c-286,-40.73 -542.6,-65.11 -762.81,-72.46c-200.26,-6.71 -375.66,0.53 -521.26,21.48c-129.89,18.7 -239.55,48.83 -325.95,89.55c-74.71,35.22 -134.28,79.48 -177,131.54c-77.44,93.81 -100.5,210.58 -122.8,323.51c-29.39,148.84 -57.15,289.42 -205.61,359.72c-68.68,32.52 -127.38,23 -201.69,10.88c-60.29,-9.81 -128.62,-20.93 -223.43,-15.61c-230.35,13 -402.29,95 -584.32,181.79c-83.13,39.65 -169.1,80.64 -263.44,116.3c-376.76,142.38 -842.33,248.86 -1383.84,316.51z" class="cls-4"/>
   <path id="svg_5" d="m67.57,1603.86l-0.44,-5.36c544.58,-44.29 1010.26,-137.74 1384.12,-277.77c103.93,-38.92 197.21,-86.59 287.42,-132.69c175.36,-89.61 341,-174.26 563.13,-186.72c99.37,-5.55 170.44,9.47 233.14,22.73c72.43,15.32 129.64,27.41 196.57,-3.73c143.49,-66.75 171.21,-203.18 200.59,-347.62c22.89,-112.52 46.56,-228.88 125.33,-323.65c43.07,-52.15 102.56,-96.49 176.8,-131.76c85.45,-40.6 193.55,-70.73 321.3,-89.56c142.82,-21 314.63,-28.63 510.67,-22.54c215.23,6.68 465.93,30 745.14,69.39l-0.75,5.33c-279,-39.34 -529.52,-62.67 -744.55,-69.34c-195.72,-6.07 -367.21,1.49 -509.72,22.49c-127.22,18.75 -234.81,48.72 -319.78,89.09c-73.52,34.93 -132.39,78.78 -175,130.33c-77.91,93.73 -101.45,209.41 -124.2,321.29c-29.66,145.81 -57.67,283.52 -203.59,351.42a207.32,207.32 0 0 1 -90.15,20c-34.83,0 -70.05,-7.45 -109.8,-15.85c-62.37,-13.19 -133.06,-28.14 -231.72,-22.62c-221,12.4 -386.15,96.79 -561,186.14c-90.34,46.17 -183.76,93.91 -288,132.94c-374.27,140.2 -840.44,233.73 -1385.51,278.06z" class="cls-5"/>
   <path id="svg_6" d="m73.21,1576.75l-0.21,-5.38c547.68,-20.83 1013.88,-101.37 1385.66,-239.37c111.9,-41.54 210.81,-95.61 306.47,-147.9c169.79,-92.81 330.16,-180.48 545.27,-192.5c102.58,-5.71 175.72,13.27 240.24,30c72,18.69 129,33.45 196.06,2.76c64.28,-29.4 109.06,-74 140.93,-140.3c28.41,-59.1 42.72,-127.24 57.87,-199.38c23.37,-111.29 47.54,-226.37 126.48,-321.05c43,-51.59 101.85,-95.48 174.88,-130.44c84.08,-40.24 190.14,-70.19 315.14,-89.11c139.73,-21.11 307.62,-29 499,-23.58c210,6 454.59,28.28 726.83,66.25l-0.74,5.33c-272.05,-37.94 -516.39,-60.22 -726.24,-66.2c-191.07,-5.45 -358.64,2.47 -498.06,23.53c-124.49,18.81 -230,48.63 -313.59,88.64c-72.33,34.62 -130.55,78 -173.07,129c-78.13,93.67 -102.13,208.09 -125.35,318.74c-30,142.88 -58.36,277.84 -201.83,343.47c-68.84,31.49 -126.57,16.52 -199.65,-2.44c-64.14,-16.64 -136.84,-35.49 -238.59,-29.84c-213.9,12 -373.75,99.33 -543,191.85c-95.83,52.38 -194.92,106.55 -307.18,148.22c-372.31,138.2 -839.08,218.85 -1387.32,239.7z" class="cls-6"/>
   <path id="svg_7" d="m111.16,1549.71c-10.77,0 -21.47,0 -32.3,-0.08l0,-5.38c550.49,2.79 1017.2,-64.86 1387.19,-201c118.64,-43.65 222,-103.94 322,-162.25c165.28,-96.41 321.38,-187.47 531,-199.13c105.24,-5.83 180.2,17.14 246.35,37.4c72.06,22.07 129,39.51 196.54,9.12c63.06,-28.39 107.18,-71.7 138.75,-136.39c28.17,-57.67 42.64,-124.46 58,-195.18c23.86,-110.16 48.54,-224.07 127.91,-318.68c42.83,-51.06 101,-94.53 172.8,-129.19c82.65,-39.89 186.59,-69.71 308.94,-88.65c136.65,-21.16 300.65,-29.43 487.45,-24.58c204.88,5.31 443.28,26.55 708.57,63.13l-0.73,5.33c-265.1,-36.55 -503.3,-57.77 -708,-63.08c-186.47,-4.84 -350.15,3.42 -486.48,24.52c-121.81,18.86 -225.25,48.53 -307.42,88.18c-71.14,34.33 -128.68,77.33 -171,127.8c-78.51,93.58 -103,206.84 -126.77,316.36c-30.35,139.9 -58.96,272.04 -199.84,335.36c-69.42,31.22 -127.18,13.52 -200.32,-8.88c-65.71,-20.13 -140.19,-42.94 -244.47,-37.18c-208.31,11.59 -363.87,102.34 -528.57,198.41c-100.16,58.43 -203.73,118.84 -322.81,162.65c-363.33,133.68 -819.72,201.39 -1356.79,201.39z" class="cls-7"/>
   <path id="svg_8" d="m348.6,1529q-128.59,0 -264.09,-6.47l0.26,-5.37q135.36,6.47 263.86,6.47c439.13,0 816.58,-56.65 1124.86,-169.07c124.53,-45.41 231.5,-111.82 334.94,-176c81.45,-50.56 158.38,-98.32 242.51,-136.07c95.29,-42.76 183.21,-65.08 276.69,-70.26c107.49,-5.93 184.12,21.06 251.74,44.88c72.35,25.48 129.5,45.6 197.74,15.41c61.89,-27.46 105.32,-69.52 136.6,-132.52c27.93,-56.24 42.55,-121.68 58,-191c24.37,-109 49.57,-221.73 129.37,-316.26c42.65,-50.53 100.09,-93.57 170.73,-127.94c81.24,-39.53 183.1,-69.21 302.76,-88.2c133.58,-21.2 293.69,-29.81 475.88,-25.58c199.71,4.64 432,24.83 690.32,60l-0.73,5.33c-258.15,-35.16 -490.21,-55.33 -689.72,-60c-181.87,-4.22 -341.65,4.36 -474.91,25.51c-119.14,18.91 -220.49,48.42 -301.25,87.72c-70,34 -126.8,76.63 -169,126.58c-78.95,93.52 -104,205.59 -128.23,314c-15.56,69.61 -30.26,135.36 -58.47,192.18c-31.86,64.17 -76.11,107.07 -139.25,135c-32.23,14.25 -64.13,18.54 -100.39,13.49c-32.58,-4.54 -66,-16.3 -101.32,-28.75c-67.14,-23.64 -143.24,-50.44 -249.66,-44.58c-203.76,11.29 -355.75,105.64 -516.65,205.53c-103.68,64.36 -210.88,130.92 -335.94,176.52c-308.76,112.67 -686.91,169.45 -1126.65,169.45z" class="cls-8"/>
   <path id="svg_9" d="m526.26,1516q-208,0 -436.1,-20.59l0.48,-5.36c555.59,50.21 1023.35,8.41 1390.26,-124.22c129.8,-46.92 239.76,-119.37 346.1,-189.44c79.8,-52.58 155.18,-102.25 237.68,-141.43c93.47,-44.39 179.75,-67.42 271.55,-72.49c109.43,-6 187.62,25 256.6,52.38c35.23,14 68.51,27.18 100.88,32.79c35.62,6.18 66.95,2.64 98.59,-11.13c60.72,-26.43 103.43,-67.3 134.39,-128.63c27.68,-54.83 42.47,-118.91 58.12,-186.75c24.88,-107.83 50.62,-219.34 130.86,-313.8c42.47,-50 99.21,-92.62 168.64,-126.7c79.82,-39.17 179.6,-68.7 296.58,-87.74c130.5,-21.25 286.71,-30.19 464.31,-26.57c194.55,4 420.66,23.1 672.06,56.89l-0.72,5.33c-251.2,-33.76 -477.11,-52.89 -671.46,-56.84c-177.27,-3.61 -333.16,5.31 -463.34,26.5c-116.46,19 -215.74,48.32 -295.08,87.26c-68.77,33.75 -124.93,75.93 -166.92,125.35c-79.4,93.46 -105,204.32 -129.72,311.52c-15.73,68.17 -30.59,132.56 -58.56,188c-31.56,62.51 -75.11,104.19 -137,131.14a167.73,167.73 0 0 1 -68.08,14.43c-44.72,0 -87.94,-17.15 -135.52,-36c-68.46,-27.16 -146.07,-58 -254.32,-52c-200,11 -348.9,109.16 -506.56,213c-106.6,70.24 -216.83,142.87 -347.24,190c-267.2,96.55 -587.74,145.1 -956.48,145.1z" class="cls-9"/>
   <path id="svg_10" d="m663.9,1508.27q-266,0 -568.09,-40l0.71,-5.33c558,74 1026.24,45.15 1391.8,-85.84c134.62,-48.24 247.11,-126.7 355.91,-202.59c78.38,-54.67 152.4,-106.3 233.48,-147c91.88,-46.07 176.76,-69.83 267.13,-74.8c111.15,-6.07 190.79,29 261,59.9c35.47,15.61 69,30.36 101.72,37.12c36.09,7.45 67.83,4.52 99.89,-9.21c59.51,-25.49 101.51,-65.15 132.16,-124.84c27.43,-53.41 42.37,-116.13 58.2,-182.53c12.47,-52.32 25.36,-106.43 45.23,-159.34c22.53,-60 51,-109.71 87.16,-151.95c42.28,-49.46 98.32,-91.67 166.56,-125.45c78.4,-38.82 176.11,-68.19 290.41,-87.29c127.46,-21.26 279.83,-30.54 452.83,-27.54c189.39,3.29 409.36,21.38 653.81,53.77l-0.71,5.33c-244.25,-32.37 -464,-50.44 -653.2,-53.73c-172.67,-3 -324.67,6.26 -451.77,27.5c-113.78,19 -211,48.22 -288.91,86.8c-67.59,33.46 -123.05,75.23 -164.86,124.13c-79.85,93.4 -106,203 -131.24,309c-15.9,66.72 -30.92,129.75 -58.65,183.74c-31.25,60.86 -74.1,101.32 -134.83,127.33a162.15,162.15 0 0 1 -64.83,13.58c-46.75,0 -91.58,-19.73 -141.06,-41.51c-69.75,-30.64 -148.75,-65.41 -258.62,-59.41c-196.79,10.81 -343,112.81 -497.83,220.8c-109.08,76.09 -221.88,154.76 -357.17,203.24c-234.46,84 -511.03,126.12 -826.23,126.12z" class="cls-10"/>
   <path id="svg_11" d="m773.68,1504.35q-309.7,0 -672.22,-63.24l0.93,-5.3c560.26,97.9 1029.05,81.93 1393.34,-47.47c139.08,-49.4 253.75,-133.87 364.65,-215.55c77.12,-56.8 150,-110.45 229.78,-152.6c90.47,-47.77 174.13,-72.3 263.28,-77.18c112.7,-6.11 193.7,32.95 265.17,67.42c35.77,17.25 69.55,33.55 102.74,41.46c36.6,8.73 68.8,6.41 101.33,-7.3c58.3,-24.56 99.57,-63 129.9,-121.09c27.17,-52 42.27,-113.35 58.26,-178.31c12.72,-51.66 25.87,-105.07 46,-157.54c22.86,-59.54 51.62,-109 87.93,-151.2c42.09,-48.92 97.43,-90.71 164.48,-124.21c77,-38.46 172.61,-67.68 284.23,-86.83c124.35,-21.34 272.77,-31 441.18,-28.56c184.23,2.61 398.06,19.65 635.56,50.65l-0.7,5.34c-237.29,-31 -450.91,-48 -634.94,-50.61c-168.07,-2.38 -316.17,7.2 -440.19,28.49c-111.1,19.07 -206.23,48.12 -282.74,86.34c-67.34,33.64 -120.59,73.85 -162.8,122.91c-35.9,41.73 -64.36,90.67 -87,149.62c-20,52.16 -33.13,105.4 -45.81,156.9c-16.04,65.26 -31.21,126.92 -58.68,179.51c-30.94,59.22 -73.07,98.48 -132.58,123.56c-73.36,30.91 -136,0.7 -208.5,-34.27c-70.88,-34.19 -151.22,-72.95 -262.54,-66.89c-194,10.62 -337.88,116.57 -490.17,228.74c-111.21,81.91 -226.21,166.62 -366,216.29c-208.17,73.91 -450.27,110.92 -723.89,110.92z" class="cls-11"/>
   <path id="svg_12" d="m863.41,1503.22c-228.93,0 -481.53,-29.75 -756.29,-89.25l1.14,-5.26c562.5,121.82 1031.8,118.76 1394.88,-9.1c143.27,-50.45 259.84,-140.91 372.58,-228.39c76,-59 147.76,-114.66 226.46,-158.33c42.34,-23.5 82.64,-41.23 123.2,-54.21a538.68,538.68 0 0 1 136.67,-25.38c114.1,-6.16 196.42,36.91 269,74.92c72.18,37.77 134.52,70.4 206.79,40.42c57.07,-23.67 97.62,-61 127.62,-117.4c26.91,-50.61 42.17,-110.59 58.33,-174.08c13,-51 26.38,-103.69 46.81,-155.7c23.19,-59.06 52.21,-108.27 88.73,-150.43c42.49,-49.07 95.61,-89.29 162.39,-123c75.56,-38.1 169.11,-67.17 278.06,-86.38c121.28,-21.39 265.83,-31.33 429.62,-29.56c179.07,1.94 386.76,17.93 617.3,47.54l-0.7,5.37c-230.33,-29.58 -437.81,-45.55 -616.68,-47.49c-163.46,-1.77 -307.68,8.15 -428.63,29.48c-108.43,19.12 -201.48,48 -276.57,85.88c-66.12,33.34 -118.66,73.13 -160.69,121.68c-36.11,41.69 -64.82,90.39 -87.79,148.88c-20.3,51.7 -33.67,104.25 -46.6,155.06c-16.24,63.82 -31.58,124.1 -58.79,175.28c-30.62,57.59 -72,95.67 -130.31,119.84a153.86,153.86 0 0 1 -59.73,12.21c-50.67,0 -98.52,-25 -151.61,-52.83c-72,-37.69 -153.63,-80.39 -266.25,-74.31c-191.63,10.43 -333.35,120.38 -483.35,236.79c-113.07,87.74 -230,178.47 -374.09,229.21c-186.51,65.69 -400.91,98.54 -641.5,98.54z" class="cls-12"/>
   <path id="svg_13" d="m938.26,1504.2c-246.61,0 -522.42,-39.14 -825.48,-117.37l1.34,-5.21c302.6,78.12 578,117.21 824.13,117.21c213.15,0 404.31,-29.3 572.29,-87.95c147.25,-51.41 265.49,-147.86 379.84,-241.14c75,-61.15 145.76,-118.91 223.45,-164.12c41.79,-24.32 81.59,-42.65 121.68,-56a507.78,507.78 0 0 1 135.14,-26c115.39,-6.2 199,40.86 272.7,82.39c73.09,41.17 136.21,76.72 209.72,46.72c55.83,-22.79 95.65,-58.94 125.32,-113.75c26.64,-49.22 42.06,-107.82 58.38,-169.87c13.23,-50.28 26.9,-102.28 47.61,-153.84c23.53,-58.58 52.82,-107.53 89.53,-149.65c42.3,-48.53 94.73,-88.34 160.3,-121.72c74.14,-37.75 165.62,-66.66 271.88,-85.92c118.2,-21.43 258.85,-31.71 418.06,-30.55c173.92,1.26 375.47,16.21 599.05,44.42l-0.67,5.34c-223.36,-28.19 -424.7,-43.19 -598.41,-44.42c-158.85,-1.15 -299.18,9.1 -417.06,30.47c-105.75,19.17 -196.73,47.91 -270.4,85.42c-64.94,33.06 -116.85,72.47 -158.68,120.46c-36.31,41.66 -65.29,90.11 -88.6,148.12c-20.58,51.24 -34.22,103.07 -47.4,153.2c-16.4,62.37 -31.9,121.27 -58.85,171.06c-30.29,56 -71,92.88 -128,116.17c-75.91,31 -140.09,-5.16 -214.39,-47c-73.09,-41.17 -155.93,-87.84 -269.77,-81.71c-189.49,10.28 -329.22,124.27 -477.16,245c-114.71,93.58 -233.33,190.34 -381.46,242.06c-168.55,58.77 -360.35,88.18 -574.09,88.18z" class="cls-13"/>
   <path id="svg_14" d="m1001.83,1506.81c-260.75,0 -556,-49.08 -883.39,-147.13l1.54,-5.15c566.8,169.77 1037.14,192.52 1398,67.63c151,-52.28 270.77,-154.75 386.56,-253.85c74,-63.35 143.93,-123.19 220.69,-169.94c41.29,-25.15 80.64,-44.08 120.29,-57.88a480.44,480.44 0 0 1 133.77,-26.62c116.6,-6.24 201.38,44.8 276.18,89.83c74.06,44.59 138,83.09 212.83,53c119.47,-48 148.18,-153.57 181.43,-275.8c26.35,-96.87 56.21,-206.66 138.79,-300.78c42.1,-48 93.85,-87.39 158.21,-120.48c72.72,-37.39 162.12,-66.14 265.71,-85.47c112.33,-21 245.26,-31.57 395.24,-31.57l11.25,0c168.76,0.59 364.17,14.49 580.8,41.3l-0.66,5.34c-216.42,-26.79 -411.61,-40.67 -580.16,-41.26c-154.25,-0.55 -290.69,10 -405.49,31.46c-103.08,19.23 -192,47.81 -264.23,85c-63.75,32.77 -115,71.78 -156.62,119.25c-81.76,93.18 -111.45,202.34 -137.64,298.64c-16.57,60.91 -32.22,118.44 -58.9,166.84c-30,54.35 -69.91,90.11 -125.71,112.54c-77.28,31.06 -142.31,-8.09 -217.61,-53.42c-74.14,-44.63 -158.19,-95.21 -273.12,-89.07c-187.59,10.15 -325.59,128.2 -471.59,253.17c-116.17,99.42 -236.29,202.23 -388.3,254.84c-153.28,53.07 -326.25,79.58 -517.87,79.58z" class="cls-14"/>
   <path id="svg_15" d="m1055.85,1510.78q-43.48,0 -88.08,-2c-119.82,-5.43 -248.5,-22 -382.46,-49.19c-145,-29.45 -300.17,-72.19 -461.19,-127l1.73,-5.09c160.8,54.78 315.75,97.46 460.53,126.86c133.68,27.09 262.08,43.64 381.62,49.02c109.09,4.95 213.53,0.78 310.43,-12.39c87,-11.82 170.07,-31.19 246.94,-57.57c154.71,-53.09 275.76,-161.59 392.83,-266.51c73.15,-65.56 142.24,-127.48 218.14,-175.78c40.83,-26 79.75,-45.52 119,-59.72a456.07,456.07 0 0 1 132.52,-27.25c117.72,-6.28 203.67,48.72 279.52,97.24c75.09,48 139.94,89.52 216.08,59.4c116.7,-46.16 145.63,-149 179.13,-268c26.9,-95.61 57.39,-204 140.46,-298c89.06,-100.83 225,-167.65 415.64,-204.25c112.07,-21.55 244.94,-32.55 394.94,-32.62l1.51,0c163.27,0 352,12.84 561,38.18l-0.65,5.34c-209.46,-25.39 -398.48,-38.2 -561.9,-38.14c-149.66,0.07 -282.19,11 -393.92,32.44c-189.41,36.37 -324.38,102.62 -412.62,202.53c-82.25,93.13 -112.56,200.86 -139.31,295.92c-16.73,59.45 -32.53,115.61 -58.94,162.63c-29.63,52.75 -68.84,87.37 -123.39,108.95a146.17,146.17 0 0 1 -54.36,10.67c-56.33,0 -108.44,-33.34 -166.59,-70.54c-75.16,-48.08 -160.36,-102.58 -276.33,-96.39c-185.87,10 -322.12,132.11 -466.36,261.4c-117.47,105.28 -238.94,214.15 -394.68,267.59c-77.2,26.49 -160.63,45.95 -248,57.81c-70.73,9.62 -145.56,14.46 -223.24,14.46z" class="cls-15"/>
   <path id="svg_16" d="m1103.92,1515.69q-63.1,0 -128.82,-4.67c-119.91,-8.54 -248.77,-29 -383,-60.86c-145.25,-34.46 -300.79,-83.17 -462.29,-144.79l1.92,-5c161.29,61.54 316.6,110.18 461.62,144.58c134,31.78 262.54,52.21 382.16,60.72c109.21,7.77 213.69,5.81 310.53,-5.84c87,-10.47 170,-29 246.77,-55.12c158.25,-53.85 280.51,-168.39 398.73,-279.16c72.34,-67.78 140.66,-131.79 215.75,-181.64c40.4,-26.81 78.93,-47 117.82,-61.57c43.54,-16.36 86.52,-25.49 131.39,-27.89c118.77,-6.31 205.87,52.62 282.73,104.6c76.15,51.51 141.92,96 219.45,65.8c113.92,-44.36 143.07,-144.45 176.81,-260.33c27.46,-94.33 58.59,-201.24 142.14,-295.21c88.54,-99.59 221.8,-165.84 407.37,-202.55c109,-21.56 238,-32.84 383.38,-33.53c4.73,0 9.51,0 14.28,0c155.16,0 333.36,11.8 530,35.1l-0.63,5.34c-202.49,-24 -385.41,-35.76 -543.64,-35c-145.05,0.69 -273.7,11.93 -382.36,33.43c-184.38,36.47 -316.66,102.17 -404.39,200.85c-82.75,93.07 -113.69,199.36 -141,293.14c-34.14,117.25 -63.62,218.51 -180,263.84c-36.72,14.3 -72.91,13.61 -113.88,-2.18c-36.38,-14 -72.4,-38.38 -110.54,-64.17c-76.22,-51.58 -162.51,-110.02 -279.46,-103.78c-184.31,9.88 -319,136.06 -461.57,269.65c-118.65,111.16 -241.33,226.11 -400.68,280.33c-77.1,26.23 -160.49,44.86 -247.86,55.37a1532.66,1532.66 0 0 1 -182.73,10.54z" class="cls-16"/>
   <path id="svg_17" d="m1146.51,1521.45c-53.18,0 -108,-2.72 -164.07,-8.16c-120,-11.64 -249,-36 -383.58,-72.53c-145.5,-39.46 -301.4,-94.15 -463.39,-162.54l2.09,-5c161.77,68.3 317.45,122.91 462.71,162.31c134.25,36.41 263,60.76 382.69,72.37c109.33,10.6 213.85,10.84 310.64,0.71c87,-9.11 170,-26.84 246.6,-52.68c161.7,-54.55 285,-175.17 404.32,-291.81c141.76,-138.63 275.66,-269.57 460.57,-279.44c119.75,-6.32 208,56.49 285.84,111.92c77.25,55 144,102.51 222.93,72.24c111.14,-42.6 140.49,-140 174.46,-252.68c28,-93 59.81,-198.44 143.86,-292.33c88,-98.34 218.57,-164 399.1,-200.86c105.93,-21.61 231,-33.22 371.82,-34.53c153.3,-1.4 330.3,9.33 526.05,31.95l-0.62,5.35c-195.53,-22.59 -372.28,-33.34 -525.39,-31.91c-140.45,1.3 -265.2,12.88 -370.8,34.42c-179.34,36.6 -308.94,101.75 -396.16,199.19c-83.25,93 -114.84,197.82 -142.71,290.3c-34.38,114.08 -64.08,212.61 -177.69,256.16c-37.4,14.33 -74.23,13 -115.9,-4.17c-37,-15.24 -73.45,-41.22 -112.08,-68.72c-77.13,-54.92 -164.52,-117.17 -282.43,-110.93c-182.88,9.76 -316.08,140 -457.09,277.91c-119.71,117.07 -243.5,238.12 -406.36,293.06c-77,26 -160.35,43.79 -247.76,52.94a1419.77,1419.77 0 0 1 -147.65,7.46z" class="cls-17"/>
   <path id="svg_18" d="m1184.54,1527.9a1601.83,1601.83 0 0 1 -194.77,-12.33c-120.07,-14.74 -249.32,-43.07 -384.14,-84.21c-145.74,-44.47 -302,-105.13 -464.49,-180.3l2.26,-4.88c162.25,75.06 318.3,135.63 463.8,180c134.53,41 263.46,69.31 383.23,84c109.46,13.43 214,15.87 310.75,7.25c87,-7.76 169.94,-24.66 246.43,-50.25c165.07,-55.22 289.4,-181.93 409.64,-304.47c140.28,-143 272.79,-278 456.45,-287.77c120.71,-6.34 210,60.35 288.85,119.2c78.38,58.53 146.08,109.08 226.5,78.73c49.58,-18.71 85.68,-49.27 113.61,-96.18c25.24,-42.4 41.39,-94.14 58.49,-148.92c28.61,-91.68 61,-195.59 145.59,-289.4c87.49,-97.09 215.33,-162.23 390.82,-199.16c102.86,-21.65 224.07,-33.6 360.26,-35.52c148.18,-2.1 319,7.61 507.81,28.83l-0.6,5.35c-188.56,-21.19 -359.2,-30.88 -507.13,-28.8c-135.85,1.92 -256.71,13.83 -359.23,35.4c-174.33,36.69 -301.23,101.29 -387.93,197.5c-83.76,92.94 -116,196.25 -144.45,287.41c-34.62,110.92 -64.52,206.72 -175.33,248.53c-38.1,14.37 -75.58,12.41 -118,-6.17c-37.56,-16.47 -74.53,-44.07 -113.66,-73.29c-78.08,-58.3 -166.59,-124.36 -285.35,-118.14c-181.57,9.65 -313.36,144 -452.89,286.16c-120.68,123 -245.48,250.17 -411.77,305.8c-76.89,25.72 -160.21,42.71 -247.66,50.5q-56.83,5.13 -117.09,5.13z" class="cls-18"/>
   <path id="svg_19" d="m1218.78,1534.92c-70.82,0 -145,-5.71 -221.66,-17.09c-120.12,-17.83 -249.6,-50.09 -384.71,-95.83c-146,-49.47 -302.64,-116.11 -465.59,-198l2.42,-4.81c162.73,81.83 319.15,148.36 464.9,197.76c134.8,45.68 263.92,77.87 383.76,95.66c109.58,16.27 214.17,20.91 310.86,13.8c87,-6.4 169.89,-22.49 246.26,-47.82c168.37,-55.85 293.61,-188.68 414.72,-317.14c138.88,-147.3 270.05,-286.43 452.56,-296.08c121.61,-6.37 212,64.18 291.79,126.43c79.54,62.07 148.23,115.69 230.16,85.26c48.33,-17.95 83.67,-47.43 111.24,-92.81c24.95,-41.07 41.24,-91.44 58.48,-144.77c29.2,-90.31 62.3,-192.68 147.34,-286.41c87,-95.83 212.08,-160.43 382.54,-197.47c99.8,-21.69 217.12,-34 348.71,-36.51c143,-2.75 307.74,5.89 489.56,25.71l-0.58,5.35c-181.59,-19.8 -346.07,-28.43 -488.87,-25.68c-131.24,2.53 -248.21,14.77 -347.67,36.39c-169.32,36.8 -293.52,100.85 -379.69,195.83c-84.31,92.78 -117.2,194.56 -146.24,284.31c-34.85,107.78 -64.94,200.85 -173,241c-38.81,14.41 -77,11.81 -120.06,-8.18c-38.17,-17.71 -75.63,-46.94 -115.28,-77.88c-40.44,-31.56 -82.26,-64.2 -129.43,-88.51c-53.45,-27.55 -105.38,-39.58 -158.77,-36.79c-180.35,9.54 -310.81,147.91 -448.92,294.4c-121.57,128.95 -247.29,262.28 -416.94,318.55c-76.79,25.47 -160.08,41.64 -247.56,48.08q-44.11,3.25 -90.33,3.25z" class="cls-19"/>
   <path id="svg_20" d="m1249.82,1542.43c-77.85,0 -160.09,-7.47 -245.36,-22.32c-120.25,-20.94 -249.87,-57.11 -385.26,-107.57c-146.24,-54.48 -303.25,-127.08 -466.69,-215.8l2.57,-4.73c163.21,88.6 320,161.1 466,215.49c135.08,50.32 264.38,86.42 384.3,107.31c109.7,19.1 214.32,25.94 311,20.34c87,-5 169.84,-20.32 246.08,-45.39c171.61,-56.44 297.68,-195.42 419.61,-329.83c137.53,-151.61 267.44,-294.82 448.87,-304.38c122.52,-6.38 214,68 294.65,133.61c39.94,32.48 77.67,63.16 115.9,81.84c42.43,20.73 79.92,23.91 118,10c47.07,-17.2 81.66,-45.63 108.86,-89.47c24.65,-39.74 41.07,-88.75 58.46,-140.64c29.79,-88.92 63.56,-189.71 149.11,-283.34c86.41,-94.58 208.83,-158.62 374.25,-195.78c96.74,-21.73 210.17,-34.35 337.16,-37.5c137.89,-3.42 296.46,4.18 471.32,22.6l-0.56,5.35c-174.62,-18.4 -333,-26 -470.62,-22.57c-126.63,3.15 -239.72,15.72 -336.11,37.37c-164.36,36.91 -285.89,100.42 -371.53,194.16c-84.78,92.8 -118.36,193 -148,281.43c-17.49,52.19 -34,101.49 -59,141.77c-27.86,44.92 -63.32,74.06 -111.58,91.69c-39.53,14.44 -78.35,11.19 -122.19,-10.22c-38.79,-19 -76.75,-49.82 -116.93,-82.5c-41,-33.31 -83.3,-67.75 -130.93,-93.41c-53.93,-29.05 -106.28,-41.81 -160,-39c-179.22,9.44 -308.4,151.85 -445.17,302.62c-122.39,134.92 -248.95,274.44 -421.91,331.33c-76.68,25.22 -159.94,40.58 -247.45,45.65q-32.84,1.89 -66.85,1.89z" class="cls-20"/>
   <path id="svg_21" d="m1278.16,1550.34c-84,0 -173.33,-9.37 -266.37,-28c-120.33,-24 -250.14,-64.16 -385.81,-119.25c-146.49,-59.48 -303.87,-138.06 -467.78,-233.55l2.71,-4.65c163.69,95.41 320.85,173.88 467.09,233.26c135.36,55 264.84,95 384.84,119c109.82,21.93 214.47,31 311.08,26.89c87.06,-3.69 169.79,-18.14 245.91,-43c174.81,-57 301.65,-202.17 424.31,-342.55c136.24,-155.92 264.92,-303.18 445.36,-312.65c55.16,-2.87 108.87,10.84 164.2,41.9c48.53,27.24 91.6,63.65 133.25,98.86c40.49,34.22 78.73,66.54 117.6,86.47c43.16,22.12 81.31,25.94 120.07,12c45.82,-16.47 79.65,-43.86 106.47,-86.19c24.35,-38.43 40.9,-86.09 58.43,-136.54c30.39,-87.5 64.84,-186.68 150.89,-280.21c85.85,-93.32 205.56,-156.81 366,-194.08c93.67,-21.77 203.22,-34.72 325.6,-38.49c132.75,-4.09 285.19,2.46 453.07,19.48l-0.54,5.35c-167.65,-17 -319.85,-23.54 -452.36,-19.46c-122,3.76 -231.22,16.67 -324.55,38.35c-159.31,37 -278.12,100 -363.22,192.49c-85.29,92.71 -119.55,191.33 -149.77,278.34c-17.63,50.75 -34.28,98.69 -59,137.65c-27.49,43.4 -62.19,71.48 -109.2,88.38a138.53,138.53 0 0 1 -47.28,8.51c-24.69,0 -49.94,-6.89 -77.07,-20.79c-39.42,-20.21 -77.89,-52.72 -118.61,-87.15c-41.46,-35 -84.33,-71.28 -132.41,-98.27c-54.41,-30.54 -107.18,-44 -161.28,-41.21c-178.16,9.33 -306.12,155.77 -441.59,310.77c-123.14,140.93 -250.48,286.65 -426.69,344.12c-76.58,25 -159.8,39.52 -247.35,43.23q-22.7,0.99 -46,0.99z" class="cls-21"/>
   <path id="svg_22" d="m1304.21,1558.59c-89.29,0 -185,-11.39 -285.07,-33.93c-120.42,-27.13 -250.41,-71.19 -386.37,-130.93c-146.74,-64.48 -304.49,-149 -468.88,-251.31l2.84,-4.57c164.17,102.14 321.7,186.57 468.2,251c135.64,59.61 265.3,103.55 385.39,130.61c109.94,24.77 214.63,36 311.2,33.44c87.06,-2.33 169.74,-16 245.73,-40.55c178,-57.55 305.51,-208.91 428.86,-355.29c135,-160.2 262.5,-311.51 442,-320.89c55.54,-2.87 109.68,11.56 165.49,44.13c49,28.57 92.56,66.77 134.7,103.71c41,36 79.8,69.94 119.31,91.12c43.9,23.53 82.72,28 122.2,14c44.57,-15.76 77.64,-42.12 104.08,-83c24,-37.14 40.72,-83.44 58.39,-132.46c31,-86.05 66.14,-183.58 152.69,-277c85.29,-92.06 202.28,-155 357.67,-192.39c90.61,-21.81 196.28,-35.09 314.05,-39.48c127.61,-4.76 273.92,0.75 434.83,16.37l-0.52,5.36c-160.68,-15.59 -306.74,-21.09 -434.11,-16.34c-117.42,4.38 -222.73,17.61 -313,39.34c-154.32,37.14 -270.44,99.56 -355,190.82c-85.81,92.62 -120.75,189.61 -151.58,275.18c-17.77,49.32 -34.55,95.91 -58.93,133.56c-27.12,41.89 -61.06,68.93 -106.81,85.1c-41,14.5 -81.21,9.93 -126.53,-14.36c-40.05,-21.47 -79,-55.64 -120.32,-91.81c-42,-36.77 -85.34,-74.8 -133.87,-103.11c-54.88,-32 -108,-46.21 -162.5,-43.4c-177.17,9.25 -304,159.7 -438.17,319c-123.84,147 -251.89,298.92 -431.32,356.94c-76.48,24.73 -159.66,38.46 -247.24,40.81q-13.57,0.33 -27.41,0.33z" class="cls-22"/>
   <path id="svg_23" d="m1328.31,1567.14c-94,0 -195.42,-13.51 -301.82,-40.2c-120.51,-30.23 -250.69,-78.22 -386.92,-142.62c-147,-69.48 -305.11,-160 -470,-269.06l3,-4.49c164.65,108.91 322.55,199.31 469.3,268.69c135.92,64.25 265.77,112.12 385.93,142.26c110.05,27.61 214.79,41 311.31,40c87.07,-1 169.68,-13.8 245.55,-38.13c181.08,-58.07 309.28,-215.66 433.27,-368.07c133.79,-164.52 260.17,-319.83 438.79,-329.12c55.93,-2.87 110.46,12.28 166.75,46.34c49.41,29.9 93.5,69.88 136.14,108.54c41.6,37.72 80.89,73.35 121.05,95.79c44.64,24.95 84.15,30.06 124.35,16.08c94.49,-32.84 123.41,-110.22 160,-208.18c31.61,-84.57 67.45,-180.43 154.5,-273.73c84.71,-90.8 199,-153.18 349.38,-190.7c87.56,-21.85 189.33,-35.46 302.5,-40.47c122.49,-5.42 262.65,-1 416.59,13.25l-0.5,5.36c-153.69,-14.19 -293.61,-18.64 -415.85,-13.23c-112.81,5 -214.23,18.56 -301.44,40.32c-149.3,37.23 -262.73,99.13 -346.71,189.15c-86.32,92.52 -122,187.84 -153.39,271.94c-17.9,47.89 -34.82,93.13 -58.89,129.5c-26.74,40.39 -59.92,66.41 -104.42,81.88c-41.75,14.52 -82.66,9.28 -128.74,-16.47c-40.7,-22.74 -80.21,-58.57 -122,-96.5c-42.45,-38.49 -86.35,-78.29 -135.31,-107.92c-55.38,-33.49 -108.91,-48.35 -163.73,-45.58c-176.24,9.17 -301.88,163.61 -434.9,327.12c-124.48,153 -253.2,311.24 -435.8,369.8c-76.38,24.49 -159.53,37.41 -247.13,38.39c-3.6,0.04 -7.23,0.06 -10.86,0.06z" class="cls-23"/>
   <path id="svg_24" d="m1350.72,1576l-4,0c-97,-0.42 -202.2,-16.14 -312.84,-46.72c-120.59,-33.33 -251,-85.25 -387.48,-154.3c-147.24,-74.48 -305.73,-171 -471.07,-286.82l3.09,-4.41c165.13,115.69 323.4,212.05 470.41,286.42c136.17,68.83 266.17,120.63 386.45,153.83c110.17,30.45 215,46.1 311.43,46.53l4,0c85.6,0 166.77,-12 241.36,-35.73c184.17,-58.56 313,-222.42 437.56,-380.88c132.63,-168.71 257.9,-328.06 435.7,-337.27c56.28,-2.89 111.23,13 168,48.54c49.83,31.21 94.43,73 137.55,113.34c42.17,39.48 82,76.77 122.81,100.48c45.4,26.38 85.61,32.15 126.53,18.16c91.78,-31.31 120.78,-106.17 157.58,-200.99c32.23,-83.06 68.77,-177.2 156.31,-270.37c84.13,-89.53 195.7,-151.35 341.08,-189c84.5,-21.88 182.39,-35.83 291,-41.46c117.36,-6.08 251.39,-2.67 398.35,10.13l-0.47,5.36c-146.72,-12.79 -280.49,-16.19 -397.6,-10.12c-108.2,5.61 -205.73,19.5 -289.88,41.3c-144.37,37.39 -255.1,98.72 -338.51,187.48c-86.83,92.4 -123.16,186 -155.22,268.63c-18.82,48.5 -35.07,90.38 -58.84,125.47c-26.36,38.92 -58.78,63.93 -102,78.7c-42.52,14.52 -84.13,8.61 -131,-18.6c-41.34,-24 -81.39,-61.51 -123.78,-101.21c-42.94,-40.2 -87.33,-81.77 -136.73,-112.7c-55.79,-34.94 -109.71,-50.54 -164.86,-47.72c-175.36,9.08 -299.9,167.5 -431.75,335.22c-61.68,78.46 -125.46,159.59 -196.72,228.14c-80.65,77.57 -160.28,128.08 -243.48,154.57c-75.1,23.85 -156.84,36 -242.98,36z" class="cls-24"/>
   <path id="svg_25" d="m1371.78,1585q-8.76,0 -17.59,-0.18c-96.92,-1.93 -202.23,-19.87 -313,-53.3c-120.68,-36.43 -251.24,-92.27 -388,-166c-147.51,-79.52 -306.37,-181.96 -472.19,-304.58l3.2,-4.33c165.61,122.46 324.25,224.8 471.51,304.16c136.48,73.55 266.69,129.26 387,165.58c110.29,33.29 215.11,51.14 311.54,53.07c87.06,1.75 169.56,-9.47 245.18,-33.32c83.75,-26.41 163.7,-78 244.41,-157.7c71.61,-70.71 135.51,-154.76 197.32,-236c131.5,-172.94 255.71,-336.28 432.72,-345.41c56.63,-2.9 112,13.7 169.21,50.71c50.26,32.51 95.34,76 138.94,118.1c42.74,41.25 83.1,80.2 124.58,105.2c46.16,27.82 87.06,34.26 128.74,20.27c89,-29.87 118.2,-102.28 155.14,-194c32.85,-81.52 70.09,-173.91 158.13,-266.92c83.53,-88.25 192.38,-149.53 332.78,-187.32c81.44,-21.92 175.45,-36.2 279.4,-42.45c112.24,-6.75 240.12,-4.39 380.11,7l-0.44,5.36c-139.73,-11.38 -267.36,-13.74 -379.35,-7c-103.59,6.23 -197.24,20.45 -278.33,42.28c-139.41,37.52 -247.45,98.3 -330.27,185.82c-87.33,92.27 -124.37,184.16 -157,265.23c-37.47,93 -67.06,166.38 -158.42,197c-43.28,14.53 -85.62,7.93 -133.23,-20.76c-42,-25.31 -82.57,-64.47 -125.54,-105.93c-43.42,-41.9 -88.31,-85.23 -138.13,-117.46c-56.24,-36.38 -110.55,-52.69 -166,-49.86c-174.52,9 -298,171.38 -428.72,343.29c-61.92,81.43 -125.94,165.63 -197.82,236.61c-81.33,80.32 -162,132.33 -246.57,159c-71.09,22.49 -148.09,33.84 -229.31,33.84z" class="cls-25"/>
   <path id="svg_26" d="m1391.69,1594.2q-14.9,0 -30,-0.54c-96.9,-3.44 -202.25,-23.59 -313.15,-59.88c-120.76,-39.51 -251.54,-99.29 -388.54,-177.67c-147.74,-84.48 -307,-192.93 -473.25,-322.33l3.3,-4.25c166.09,129.24 325.1,237.55 472.62,321.9c136.76,78.2 267.16,137.83 387.59,177.24c110.41,36.13 215.27,56.19 311.66,59.62c87.07,3.09 169.5,-7.31 245,-30.92c85.1,-26.61 166,-79.63 247.44,-162.1c72.2,-73.15 136.34,-160.27 198.36,-244.53c130.4,-177.14 253.57,-344.46 429.84,-353.5c57,-2.88 112.73,14.4 170.41,52.87c50.67,33.8 96.25,79.07 140.32,122.84c43.31,43 84.22,83.65 126.36,109.93c46.92,29.27 88.54,36.39 131,22.41c86.3,-28.44 115.6,-98.4 152.7,-187c31.82,-76 71.43,-170.54 159.94,-263.38c82.92,-87 189.06,-147.69 324.48,-185.62c78.39,-22 168.51,-36.57 267.85,-43.44c107.12,-7.41 228.86,-6.09 361.87,3.9l-0.4,5.37c-132.75,-10 -254.24,-11.29 -361.09,-3.9c-99,6.84 -188.74,21.4 -266.77,43.26c-134.47,37.66 -239.8,97.9 -322,184.16c-87.82,92.12 -125.57,182.24 -158.87,261.75c-37.63,89.84 -67.35,160.8 -156,190c-44.06,14.52 -87.12,7.23 -135.5,-23c-42.66,-26.61 -83.77,-67.44 -127.3,-110.68c-43.97,-43.53 -89.36,-88.61 -139.56,-122.11c-56.68,-37.81 -111.36,-54.8 -167.15,-52c-173.73,8.92 -296.16,175.23 -425.78,351.32c-62.14,84.41 -126.39,171.69 -198.87,245.12c-82,83.11 -163.7,136.57 -249.67,163.46c-67.38,21.07 -140.19,31.7 -216.84,31.7z" class="cls-26"/>
   <path id="svg_27" d="m1410.57,1603.6q-20.5,0 -41.36,-1.07c-96.87,-5 -202.28,-27.31 -313.3,-66.46c-120.86,-42.62 -251.79,-106.33 -389.13,-189.37c-148,-89.48 -307.58,-203.9 -474.35,-340.08l3.4,-4.17c166.57,136 326,250.3 473.73,339.64c137.04,82.91 267.63,146.42 388.14,188.91c110.53,39 215.43,61.23 311.79,66.16c87.07,4.45 169.44,-5.14 244.82,-28.52c86.44,-26.8 168.36,-81.27 250.43,-166.51c72.78,-75.59 137.13,-165.8 199.35,-253c129.33,-181.32 251.49,-352.59 427.06,-361.56c57.35,-2.9 113.46,15.09 171.59,55c51.08,35.08 97.14,82.09 141.69,127.55c43.89,44.79 85.34,87.1 128.15,114.68c47.7,30.73 90,38.54 133.22,24.58c38.41,-12.42 67.71,-33.87 92.2,-67.5c22.48,-30.87 39,-68.74 58.07,-112.59c32.42,-74.45 72.77,-167.1 161.74,-259.74c82.29,-85.69 185.71,-145.85 316.17,-183.93c75.33,-22 161.57,-36.94 256.31,-44.43c102,-8.07 217.61,-7.8 343.63,0.79l-0.37,5.37c-125.76,-8.57 -241.1,-8.84 -342.84,-0.79c-94.37,7.46 -180.24,22.35 -255.22,44.23c-129.53,37.81 -232.18,97.5 -313.8,182.5c-88.3,91.95 -128.44,184.11 -160.69,258.17c-37.78,86.76 -67.63,155.28 -153.54,183.06a135.16,135.16 0 0 1 -71.06,3.89c-21.54,-4.51 -43.37,-14 -66.72,-29.06c-43.32,-27.91 -85,-70.43 -129.08,-115.44c-44.36,-45.28 -90.24,-92.09 -140.89,-126.88c-57.12,-39.23 -112.14,-56.91 -168.27,-54.07c-173,8.84 -294.4,179.08 -422.95,359.31c-62.34,87.4 -126.8,177.77 -199.86,253.65c-82.72,85.91 -165.38,140.84 -252.72,167.92c-63.91,19.77 -132.85,29.76 -205.34,29.76z" class="cls-27"/>
   <path id="svg_28" d="m1428.54,1613.15q-25.61,0 -51.82,-1.75c-96.85,-6.46 -202.31,-31 -313.45,-73c-121,-45.71 -252.06,-113.36 -389.69,-201.07c-148.24,-94.47 -308.21,-214.87 -475.44,-357.84l3.5,-4.09c167,142.81 326.8,263 474.84,357.39c137.31,87.51 268.09,155 388.7,200.57c110.65,41.82 215.59,66.28 311.91,72.7c87.06,5.8 169.38,-3 244.63,-26.12c87.78,-27 170.66,-82.9 253.39,-170.93c73.35,-78 137.88,-171.36 200.3,-261.59c128.29,-185.48 249.46,-360.68 424.35,-369.58c57.67,-2.9 114.18,15.78 172.75,57.13c51.49,36.35 98,85.09 143,132.22c44.47,46.57 86.47,90.56 130,119.45c48.47,32.21 91.53,40.72 135.49,26.78c37.21,-11.8 65.76,-32.31 89.85,-64.57c22.16,-29.67 38.77,-66.31 58,-108.75c33,-72.88 74.12,-163.59 163.53,-256c81.65,-84.39 182.35,-144 307.86,-182.24c72.28,-22 154.63,-37.3 244.76,-45.42c96.88,-8.73 206.36,-9.51 325.39,-2.33l-0.32,5.37c-118.76,-7.17 -228,-6.39 -324.59,2.31c-89.76,8.08 -171.75,23.29 -243.67,45.21c-124.62,38 -224.56,97.12 -305.56,180.84c-88.76,91.75 -129.65,182 -162.5,254.48c-37.93,83.72 -67.89,149.84 -151.12,176.22a137.62,137.62 0 0 1 -41.85,6.62c-81.81,0 -153.67,-75.25 -229.11,-154.26c-44.83,-46.95 -91.19,-95.5 -142.25,-131.54c-57.55,-40.63 -113,-59 -169.37,-56.15c-172.25,8.76 -292.69,182.9 -420.2,367.26c-62.52,90.4 -127.18,183.88 -200.8,262.22c-83.39,88.73 -167,145.12 -255.73,172.39c-60.79,18.66 -126.11,28.07 -194.78,28.07z" class="cls-28"/>
   <path id="svg_29" d="m1445.71,1622.84q-30.3,0 -61.47,-2.56c-96.82,-8 -202.33,-34.75 -313.6,-79.62c-121,-48.81 -252.33,-120.39 -390.24,-212.76c-148.5,-99.47 -308.83,-225.84 -476.53,-375.59l3.58,-4c167.55,149.57 327.65,275.78 475.95,375.12c137.6,92.16 268.6,163.57 389.25,212.24c110.77,44.67 215.75,71.33 312,79.25c87.07,7.16 169.31,-0.82 244.45,-23.73c89.1,-27.17 172.94,-84.53 256.32,-175.36c73.9,-80.51 138.61,-176.93 201.2,-270.18c127.28,-189.65 247.49,-368.73 421.74,-377.55c58,-2.92 114.89,16.46 173.9,59.23c51.89,37.61 98.91,88.07 144.37,136.87c45,48.35 87.6,94 131.77,124.23c49.26,33.69 93,42.92 137.78,29c36,-11.19 63.82,-30.79 87.51,-61.68c21.84,-28.48 38.56,-63.93 57.92,-105c33.63,-71.28 75.48,-160 165.3,-252.15c81,-83.09 179,-142.15 299.54,-180.55c69.23,-22.05 147.69,-37.67 233.21,-46.41c91.78,-9.38 195.12,-11.21 307.16,-5.44l-0.28,5.37c-111.77,-5.75 -214.83,-3.93 -306.33,5.42c-85.15,8.71 -163.25,24.24 -232.13,46.18c-119.71,38.13 -217,96.75 -297.32,179.18c-89.2,91.51 -130.83,179.77 -164.29,250.69c-19.49,41.32 -36.33,77 -58.52,105.95c-24.4,31.82 -53.06,52 -90.19,63.55a138.25,138.25 0 0 1 -41.23,6.39c-83.74,0 -157,-78.58 -233.85,-161.11c-45.29,-48.61 -92.13,-98.88 -143.59,-136.18c-58,-42 -113.73,-61.06 -170.47,-58.21c-171.56,8.69 -291,186.71 -417.53,375.18c-62.69,93.41 -127.52,190 -201.7,270.82c-84,91.56 -168.66,149.41 -258.71,176.87c-57.83,17.7 -119.84,26.54 -184.97,26.54z" class="cls-29"/>
   <path id="svg_30" d="m1462.14,1632.65q-34.61,0 -70.38,-3.5c-96.79,-9.47 -202.36,-38.47 -313.75,-86.2c-121.13,-51.9 -252.61,-127.42 -390.79,-224.46c-148.75,-104.49 -309.45,-236.8 -477.63,-393.34l3.67,-3.94c168,156.37 328.5,288.56 477.05,392.88c137.87,96.83 269,172.16 389.81,223.91c110.89,47.51 215.91,76.38 312.16,85.79c87.07,8.52 169.25,1.34 244.26,-21.34c90.42,-27.34 175.21,-86.15 259.21,-179.8c74.44,-83 139.32,-182.53 202.05,-278.79c126.27,-193.73 245.53,-376.73 419.2,-385.48c58.36,-2.93 115.59,17.14 175,61.31c52.29,38.86 99.78,91 145.7,141.48c45.63,50.13 88.74,97.49 133.58,129c50,35.19 94.55,45.13 140.09,31.29c75.69,-23 104,-80.52 143.07,-160.11c34.23,-69.64 76.83,-156.32 167,-248.17c80.3,-81.77 175.56,-140.27 291.22,-178.86c66.18,-22.08 140.76,-38 221.67,-47.4c86.67,-10 183.87,-12.91 288.92,-8.56l-0.22,5.38c-104.77,-4.34 -201.69,-1.48 -288.08,8.53c-80.54,9.33 -154.75,25.19 -220.58,47.16c-114.79,38.33 -209.37,96.4 -289.04,177.57c-89.6,91.24 -132,177.48 -166,246.78c-19.63,39.95 -36.59,74.44 -58.47,102.21c-24,30.47 -51.93,49.75 -87.87,60.67a138.84,138.84 0 0 1 -40.6,6.17c-85.69,0 -160.27,-81.94 -238.61,-168c-45.78,-50.3 -93.11,-102.28 -144.98,-140.83c-58.4,-43.4 -114.51,-63.11 -171.56,-60.26c-41.06,2.07 -79.93,13.86 -118.84,36.05c-35,19.94 -69.31,48 -105,85.69c-66.74,70.53 -127.14,163.2 -191.08,261.31c-62.85,96.43 -127.84,196.15 -202.56,279.45c-84.68,94.4 -170.27,153.72 -261.66,181.35c-55.1,16.68 -114.1,25.06 -175.96,25.06z" class="cls-30"/>
   <path id="svg_31" d="m1477.91,1642.57a697.9,697.9 0 0 1 -78.64,-4.54c-96.77,-11 -202.38,-42.19 -313.9,-92.78c-121.22,-55 -252.88,-134.44 -391.33,-236.15c-149.04,-109.46 -310.04,-247.78 -478.73,-411.1l3.74,-3.87c168.48,163.16 329.35,301.32 478.16,410.63c138.15,101.49 269.49,180.75 390.37,235.59c111,50.36 216.07,81.43 312.28,92.34c87.07,9.87 169.18,3.5 244.08,-19c91.74,-27.5 177.47,-87.77 262.08,-184.24c75,-85.47 140,-188.15 202.87,-287.44c63.61,-100.44 123.69,-195.31 190.32,-267.64c35.82,-38.89 70.37,-67.79 105.61,-88.38c39.46,-23 78.95,-35.27 120.74,-37.36c58.66,-2.92 116.29,17.81 176.17,63.37c52.68,40.09 100.64,94 147,146.06c46.22,51.92 89.87,101 135.4,133.83c50.84,36.7 96.09,47.38 142.42,33.61c73.11,-21.73 101.48,-77.09 140.74,-153.7c34.83,-68 78.18,-152.56 168.73,-244.06c79.59,-80.43 172.13,-138.38 282.9,-177.17c63.13,-22.11 133.82,-38.39 210.12,-48.38c81.56,-10.69 172.63,-14.62 270.69,-11.68l-0.16,5.38c-97.76,-2.93 -188.55,1 -269.83,11.63c-75.93,9.95 -146.26,26.14 -209,48.13c-110,38.52 -201.85,96 -280.85,175.88c-90,90.92 -133.11,175.09 -167.77,242.73c-39.87,77.8 -68.68,134 -144,156.41a139.65,139.65 0 0 1 -40,5.94c-87.66,0 -163.6,-85.31 -243.4,-175c-46.21,-51.91 -94,-105.58 -146.25,-145.36c-58.82,-44.77 -115.28,-65.13 -172.64,-62.28c-40.9,2.05 -79.6,14 -118.29,36.64c-34.78,20.31 -68.92,48.89 -104.37,87.38c-66.3,72 -126.26,166.64 -189.73,266.87c-63,99.47 -128.13,202.32 -203.38,288.11c-85.3,97.25 -171.85,158 -264.58,185.85c-52.59,15.83 -108.71,23.75 -167.57,23.75z" class="cls-31"/>
   <path id="svg_32" d="m1493.1,1652.58a674.54,674.54 0 0 1 -86.31,-5.68c-96.74,-12.48 -202.4,-45.91 -314,-99.37c-121.31,-58.08 -253.16,-141.47 -391.88,-247.85c-149.31,-114.44 -310.75,-258.68 -479.91,-428.85l3.82,-3.79c169,170 330.2,314.08 479.27,428.38c138.43,106.15 270,189.34 390.93,247.26c111.13,53.21 216.24,86.48 312.41,98.88c87.06,11.23 169.12,5.65 243.89,-16.58c93,-27.67 179.71,-89.39 264.93,-188.7c75.49,-88 140.65,-193.79 203.66,-296.12c63.15,-102.55 122.79,-199.41 189,-273.17c35.59,-39.65 69.93,-69.12 105,-90.08c39.26,-23.47 78.59,-35.89 120.25,-38c59,-2.92 117,18.47 177.29,65.42c53.09,41.35 101.55,96.91 148.34,150.67c91.73,105.26 178.38,204.68 282,174.61c70.58,-20.48 99.06,-73.74 138.47,-147.44c35.43,-66.25 79.52,-148.71 170.37,-239.8c78.85,-79.07 168.66,-136.47 274.57,-175.48c60.08,-22.13 126.89,-38.74 198.57,-49.37c76.47,-11.34 161.4,-16.31 252.46,-14.79l-0.09,5.38c-90.76,-1.52 -175.4,3.44 -251.58,14.73c-71.32,10.58 -137.77,27.09 -197.5,49.1c-105.16,38.74 -194.33,95.73 -272.62,174.23c-90.29,90.54 -134.17,172.6 -169.43,238.54c-40,74.86 -69,129 -141.72,150.07a140.44,140.44 0 0 1 -39.32,5.71c-89.65,0 -167,-88.71 -248.21,-182c-46.66,-53.54 -94.9,-108.9 -147.57,-149.9c-59.24,-46.12 -116,-67.14 -173.72,-64.29c-40.75,2 -79.27,14.21 -117.75,37.22c-34.6,20.68 -68.54,49.82 -103.76,89.06c-65.87,73.4 -125.4,170.06 -188.41,272.4c-63.12,102.51 -128.39,208.51 -204.16,296.8c-85.92,100.12 -173.41,162.39 -267.48,190.36c-50.27,14.95 -103.77,22.44 -159.81,22.44z" class="cls-32"/>
   <path id="svg_33" d="m1507.74,1662.69a653.13,653.13 0 0 1 -93.45,-6.9c-96.72,-14 -202.42,-49.63 -314.19,-105.95c-121.4,-61.18 -253.43,-148.5 -392.43,-259.54c-149.51,-119.44 -311.31,-269.71 -480.91,-446.62l3.88,-3.72c169.44,176.74 331.07,326.84 480.36,446.13c138.74,110.81 270.46,197.91 391.53,258.91c111.25,56.06 216.4,91.53 312.54,105.43c87.06,12.58 169.05,7.81 243.7,-14.2c50.55,-14.9 97.95,-39.21 144.9,-74.32c41.66,-31.15 81.85,-70 122.86,-118.85c76,-90.48 141.28,-199.44 204.41,-304.83c62.7,-104.65 121.91,-203.5 187.68,-278.68c35.35,-40.42 69.5,-70.44 104.4,-91.78c39.06,-23.89 78.24,-36.51 119.78,-38.58c59.34,-2.94 117.68,19.13 178.4,67.44c53.46,42.54 102.34,99.77 149.62,155.13c93,108.85 180.77,211.66 286.16,181.84c31.41,-8.89 56.34,-25 78.46,-50.75c20.61,-24 37.85,-54.85 57.82,-90.6c36,-64.5 80.85,-144.76 171.92,-235.38c78.07,-77.68 165.16,-134.53 266.24,-173.79c118.25,-45.93 255.34,-68.27 419,-68.27l2.22,0l0,5.38l-2.21,0c-163,0 -299.45,22.22 -417.08,67.91c-100.35,39.02 -186.85,95.47 -264.35,172.62c-90.54,90.09 -135.17,170 -171,234.19c-40.21,72 -69.27,124 -139.51,143.9a141.36,141.36 0 0 1 -38.66,5.47c-91.66,0 -170.34,-92.13 -253.06,-189c-47.11,-55.16 -95.82,-112.2 -148.87,-154.41c-59.66,-47.46 -116.83,-69.14 -174.79,-66.28c-40.61,2 -79,14.38 -117.24,37.79c-34.42,21.05 -68.17,50.73 -103.16,90.73c-65.45,74.82 -124.55,173.47 -187.12,277.9c-63.24,105.56 -128.64,214.72 -204.91,305.52c-41.28,49.14 -81.76,88.3 -123.75,119.7c-47.47,35.5 -95.42,60.08 -146.6,75.17c-48.09,14.19 -99.14,21.29 -152.59,21.29z" class="cls-33"/>
   <path id="svg_34" d="m1521.91,1672.88a632.89,632.89 0 0 1 -100.09,-8.21c-96.69,-15.48 -202.45,-53.34 -314.33,-112.53c-121.49,-64.27 -253.71,-155.52 -393,-271.24c-149.77,-124.43 -311.94,-280.67 -482,-464.37l3.95,-3.65c169.91,183.53 331.91,339.61 481.49,463.89c139,115.48 270.9,206.53 392.06,270.62c111.36,58.91 216.56,96.58 312.67,112c87.05,13.94 169,10 243.51,-11.83c51.25,-15 99.22,-39.74 146.66,-75.68c42.09,-31.89 82.62,-71.79 123.9,-122c76.49,-93 141.89,-205.13 205.13,-313.57c62.25,-106.74 121,-207.56 186.4,-284.16c35.13,-41.17 69.08,-71.75 103.81,-93.46c38.88,-24.31 77.91,-37.13 119.32,-39.18c59.64,-2.93 118.37,19.78 179.51,69.44c53.85,43.74 103.19,102.64 150.91,159.61c94.19,112.44 183.19,218.64 290.36,189.12c65.67,-18.08 92.93,-64.77 134.19,-135.43c36.61,-62.7 82.16,-140.72 173.38,-230.78c77.24,-76.26 161.6,-132.55 257.9,-172.1c112.27,-46.11 240.36,-69.78 391.46,-72.37l0.09,5.38c-150.46,2.58 -277.87,26.12 -389.51,72c-95.63,39.28 -179.43,95.19 -256.16,170.95c-90.71,89.52 -136.07,167.21 -172.52,229.67c-40.42,69.22 -69.62,119.24 -137.41,137.91a142.41,142.41 0 0 1 -38,5.23c-93.71,0 -173.76,-95.58 -258,-196.08c-47.55,-56.77 -96.73,-115.47 -150.17,-158.89c-60.07,-48.79 -117.59,-71.14 -175.85,-68.24c-40.47,2 -78.66,14.55 -116.73,38.37c-34.25,21.42 -67.81,51.64 -102.57,92.39c-65,76.24 -123.72,176.85 -185.85,283.38c-63.35,108.62 -128.85,220.95 -205.62,314.27c-41.55,50.52 -82.38,90.7 -124.8,122.85c-47.3,35.84 -97.23,61.6 -148.4,76.55c-45.91,13.4 -94.68,20.14 -145.69,20.14z" class="cls-34"/>
   <path id="svg_35" d="m1535.64,1683.14a614.07,614.07 0 0 1 -106.3,-9.58c-96.66,-17 -202.47,-57.06 -314.48,-119.11c-121.58,-67.36 -254,-162.55 -393.53,-282.94c-150,-129.42 -312.56,-291.63 -483.09,-482.13l4,-3.59c170.39,190.31 332.76,352.36 482.6,481.64c139.27,120.15 271.36,215.13 392.62,282.3c111.48,61.76 216.73,101.64 312.8,118.52c87,15.29 168.91,12.12 243.33,-9.46c51.95,-15.06 100.49,-40.26 148.41,-77c42.51,-32.63 83.38,-73.55 124.93,-125.11c77,-95.52 142.48,-210.83 205.82,-322.34c61.81,-108.82 120.2,-211.6 185.14,-289.61c34.91,-41.93 68.67,-73 103.24,-95.14c38.69,-24.73 77.57,-37.74 118.87,-39.78c60,-2.94 119.06,20.42 180.61,71.42c54.23,44.93 104,105.49 152.19,164.06c95.41,116 185.53,225.61 294.56,196.45c63.31,-16.93 90.72,-61.8 132.22,-129.72c37.18,-60.85 83.45,-136.58 174.71,-226c76.35,-74.78 158,-130.52 249.55,-170.4c105.75,-46.06 224.05,-71.08 361.67,-76.48l0.21,5.38c-136.94,5.38 -254.61,30.25 -359.73,76c-91,39.61 -172.06,95 -247.93,169.31c-90.78,88.92 -136.86,164.33 -173.89,224.93c-42.18,69 -70,114.63 -135.42,132.12c-112.39,30 -203.57,-80.83 -300.11,-198.23c-48,-58.37 -97.63,-118.73 -151.47,-163.33c-60.47,-50.1 -118.34,-73 -176.92,-70.19c-40.34,2 -78.36,14.73 -116.24,38.94c-34.09,21.79 -67.45,52.55 -102,94c-64.64,77.64 -122.91,180.22 -184.6,288.83c-63.44,111.7 -129,227.19 -206.31,323.06c-41.82,51.89 -83,93.11 -125.84,126c-47.79,36.68 -98.32,62.9 -150.19,77.94c-44.07,12.84 -90.7,19.24 -139.43,19.24z" class="cls-35"/>
   <path id="svg_36" d="m1549,1693.47a596.59,596.59 0 0 1 -112.11,-11c-96.64,-18.49 -202.49,-60.78 -314.62,-125.7c-121.71,-70.47 -254.27,-169.6 -394.11,-294.66c-150.28,-134.42 -313.16,-302.6 -484.16,-499.89l4.07,-3.53c170.86,197.12 333.6,365.14 483.71,499.4c139.55,124.82 271.83,223.73 393.19,294c111.6,64.62 216.89,106.7 312.93,125.07c87,16.65 168.85,14.27 243.14,-7.09c52.64,-15.13 101.76,-40.77 150.16,-78.39c42.93,-33.37 84.13,-75.32 125.95,-128.26c77.46,-98.06 143.05,-216.55 206.48,-331.14c61.38,-110.89 119.36,-215.63 183.9,-295c34.69,-42.68 68.27,-74.34 102.67,-96.8c38.51,-25.14 77.25,-38.35 118.44,-40.37c60.29,-2.95 119.74,21.06 181.72,73.38c54.62,46.12 104.87,108.32 153.47,168.47c96.63,119.6 187.89,232.57 298.78,203.84c61,-15.81 88.63,-59 130.43,-124.26c37.74,-59 84.7,-132.33 175.87,-220.91c159.2,-154.68 341.3,-233.9 573.08,-249.29l0.36,5.37c-230.43,15.3 -411.45,94 -569.68,247.78c-90.72,88.15 -137.5,161.23 -175.09,220c-42.58,66.3 -70.58,110.15 -133.66,126.51c-114.24,29.6 -206.56,-84.68 -304.31,-205.67c-95.41,-118.09 -194,-240.1 -321,-240.1q-4.84,0 -9.73,0.24c-40.21,2 -78.07,14.9 -115.76,39.5c-33.93,22.15 -67.11,53.45 -101.44,95.69c-64.24,79 -122.11,183.58 -183.37,294.25c-63.53,114.78 -129.23,233.46 -207,331.87c-42.09,53.28 -83.59,95.53 -126.87,129.17c-48.27,37.52 -99.41,64.21 -152,79.32c-42.21,12.12 -86.86,18.2 -133.44,18.2z" class="cls-36"/>
   <path id="svg_37" d="m1561.92,1703.85a580.27,580.27 0 0 1 -117.54,-12.53c-96.61,-20 -202.51,-64.49 -314.76,-132.28c-121.76,-73.53 -254.53,-176.6 -394.62,-306.34c-150.53,-139.4 -313.8,-313.56 -485.29,-517.65l4.12,-3.46c171.34,203.91 334.45,377.91 484.82,517.16c139.82,129.49 272.3,232.33 393.75,305.68c111.72,67.47 217.05,111.75 313.07,131.62c87,18 168.78,16.42 242.95,-4.72c53.33,-15.2 103,-41.29 151.9,-79.75c43.35,-34.11 84.88,-77.1 127,-131.41c77.94,-100.61 143.61,-222.29 207.12,-340c61,-113 118.53,-219.64 182.68,-300.44c34.47,-43.42 67.88,-75.62 102.12,-98.45c38.34,-25.56 76.94,-39 118,-41c60.63,-3 120.43,21.69 182.82,75.32c55,47.28 105.71,111.12 154.75,172.85c97.84,123.17 190.26,239.51 303,211.29c58.8,-14.72 86.67,-56.23 128.85,-119.07c36.25,-54 85.9,-128 176.81,-215.58c74.29,-71.6 150.45,-126.22 232.84,-167c92.67,-45.87 191.47,-73.57 302.07,-84.69l0.54,5.35c-109.94,11.05 -208.14,38.58 -300.22,84.16c-81.88,40.53 -157.61,94.85 -231.49,166.06c-90.5,87.22 -140,160.9 -176.07,214.71c-42.87,63.88 -71.2,106.07 -132,121.29c-116.1,29 -209.56,-88.6 -308.51,-213.17c-98.65,-124.18 -200.65,-252.56 -333.09,-246.14c-40.08,2 -77.8,15.07 -115.3,40.07c-33.77,22.51 -66.77,54.35 -100.89,97.32c-63.92,80.49 -121.35,186.95 -182.23,299.71c-63.61,117.87 -129.39,239.75 -207.6,340.71c-42.35,54.67 -84.18,98 -127.88,132.35c-48.75,38.36 -100.48,65.51 -153.75,80.7c-40.56,11.55 -83.34,17.33 -127.97,17.33z" class="cls-37"/>
   <path id="svg_38" d="m1574.54,1714.3c-39.48,0 -80.45,-4.69 -122.65,-14.08c-96.59,-21.49 -202.53,-68.21 -314.9,-138.86c-121.85,-76.62 -254.81,-183.63 -395.17,-318c-150.82,-144.43 -314.43,-324.56 -486.38,-535.44l4.17,-3.4c171.81,210.71 335.3,390.68 485.93,534.92c140.1,134.16 272.77,240.94 394.32,317.37c111.84,70.33 217.22,116.81 313.2,138.17c87,19.36 168.71,18.56 242.76,-2.36c54,-15.27 104.28,-41.8 153.64,-81.11c43.77,-34.86 85.63,-78.88 128,-134.58c78.4,-103.17 144.15,-228.05 207.73,-348.83c60.54,-115 117.72,-223.63 181.48,-305.81c34.26,-44.16 67.49,-76.9 101.58,-100.09c38.16,-26 76.64,-39.56 117.61,-41.55c135.95,-6.56 239.63,126.1 339.94,254.43c99.06,126.72 192.63,246.4 307.21,218.8c56.7,-13.66 83.37,-51.51 127.57,-114.22c36.73,-52.11 87,-123.48 177.45,-209.92c73,-69.8 146.45,-123.87 224.47,-165.3c86.06,-45.7 175.11,-74.74 272.25,-88.79l0.77,5.33c-96.51,14 -185,42.81 -270.49,88.22c-77.58,41.19 -150.61,95 -223.28,164.44c-90.05,86.08 -140.17,157.2 -176.77,209.13c-22.36,31.72 -40,56.78 -59.76,76.22c-21.41,21.09 -43.29,33.46 -70.95,40.13c-28.5,6.87 -56.33,5.3 -85.08,-4.78c-25.57,-9 -51.32,-24.55 -78.73,-47.64c-50.79,-42.79 -98.45,-103.75 -148.9,-168.3c-99.5,-127.27 -202.37,-258.86 -335.48,-252.4c-40,1.94 -77.53,15.23 -114.85,40.63c-33.62,22.87 -66.44,55.24 -100.36,98.94c-63.47,81.81 -120.55,190.23 -181,305c-63.68,121 -129.53,246.06 -208.2,349.58c-42.61,56.06 -84.76,100.4 -128.89,135.54c-49.23,39.21 -101.56,66.82 -155.53,82.08c-38.92,11.02 -79.94,16.53 -122.71,16.53z" class="cls-38"/>
   <path id="svg_39" d="m1586.56,1724.92c-40.82,0 -83.28,-5.21 -127.08,-15.63c-96.54,-23 -202.53,-71.9 -315,-145.47c-121.94,-79.73 -255.09,-190.7 -395.75,-329.84c-151,-149.4 -315.06,-335.53 -487.49,-553.23l4.22,-3.34c172.3,217.53 336.17,403.49 487.06,552.74c140.41,138.88 273.28,249.63 394.91,329.16c112,73.23 217.42,121.92 313.35,144.74c87,20.7 168.64,20.64 242.51,-0.18c54.77,-15.26 105.63,-42.18 155.49,-82.31c44.21,-35.58 86.41,-80.64 129,-137.75c78.89,-105.76 144.71,-234 208.35,-357.92c60.09,-117 116.84,-227.58 180.18,-311.13c34,-44.89 67.07,-78.16 101,-101.72c38,-26.37 76.3,-40.15 117.16,-42.13c3.2,-0.16 6.4,-0.23 9.56,-0.23c132,0 234,132.56 332.77,260.85c100.26,130.25 195,253.26 311.42,226.37c54.55,-12.6 81.49,-49 126.13,-109.35c37.18,-50.26 88.11,-119.1 178.26,-204.27c70.21,-66.79 142.89,-121.85 216,-163.66c78.2,-44.72 159.79,-76 242.49,-92.81l1.07,5.27c-82.14,16.75 -163.19,47.77 -240.9,92.21c-72.73,41.6 -145.06,96.4 -215,162.89c-89.81,84.85 -140.57,153.46 -177.63,203.57c-45.37,61.33 -72.76,98.35 -129.24,111.39c-29,6.69 -57.21,4.78 -86.38,-5.82c-25.94,-9.43 -52.05,-25.6 -79.83,-49.45c-51.47,-44.18 -99.66,-106.78 -150.68,-173.06c-100.29,-130.28 -204,-265 -337.81,-258.53c-39.82,1.93 -77.23,15.4 -114.35,41.18c-33.45,23.23 -66.09,56.12 -99.78,100.55c-63.06,83.17 -119.71,193.51 -179.69,310.33c-63.75,124.18 -129.67,252.57 -208.88,358.66c-42.87,57.48 -85.38,102.85 -130,138.73c-49.74,40 -102.7,68.06 -157.41,83.3a433.91,433.91 0 0 1 -118.03,15.89z" class="cls-39"/>
   <path id="svg_40" d="m1598.68,1735.42c-42.23,0 -86.23,-5.76 -131.71,-17.29c-96.52,-24.46 -202.56,-75.62 -315.18,-152c-122,-82.81 -255.36,-197.71 -396.29,-341.51c-151.3,-154.38 -315.68,-346.48 -488.58,-571l4.26,-3.28c172.77,224.32 337,416.26 488.16,570.48c140.66,143.54 273.74,258.18 395.48,340.82c112.1,76.07 217.57,127 313.48,151.28c87,22.06 168.57,22.81 242.34,2.23c55.45,-15.34 106.86,-42.72 157.18,-83.71c44.62,-36.34 87.13,-82.45 130,-140.95c79.34,-108.33 145.2,-239.72 208.9,-366.78c59.69,-119.07 116.07,-231.53 179.06,-316.45c33.84,-45.62 66.71,-79.43 100.49,-103.34c37.82,-26.78 76,-40.75 116.79,-42.71c137.34,-6.59 242.79,132.36 344.74,266.75c51.41,67.77 100,131.78 151.7,177c27.65,24.17 53.59,40.62 79.29,50.29c28.59,10.76 56.28,13 84.63,6.72c52.75,-11.62 78.73,-45 125.89,-105.51c37.55,-48.21 89,-114.24 177.85,-197.59c68.28,-64.34 138.15,-118.82 207.64,-161.93c71.32,-44.24 142.84,-76.84 212.56,-96.91l1.49,5.17c-69.25,19.93 -140.31,52.33 -211.22,96.31c-69.19,42.92 -138.76,97.18 -206.79,161.27c-88.57,83.07 -139.85,148.9 -177.29,197c-46.35,59.51 -74.33,95.43 -129,107.46c-29.4,6.48 -58.09,4.21 -87.68,-6.94c-26.31,-9.9 -52.78,-26.68 -80.93,-51.28c-52.15,-45.58 -100.87,-109.8 -152.45,-177.8c-101.11,-133.28 -205.66,-271.11 -340.19,-264.63c-39.71,1.92 -77,15.57 -113.94,41.73c-33.31,23.58 -65.78,57 -99.28,102.16c-62.7,84.54 -119,196.8 -178.57,315.66c-63.8,127.26 -129.77,258.85 -209.37,367.55c-43.12,58.88 -85.94,105.31 -130.92,141.94c-50.2,40.89 -103.74,69.4 -159.14,84.72a420.65,420.65 0 0 1 -113.4,15.07z" class="cls-40"/>
   <path id="svg_41" d="m1610.56,1746c-43.55,0 -89,-6.33 -136.08,-19c-96.5,-26 -202.59,-79.34 -315.32,-158.62c-122.12,-85.89 -255.64,-204.72 -396.83,-353.17c-151.55,-159.39 -316.33,-357.46 -489.67,-588.74l4.3,-3.23c173.24,231.11 337.86,429 489.27,588.22c140.95,148.2 274.19,266.79 396,352.48c112.21,78.92 217.73,132 313.62,157.82c87,23.42 168.5,25 242.18,4.65c56.12,-15.43 108.08,-43.27 158.87,-85.12c45,-37.1 87.84,-84.26 130.93,-144.16c79.77,-110.92 145.68,-245.5 209.43,-375.66c59.3,-121.09 115.32,-235.47 177.95,-321.75c33.64,-46.35 66.35,-80.68 100,-105c37.66,-27.18 75.75,-41.34 116.43,-43.29c138.1,-6.65 244.39,135.43 347.16,272.82c52,69.46 101,135.08 153.47,181.69c28,24.93 54.33,42 80.4,52.14c29,11.31 57.12,13.88 85.93,7.87c51.15,-10.68 77.89,-43.25 126.43,-102.37c37.82,-46.07 89.61,-109.16 176.67,-190.21c127.61,-119.09 263.22,-211.83 381.84,-261.15l2.07,5c-118,49.08 -253.08,141.45 -380.24,260.12c-86.79,80.8 -138.46,143.73 -176.18,189.69c-49.31,60.07 -76.48,93.16 -129.49,104.23c-29.86,6.23 -59,3.57 -89,-8.13c-26.68,-10.4 -53.51,-27.78 -82,-53.13c-52.83,-47 -102.07,-112.8 -154.2,-182.49c-101.93,-136.26 -207.34,-277.15 -342.59,-270.66c-39.61,1.9 -76.74,15.73 -113.54,42.28c-33.17,23.94 -65.48,57.87 -98.79,103.75c-62.35,85.9 -118.27,200.08 -177.47,321c-63.84,130.36 -129.85,265.15 -209.89,376.44c-43.36,60.29 -86.5,107.77 -131.87,145.17c-50.66,41.75 -104.78,70.74 -160.86,86.15a408,408 0 0 1 -108.93,14.36z" class="cls-41"/>
   <path id="svg_42" d="m1622.19,1756.55c-44.78,0 -91.65,-6.92 -140.21,-20.75c-96.48,-27.47 -202.61,-83.05 -315.45,-165.19c-122.22,-89 -255.91,-211.72 -397.37,-364.84c-151.8,-164.34 -316.92,-368.37 -490.75,-606.45l4.35,-3.17c173.71,237.91 338.7,441.79 490.37,606c141.22,152.86 274.64,275.38 396.58,364.14c112.32,81.77 217.89,137.07 313.76,164.37c87,24.78 168.43,27.15 242,7.06c56,-15.29 110,-44.41 160.54,-86.53c45.42,-37.86 88.55,-86.07 131.88,-147.38c80.2,-113.5 146.16,-251.3 209.94,-384.57c58.92,-123.11 114.57,-239.39 176.85,-327c33.45,-47.07 66,-81.92 99.5,-106.56c37.51,-27.58 75.48,-41.93 116.07,-43.87c138.86,-6.63 246,138.48 349.62,278.81c52.51,71.13 102.11,138.31 155.21,186.34c28.4,25.69 55.06,43.35 81.51,54c29.44,11.87 58,14.85 87.22,9.12c49.8,-9.77 76,-40 128.08,-100.18c37.93,-43.81 89.88,-103.81 174.37,-181.88c104.16,-96.26 219.68,-184.86 343.36,-263.35l2.88,4.54c-123.4,78.32 -238.66,166.72 -342.59,262.76c-84.27,77.87 -136.1,137.74 -174,181.45c-51.25,59.2 -79.49,91.81 -131.11,101.93c-30.3,5.94 -59.83,2.87 -90.27,-9.4c-27,-10.9 -54.23,-28.9 -83.11,-55c-53.5,-48.39 -103.25,-115.78 -155.93,-187.13c-100.49,-136.2 -204.33,-276.89 -336.11,-276.89q-4.42,0 -8.87,0.21c-39.51,1.86 -76.51,15.86 -113.15,42.86c-33,24.29 -65.19,58.74 -98.31,105.34c-62,87.25 -117.57,203.33 -176.38,326.22c-63.87,133.44 -129.93,271.44 -210.39,385.32c-43.59,61.7 -87,110.24 -132.82,148.41c-51.12,42.62 -105.82,72.09 -162.57,87.59a396.08,396.08 0 0 1 -104.7,13.67z" class="cls-42"/>
  </g>
 </g>
</svg>