<svg id="Layer_1" data-name="Layer 1" xmlns="http://www.w3.org/2000/svg" viewBox="0 0 4729.98 1175.57"><defs><style>.cls-1{fill:#f0f;}.cls-2{fill:#fa00ff;}.cls-3{fill:#f600ff;}.cls-4{fill:#f100ff;}.cls-5{fill:#ed00ff;}.cls-6{fill:#e800ff;}.cls-7{fill:#e400ff;}.cls-8{fill:#df00ff;}.cls-9{fill:#db00ff;}.cls-10{fill:#d600ff;}.cls-11{fill:#d200ff;}.cls-12{fill:#cd00ff;}.cls-13{fill:#c900ff;}.cls-14{fill:#c400ff;}.cls-15{fill:#c000ff;}.cls-16{fill:#b0f;}.cls-17{fill:#b700ff;}.cls-18{fill:#b200ff;}.cls-19{fill:#ae00ff;}.cls-20{fill:#a900ff;}.cls-21{fill:#a500ff;}.cls-22{fill:#a000ff;}.cls-23{fill:#9c00ff;}.cls-24{fill:#9700ff;}.cls-25{fill:#9300ff;}.cls-26{fill:#8e00ff;}.cls-27{fill:#8a00ff;}.cls-28{fill:#8500ff;}.cls-29{fill:#8100ff;}.cls-30{fill:#7c00ff;}.cls-31{fill:#7800ff;}.cls-32{fill:#7300ff;}.cls-33{fill:#6f00ff;}.cls-34{fill:#6a00ff;}.cls-35{fill:#60f;}.cls-36{fill:#6100ff;}.cls-37{fill:#5d00ff;}.cls-38{fill:#5800ff;}.cls-39{fill:#5400ff;}.cls-40{fill:#4f00ff;}.cls-41{fill:#4b00ff;}.cls-42{fill:#4600ff;}</style></defs><title>Curves_background_01</title><path class="cls-1" d="M1337.62,1024.22q-43.61,0-90.45-2.15c-144-6.62-314.62-28.74-507-65.74-211.71-40.72-455.77-100.6-725.41-178L16,773.91c269.51,77.35,513.44,137.2,725,177.89,192.16,37,362.52,59.05,506.34,65.67,128.11,5.89,238.48-.36,328-18.57,77.32-15.72,141.29-40.84,190.14-74.64C1851.16,865,1892.25,778.76,1932,695.33c27.25-57.21,53-111.25,91.92-156.91,21-24.59,43.75-44.34,69.67-60.37,29-17.94,61.17-30.84,98.39-39.44,73.76-17.05,128.56-7.53,211.51,6.87,44.57,7.74,95.09,16.52,161.58,23.82,268,29.43,469.13-2.07,702-38.56,33.6-5.26,68.35-10.71,103.86-16.05C3750.81,357.5,4196.34,315.55,4695.11,290l.24,4.59c-498.62,25.53-944,67.47-1323.76,124.63-35.49,5.34-70.23,10.79-103.83,16-233.19,36.53-434.57,68.09-703.2,38.58-66.63-7.32-117.22-16.1-161.86-23.86-82.4-14.31-136.84-23.77-209.69-6.92-152.57,35.27-203.23,141.63-256.86,254.22-40,84-81.35,170.8-168,230.74-49.36,34.16-113.91,59.52-191.84,75.37C1508.26,1017.26,1428.24,1024.22,1337.62,1024.22Z"/><path class="cls-2" d="M1328.67,1010.94q-40.74,0-84.27-1.89c-141.26-6.15-308.38-27.47-496.72-63.36C540.52,906.21,301.83,848,38.21,772.63l1.26-4.42c263.48,75.32,502,133.51,709.06,173,188.12,35.85,355,57.14,496.06,63.28,125.71,5.47,234.17-1,322.37-19.1,76.19-15.68,139.46-40.59,188-74,86-59.11,127.29-144.55,167.22-227.18,27.13-56.15,52.76-109.19,91.23-153.79,20.71-24,43.19-43.26,68.72-58.83,28.54-17.42,60.21-29.88,96.8-38.1,70.38-15.81,123.56-4.42,197.15,11.35,46.17,9.89,103.62,22.2,179.41,30.55,109.37,12,213.68,12.89,328.26,2.7,102.15-9.09,199.52-25.78,302.61-43.46,57.66-9.89,117.29-20.11,179.82-29.32,371.83-55.23,815.58-87.47,1318.9-95.82l.08,4.6c-503.12,8.35-946.66,40.57-1318.3,95.77-62.48,9.2-122.08,19.42-179.71,29.3-103.18,17.69-200.65,34.41-303,43.51-114.9,10.22-219.49,9.36-329.17-2.71-76-8.37-133.61-20.71-179.87-30.62-73-15.65-125.78-27-195.18-11.36-149.94,33.69-200.3,137.9-253.62,248.24-40.19,83.17-81.75,169.17-168.75,229-49.09,33.8-112.92,58.95-189.72,74.75C1499.71,1003.89,1419.5,1010.94,1328.67,1010.94Z"/><path class="cls-3" d="M1319.68,997.68q-37.82,0-78.07-1.65c-138.48-5.68-302.15-26.19-486.45-61-202.6-38.23-435.93-94.8-693.51-168.13l1.26-4.42C320.37,835.8,553.56,892.33,756,930.54c184.08,34.74,347.52,55.23,485.78,60.89,123.3,5.05,229.86-1.56,316.7-19.64,75.07-15.63,137.63-40.34,185.93-73.43,86.4-59,127.9-143.58,168-225.4C1966,563.88,2016.53,460.85,2166,428.21c68.6-15,119.07-2,188.92,16,48.55,12.5,109,28.06,191.12,37.12,221.91,24.45,399.67-9.63,587.87-45.72,72.6-13.92,147.66-28.31,227.67-39.84,366.65-53.73,808.61-76.26,1313.59-67l-.08,4.6c-504.72-9.29-946.44,13.22-1312.85,66.91-79.91,11.51-154.92,25.9-227.47,39.81-188.55,36.16-366.64,70.31-589.24,45.78-82.47-9.1-143.07-24.7-191.76-37.23-69.23-17.82-119.25-30.7-186.79-16C2019.69,464.87,1969.62,566.94,1916.61,675c-40.4,82.35-82.17,167.5-169.57,227.17-48.81,33.43-111.93,58.38-187.59,74.13C1491.15,990.52,1410.74,997.68,1319.68,997.68Z"/><path class="cls-4" d="M1310.65,984.43q-34.89,0-71.82-1.41c-135.7-5.2-295.91-24.91-476.17-58.58-198-37-426-91.9-677.56-163.2l1.25-4.43c251.42,71.26,479.25,126.13,677.15,163.1,180,33.63,340,53.31,475.5,58.51,120.9,4.63,225.55-2.16,311-20.18,73.95-15.59,135.8-40.09,183.83-72.82,86.81-58.86,128.53-142.6,168.88-223.58C1956,555,2006.24,454.18,2153,423c67.78-14.39,119.1,1.1,184.07,20.72,52.81,15.94,112.67,34,199.44,43.6,210.81,23.27,381.07-13.29,561.32-52,82.28-17.67,167.37-35.95,259.06-49,366.21-52.28,806.38-65.1,1308.29-38.1l-.25,4.59c-501.61-27-941.48-14.18-1307.4,38.06-91.53,13.07-176.54,31.32-258.74,49-141.35,30.36-276.59,59.4-430.09,59.4A1205,1205,0,0,1,2536,491.91c-87.19-9.64-149.89-28.56-200.27-43.77-66.86-20.18-115.16-34.77-181.78-20.62-144.57,30.7-194.35,130.6-247,236.37-40.61,81.51-82.61,165.8-170.41,225.33-48.53,33.07-110.94,57.8-185.47,73.52C1482.57,977.17,1402,984.43,1310.65,984.43Z"/><path class="cls-5" d="M1301.59,971.19q-31.91,0-65.53-1.19c-132.93-4.73-289.68-23.64-465.9-56.2-193.49-35.75-416.09-89-661.61-158.27l1.25-4.43C355.19,820.34,577.65,873.55,771,909.28c176,32.52,332.52,51.4,465.22,56.12,118.49,4.21,221.24-2.76,305.38-20.72,72.82-15.55,134-39.84,181.73-72.22,87.23-58.74,129.18-141.59,169.76-221.72C1946,546.25,1996,447.56,2140,417.82c67.54-13.95,117.73,3.46,181.27,25.5,54.09,18.76,115.39,40,205.71,50,202.26,22.37,366.8-17,541-58.59,90-21.5,183-43.74,284.23-57.93,363.64-51,802-54.11,1303-9.23l-.41,4.58c-500.61-44.84-938.65-41.75-1301.94,9.2-101,14.17-193.93,36.38-283.79,57.85-139.52,33.34-272.87,65.21-424.42,65.21a1071.63,1071.63,0,0,1-118.15-6.53c-90.83-10.06-152.39-31.41-206.71-50.25-62.87-21.81-112.53-39-178.84-25.34-141.84,29.29-191.33,127-243.72,230.49-40.84,80.65-83.07,164.05-171.29,223.46-48.25,32.7-109.94,57.23-183.35,72.9C1474,963.82,1393.15,971.19,1301.59,971.19Z"/><path class="cls-6" d="M1292.16,957.88q-28.82,0-59-1C1103,952.65,949.73,934.57,777.6,903.14,588.68,868.65,371.47,817.07,132,749.84l1.24-4.43c239.34,67.19,456.41,118.74,645.2,153.21,171.91,31.39,324.95,49.45,454.86,53.68,116,3.78,216.87-3.37,299.7-21.27,71.68-15.49,132.17-39.55,179.78-71.51,87.37-58.66,129.55-140.5,170.34-219.64C1935.82,537.61,1985.6,441,2127,412.63c67.72-13.6,117.18,5.79,179.81,30.34,55.08,21.59,117.51,46.06,210.64,56.4,195.76,21.69,356.06-20.62,525.76-65.42,96-25.35,195.34-51.57,304.31-66.58,159.66-22,334-33,522-33,237.54,0,496.78,17.55,775.71,52.63l-.57,4.56c-499.22-62.78-935.42-69.39-1296.48-19.65-108.69,15-207.86,41.15-303.76,66.47-138.43,36.54-270.61,71.43-421,71.43a964.45,964.45,0,0,1-106.46-5.89c-93.74-10.4-156.47-35-211.82-56.69-61.93-24.27-110.84-43.44-177.23-30.11-63.49,12.75-112,39.61-152.74,84.52-36.24,40-61.36,88.72-88,140.32-41.06,79.66-83.51,162-171.86,221.35-48.1,32.29-109.12,56.58-181.37,72.19C1465.16,950.39,1384,957.88,1292.16,957.88Z"/><path class="cls-7" d="M1283,944.66q-25.76,0-52.62-.79c-127.37-3.77-277.17-21-445.25-51.36-184.37-33.25-396.22-83.17-629.65-148.37l1.24-4.43c233.3,65.16,445,115,629.23,148.27,167.86,30.27,317.43,47.53,444.57,51.29,113.63,3.36,212.55-4,294-21.81,70.55-15.44,130.34-39.29,177.71-70.89C1790,788,1832.39,707.11,1873.42,628.88c52.42-100,101.93-194.37,240.57-221.44,68.17-13.31,117.2,8.11,179.26,35.23,55.88,24.42,119.22,52.1,214.67,62.71,190.65,21.16,347.66-24.28,513.9-72.38,101-29.24,205.5-59.46,321-75.1,359.56-48.66,794.38-32.34,1292.38,48.51l-.74,4.54c-311-50.5-597.44-75.8-856.14-75.8q-232.71,0-434.89,27.31c-115.18,15.59-219.48,45.77-320.35,75-137.75,39.86-269.22,77.89-418.82,77.9a875.46,875.46,0,0,1-96.87-5.37c-96.15-10.69-159.82-38.52-216-63.07-61.33-26.8-109.78-48-176.54-34.93-62.25,12.16-109.95,38.18-150.09,81.89C1929,532.79,1904,580.5,1877.5,631c-41.3,78.75-84,160.18-172.73,219.38-47.84,31.92-108.16,56-179.28,71.56C1456.51,937,1375.11,944.66,1283,944.66Z"/><path class="cls-8" d="M1273.72,931.45q-22.67,0-46.18-.62c-124.59-3.29-270.93-19.76-435-49-179.82-32-386.3-80.27-613.7-143.43l1.23-4.43c227.26,63.13,433.6,111.35,613.27,143.33,163.8,29.16,309.92,45.61,434.28,48.89,111.21,2.93,208.23-4.58,288.37-22.35,69.43-15.39,128.52-39,175.63-70.27,88.13-58.44,130.82-138.38,172.1-215.69C1915.89,520.28,1965.14,428,2101,402.24c68.83-13.07,120.05,11.6,179.36,40.18,56.55,27.24,120.64,58.12,218,69,186.5,20.73,340.92-27.91,504.4-79.4,105.27-33.16,214.13-67.44,335.35-83.56C3696,300.87,4129,326.91,4625.24,425.83l-.9,4.51C4289,363.5,3982.6,330,3708.83,330q-196.47,0-370.07,23c-120.83,16.06-229.49,50.29-334.58,83.38-137.34,43.26-268.34,84.51-417.42,84.51a802.12,802.12,0,0,1-88.87-4.93c-98.19-10.94-162.66-42-219.53-69.41-61-29.38-109.16-52.59-176.5-39.8-61,11.59-107.85,36.79-147.43,79.3-35.3,37.92-60.22,84.6-86.61,134-41.55,77.82-84.51,158.28-173.61,217.36C1646.62,869,1587,892.86,1517,908.37,1447.84,923.71,1366.16,931.45,1273.72,931.45Z"/><path class="cls-9" d="M1264.43,918.27q-19.53,0-39.69-.47C1102.93,915,960,899.32,800.07,871.24c-175.27-30.77-376.38-77.36-597.74-138.5l1.22-4.43C424.77,789.4,625.74,836,800.86,866.71c159.75,28,302.4,43.69,424,46.5,108.79,2.51,203.91-5.19,282.7-22.89,68.3-15.35,126.7-38.78,173.55-69.65,88.53-58.33,131.48-137.3,173-213.67,26.43-48.6,51.39-94.5,86.63-131.83,39.71-42.07,86.5-66.9,147.26-78.12,69.67-12.87,120.76,14,179.94,45.17,57.11,30.06,121.84,64.13,220.94,75.19,183,20.38,335.36-31.5,496.63-86.44,109-37.12,221.64-75.5,348-92,356.27-46.51,787.52-10.76,1281.78,106.26l-1.06,4.48c-353.92-83.79-675.52-125.88-960.27-125.88q-168.7,0-319.85,19.71C3208.2,360,3095.74,398.28,2987,435.33c-161.76,55.11-314.55,107.15-498.62,86.66-100-11.16-165.1-45.45-222.58-75.69-60.82-32-108.86-57.29-177-44.72-59.75,11-105.75,35.43-144.75,76.75-34.82,36.9-59.65,82.54-85.93,130.87-41.81,76.87-85,156.35-174.52,215.31-47.32,31.18-106.23,54.83-175.07,70.3C1439.15,910.4,1357.18,918.27,1264.43,918.27Z"/><path class="cls-10" d="M1255.1,905.1q-16.36,0-33.15-.33c-119-2.34-258.46-17.2-414.39-44.17C636.84,831.08,441.1,786.14,225.77,727l1.22-4.44c215.18,59.06,410.78,104,581.35,133.46C964,883,1103.23,897.84,1222,900.17c106.38,2.09,199.6-5.79,277-23.43,67.18-15.3,124.87-38.53,171.47-69,88.93-58.22,132.15-136.19,174-211.6,26.33-47.49,51.19-92.35,85.94-128.66,39.13-40.88,85.06-64.9,144.56-75.59,70.6-12.68,121.71,16.46,180.88,50.21,57.61,32.86,122.9,70.1,223.48,81.36,180.11,20.1,330.7-35.07,490.13-93.48,112.25-41.12,228.33-83.64,359.31-100.44q133.28-17.09,280.49-17.08c293.42,0,627,50.91,996,152.22l-1.22,4.44c-491.6-135-920.46-180.42-1274.67-135-130.47,16.73-246.3,59.16-358.31,100.19-137,50.18-267.47,98-415.91,98a686.87,686.87,0,0,1-76.32-4.25c-101.53-11.36-167.26-48.85-225.25-81.93-58.39-33.31-108.82-62.07-177.78-49.68-58.49,10.51-103.63,34.1-142.05,74.25-34.34,35.88-59.07,80.49-85.24,127.71-42.07,75.9-85.57,154.38-175.46,213.22-47.06,30.81-105.25,54.25-173,69.67C1430.45,897.09,1348.16,905.1,1255.1,905.1Z"/><path class="cls-11" d="M1245.72,892q-13.15,0-26.56-.22C1102.88,889.88,966.92,875.82,815,850,648.87,821.69,458.5,778.41,249.22,721.35l1.21-4.44c209.14,57,399.36,100.27,565.39,128.53,151.65,25.81,287.37,39.84,403.41,41.71,104,1.67,195.28-6.39,271.38-24,66.06-15.26,123-38.27,169.39-68.41,89.34-58.11,132.84-135.07,174.91-209.5,26.22-46.39,51-90.2,85.25-125.5,38.55-39.7,83.63-62.93,141.85-73.11,71.66-12.52,122.83,18.92,182.09,55.31,58,35.65,123.83,76,225.74,87.47,177.6,19.84,326.73-38.61,484.63-100.5,115.22-45.16,234.37-91.86,369.66-108.89q118.5-14.92,248-14.91c299.75,0,642.61,59.88,1023.12,178.93l-1.37,4.39c-380-118.9-722.49-178.73-1021.73-178.73q-129.2,0-247.48,14.88c-134.73,17-253.6,63.55-368.56,108.61C2819.22,486.89,2688.85,538,2540.63,538a640.71,640.71,0,0,1-71.31-4c-102.93-11.54-169.18-52.23-227.63-88.12s-109-66.91-178.89-54.7c-57.22,10-101.5,32.81-139.34,71.78-33.86,34.87-58.48,78.44-84.55,124.56-20.75,36.71-42.2,74.66-69.82,110.92-31.33,41.13-66.2,73.9-106.59,100.17-46.79,30.43-104.28,53.66-170.86,69C1421.74,883.8,1339.1,892,1245.72,892Z"/><path class="cls-12" d="M1236.29,878.84q-9.89,0-19.93-.12c-113.5-1.39-246-14.64-393.82-39.38-161.63-27-346.63-68.66-549.87-123.69l1.2-4.44c203.1,55,388,96.57,549.43,123.59,147.59,24.7,279.86,37.92,393.12,39.32,101.56,1.25,191-7,265.71-24.51,65.85-15.42,120.58-37.6,167.31-67.8,40.12-25.93,74.8-58.13,106-98.44,27.6-35.63,49.08-72.89,69.86-108.92,26.11-45.28,50.77-88,84.56-122.34,38-38.53,82.18-61,139.13-70.65,72.78-12.36,124.1,21.38,183.53,60.45,58.44,38.42,124.67,82,227.77,93.54,175.39,19.63,323.3-42.12,479.89-107.49,117.94-49.24,239.9-100.15,379.24-117.37,352.13-43.52,778,21.38,1265.86,192.91l-1.53,4.34C4096.62,336.55,3671.43,271.72,3320,315.16c-138.71,17.14-260.38,67.93-378,117.05-136.91,57.16-267.22,111.55-415.25,111.56A600.53,600.53,0,0,1,2459.8,540c-104.2-11.7-170.92-55.56-229.79-94.26-58.62-38.54-109.24-71.82-180.24-59.76-56,9.5-99.37,31.54-136.62,69.35-33.37,33.87-57.89,76.39-83.85,121.41-40.63,70.46-86.68,150.31-177.37,208.92-47.18,30.49-102.38,52.86-168.75,68.41C1413,870.53,1330,878.84,1236.29,878.84Z"/><path class="cls-13" d="M1227.28,865.75c-4.54,0-9.1,0-13.71-.06-110.73-.92-239.77-13.37-383.54-37C672.94,802.9,493.31,762.94,296.11,709.95l1.19-4.44c197.05,53,376.54,92.88,533.47,118.66,143.54,23.58,272.34,36,382.83,36.92,187,1.53,326.17-28.61,425.27-92.23,90.19-57.89,136.24-136.14,176.88-205.17,26-44.17,50.56-85.89,83.86-119.18,37.38-37.37,80.72-59,136.4-68.24,74-12.21,125.49,23.87,185.15,65.65,58.79,41.17,125.43,87.83,229.63,99.55,173.44,19.44,320.29-45.59,475.78-114.46,120.47-53.35,245-108.52,388.2-125.89,350.88-42.57,775,32.05,1260.54,221.8l-1.67,4.29c-484.84-189.46-908.2-264-1258.32-221.51C3172.84,323,3048.59,378,2928.43,431.22c-156.07,69.12-303.48,134.4-478.15,114.82-105.36-11.85-172.51-58.87-231.76-100.36-58.84-41.2-109.65-76.78-181.76-64.87-54.68,9-97.22,30.3-133.89,67-32.88,32.87-57.3,74.35-83.15,118.26-40.9,69.48-87.25,148.22-178.36,206.71C1543.93,835.28,1408.37,865.75,1227.28,865.75Z"/><path class="cls-14" d="M1217.51,852.68h-6.73c-108-.45-233.54-12.09-373.26-34.59C685,793.5,510.71,755.21,319.56,704.25l1.19-4.45c191,50.92,365.12,89.18,517.51,113.73,139.49,22.46,264.83,34.08,372.55,34.53,182.56.8,319.09-29.38,417.52-92.15,90.62-57.78,137-134.9,177.88-202.95,25.89-43.06,50.34-83.73,83.15-116,36.79-36.21,79.26-57.14,133.66-65.86,75.2-12.06,127,26.38,186.91,70.88,59.12,43.9,126.13,93.66,231.35,105.52,171.7,19.29,317.65-49,472.16-121.38,122.83-57.5,249.83-117,396.66-134.44a1518.67,1518.67,0,0,1,179.55-10.33c311.61,0,672.41,87.45,1075.68,261l-1.82,4.22c-402.64-173.3-762.9-260.64-1073.84-260.64a1513.24,1513.24,0,0,0-179,10.3c-146.09,17.4-272.75,76.69-395.25,134-155.12,72.62-301.65,141.21-474.63,121.79-106.45-12-174-62.15-233.58-106.4-59.1-43.89-110.15-81.79-183.44-70-116.82,18.74-161.66,93.34-213.59,179.71-41.17,68.48-87.82,146.09-179.35,204.45C1532.81,822.27,1397.57,852.68,1217.51,852.68Z"/><path class="cls-15" d="M1207.68,839.64c-105.12,0-227.13-10.83-362.67-32.2-148-23.33-316.9-60-502-108.89l1.18-4.45c185,48.88,353.71,85.48,501.55,108.79C981,824.22,1102.81,835,1207.68,835h.31c178,0,312-30.15,409.77-92.08,91.05-57.67,137.73-133.65,178.91-200.68,25.77-42,50.12-81.58,82.43-112.87,36.2-35.06,77.8-55.25,130.91-63.52,76.51-11.92,128.53,28.9,188.79,76.17,59.43,46.62,126.78,99.46,232.94,111.45,170.13,19.14,315.28-52.46,469-128.27,125.05-61.68,254.36-125.47,404.7-143a1405.37,1405.37,0,0,1,163.1-9.24c314.07,0,678.68,96.79,1086.82,288.81l-2,4.16c-407.47-191.71-771.49-288.38-1084.83-288.38a1399.89,1399.89,0,0,0-162.59,9.21c-149.55,17.48-278.5,81.08-403.2,142.59-137.06,67.61-267.38,131.88-415,131.88a505,505,0,0,1-56.56-3.17c-107.46-12.14-175.36-65.4-235.27-112.4-59.41-46.6-110.72-86.85-185.24-75.24-114,17.76-158.54,90.28-210.13,174.26-41.44,67.46-88.41,143.91-180.37,202.16-98.52,62.4-233.36,92.75-412.23,92.79Z"/><path class="cls-16" d="M1198,826.63c-100.76,0-216.94-10-345.48-29.82-143.46-22.09-307-57.07-486.06-104l1.17-4.45c178.91,46.85,342.29,81.79,485.59,103.86C981.51,812,1097.47,822,1198,822l7.2,0c173.44-.83,304.94-30.93,402-92,91.5-57.56,138.49-132.37,179.95-198.37,51.85-82.54,96.62-153.82,209.86-171,77.83-11.77,130.16,31.45,190.76,81.5,59.71,49.32,127.39,105.21,234.45,117.32,168.69,19,313.16-55.85,466.11-135.11,127.17-65.9,258.67-134,412.4-151.67,347.39-39.84,766.14,63.95,1244.6,308.47l-2.09,4.1c-477.64-244.1-895.5-347.73-1242-308-152.9,17.53-284,85.48-410.81,151.19-153.58,79.59-298.64,154.76-468.74,135.6-108.41-12.26-176.65-68.62-236.86-118.35-59.75-49.34-111.34-92-187.14-80.5-111.15,16.81-155.41,87.27-206.65,168.85-41.72,66.42-89,141.7-181.39,199.81-97.83,61.54-230.13,91.87-404.45,92.71Z"/><path class="cls-17" d="M1188.19,813.66c-96.34,0-206.65-9.23-328.18-27.48-138.92-20.86-297.09-54.17-470.11-99l1.15-4.45c172.86,44.81,330.87,78.09,469.64,98.93C988,800.74,1103,810,1202.38,809c168.91-1.63,297.87-31.7,394.27-91.93,91.94-57.44,139.25-131.06,181-196,51.5-80.14,96-149.35,206.37-165.55,36.25-5.32,69.22.92,103.74,19.63,30.7,16.64,59.06,41.22,89.08,67.25,60,52,128,110.93,235.86,123.16,167.39,18.89,311.24-59.21,463.54-141.91,129.19-70.15,262.77-142.68,419.81-160.35s330.25-3.85,515.23,41c221.76,53.81,465.37,153.5,724.06,296.33l-2.22,4C4274.78,462,4031.56,362.49,3810.2,308.78c-184.45-44.75-357.26-58.53-513.63-40.93-156.15,17.57-289.33,89.88-418.13,159.82C2741.21,502.18,2610.79,573,2463.5,573a456.75,456.75,0,0,1-51.31-2.89c-109.32-12.39-177.87-71.82-238.36-124.25-60.11-52.11-112-97.12-189.14-85.8-108.32,15.9-152.28,84.29-203.17,163.49-42,65.36-89.61,139.43-182.42,197.42-97.14,60.69-226.89,91-396.66,92.63C1197.72,813.64,1193,813.66,1188.19,813.66Z"/><path class="cls-18" d="M1178.27,800.73c-91.83,0-196.24-8.46-310.76-25.18-134.39-19.62-287.19-51.28-454.16-94.09l1.14-4.46c166.81,42.77,319.45,74.39,453.68,94,123.27,18,234.77,26.4,331.41,25,164.38-2.43,290.81-32.48,386.52-91.86,92.39-57.32,140-129.73,182-193.61,51.15-77.75,95.32-144.89,202.88-160.2,36.89-5.25,70.33,1.56,105.24,21.41,31,17.64,59.53,43.5,89.7,70.88,60.23,54.66,128.51,116.6,237.21,128.95,166.2,18.79,309.5-62.55,461.22-148.67,131.13-74.43,266.71-151.38,427-169.07,156.54-17.27,329.36-1.21,513.66,47.75,106,28.15,217.79,67.74,332.38,117.68,123.88,54,254.39,121.56,387.92,200.82l-2.35,4c-133.36-79.17-263.71-146.65-387.41-200.56-114.38-49.85-226-89.36-331.72-117.45-183.75-48.81-356-64.84-512-47.62-159.32,17.58-294.49,94.3-425.21,168.5-137.33,77.94-267.81,152-415,152a435.52,435.52,0,0,1-49.05-2.76c-110.18-12.51-179-75-239.79-130.11-60.5-54.9-112.77-102.32-191.21-91.15-105.5,15-149.15,81.35-199.68,158.17-42.29,64.28-90.21,137.13-183.46,195-96.44,59.83-223.64,90.11-388.88,92.55Q1189.07,800.72,1178.27,800.73Z"/><path class="cls-19" d="M1168.21,787.83c-87.23,0-185.7-7.69-293.21-22.92-129.86-18.39-277.29-48.39-438.21-89.16l1.13-4.46C598.68,712,745.95,742,875.64,760.36c119.21,16.88,227.25,24.48,321.13,22.59,159.86-3.23,283.76-33.25,378.77-91.79C1668.38,634,1716.34,562.8,1758.65,500c50.79-75.37,94.65-140.46,199.37-154.89,37.53-5.17,71.46,2.2,106.78,23.21,31.36,18.65,60,45.8,90.35,74.55,60.48,57.3,129,122.24,238.5,134.69,165.08,18.7,307.9-65.86,459.11-155.38,133-78.73,270.52-160.15,433.93-177.84,156.18-16.9,328.47,1.42,512.09,54.47,105.49,30.47,216.78,73,330.8,126.47,123.21,57.76,253,129.83,385.75,214.22l-2.47,3.88c-132.59-84.28-262.2-156.26-385.23-213.93-113.8-53.34-224.87-95.81-330.12-126.22-183-52.88-354.74-71.15-510.32-54.31-162.42,17.58-299.51,98.74-432.08,177.22-151.89,89.92-295.36,174.87-462,156C2282.13,569.51,2213,504,2152,446.21s-113.52-107.54-193.34-96.54c-47,6.48-84.34,23.44-117.43,53.36-29.9,27-53.63,62.26-78.76,99.54-42.57,63.17-90.83,134.78-184.51,192.5-95.73,59-220.38,89.22-381.09,92.47Q1182.75,787.83,1168.21,787.83Z"/><path class="cls-20" d="M1158,775c-82.54,0-175-6.94-275.51-20.7-125.33-17.16-267.4-45.49-422.26-84.22l1.12-4.46c154.7,38.69,296.6,67,421.77,84.13,115.16,15.76,219.75,22.56,310.85,20.2,155.35-4,276.71-34,371-91.72,93.29-57.07,141.58-127,184.18-188.65,50.42-73,94-136,195.86-149.64,38.18-5.09,72.61,2.86,108.34,25,31.7,19.67,60.51,48.12,91,78.23,60.71,59.92,129.52,127.84,239.75,140.39,164,18.61,306.43-69.14,457.18-162,134.8-83.07,274.19-169,440.7-186.65,73.83-7.84,151.84-7.38,231.86,1.34,88.77,9.68,182.52,29.81,278.66,59.84,105,32.8,215.77,78.3,329.22,135.26,122.54,61.52,251.59,138.1,383.57,227.61l-2.58,3.81c-131.81-89.4-260.69-165.87-383-227.31-113.22-56.84-223.75-102.26-328.52-135-95.86-29.94-189.32-50-277.79-59.65-79.7-8.69-157.38-9.14-230.88-1.34C3117,257,2978.1,342.65,2843.73,425.45c-137.53,84.75-268.16,165.24-415,165.25a399,399,0,0,1-45.1-2.55c-111.81-12.73-181.22-81.24-242.46-141.69s-114.29-112.82-195.53-102c-45.76,6.11-82.2,22.38-114.68,51.22-29.39,26.1-53,60.28-78,96.47-42.86,62.05-91.44,132.38-185.56,190-95,58.12-217.11,88.34-373.29,92.39Q1176.39,775,1158,775Z"/><path class="cls-21" d="M1147.65,762.19c-77.75,0-164.18-6.21-257.65-18.53-120.8-15.93-257.5-42.61-406.31-79.29l1.1-4.47C633.44,696.55,770,723.19,890.6,739.1c111.1,14.65,212.22,20.64,300.57,17.81,150.85-4.83,269.67-34.81,363.26-91.65,93.75-56.94,142.36-125.55,185.25-186.09,25-35.33,48.67-68.7,78-94.23,32.59-28.39,68.93-44.34,114.37-50.21,38.85-5,73.78,3.53,109.93,26.88,32,20.7,61,50.44,91.72,81.94,31.24,32.05,63.54,65.2,102.21,92.2,43.81,30.58,89.19,48.2,138.73,53.85,163.07,18.53,305.08-72.4,455.42-168.67,136.56-87.44,277.76-177.86,447.31-195.5,73.69-7.67,151.52-6.61,231.33,3.13,88.47,10.8,181.88,32.59,277.63,64.76,104.54,35.12,214.77,83.58,327.64,144,121.87,65.29,250.19,146.38,381.39,241l-2.69,3.73c-131-94.51-259.18-175.49-380.87-240.68-112.64-60.34-222.64-108.71-326.93-143.74-95.46-32.07-188.56-53.79-276.72-64.55-79.46-9.7-156.95-10.76-230.29-3.12-168.46,17.53-309.2,107.65-445.31,194.8-137.64,88.13-268.34,171.81-415.06,171.82a383.37,383.37,0,0,1-43.36-2.46c-112.58-12.84-182.25-84.34-243.72-147.41-30.5-31.3-59.32-60.87-90.92-81.28-35.18-22.73-69.13-31-106.84-26.18-44.5,5.74-80.07,21.35-111.94,49.11-28.89,25.17-52.38,58.32-77.24,93.42-43.15,60.91-92.05,129.94-186.61,187.37-94.28,57.26-213.84,87.46-365.5,92.32Q1170,762.19,1147.65,762.19Z"/><path class="cls-22" d="M1137.11,749.45c-72.85,0-153.18-5.5-239.61-16.42-116.27-14.7-247.61-39.71-390.36-74.36l1.08-4.47C650.81,688.8,782,713.79,898.08,728.46c107,13.53,204.71,18.72,290.29,15.43,146.35-5.63,262.64-35.59,355.5-91.58,94.2-56.8,143.14-124.1,186.32-183.48,24.9-34.24,48.42-66.58,77.21-91.18,32-27.32,67.45-42.6,111.62-48.11,39.53-4.92,75,4.21,111.53,28.74C2063,380,2092.11,411.06,2123,443.94c31.38,33.41,63.83,68,102.66,96,44,31.75,89.58,50,139.44,55.66,162.16,18.46,303.82-75.63,453.79-175.25,138.26-91.84,281.23-186.8,453.78-204.4,73.56-7.5,151.2-5.84,230.79,4.92,88.17,11.93,181.24,35.37,276.6,69.68,104.06,37.44,213.76,88.86,326.05,152.84,121.21,69.05,248.79,154.65,379.21,254.4l-2.79,3.65c-130.25-99.63-257.67-185.11-378.69-254.06-112.06-63.85-221.52-115.16-325.33-152.51-95.06-34.2-187.8-57.57-275.66-69.45-79.23-10.72-156.51-12.37-229.71-4.9-171.42,17.48-313.91,112.12-451.7,203.65s-268.53,178.35-415.1,178.36a368.35,368.35,0,0,1-41.76-2.37c-113.33-13-183.25-87.4-244.93-153.09-30.69-32.68-59.68-63.55-91.64-85-35.59-23.88-70-32.78-108.4-28-43.24,5.39-77.94,20.34-109.2,47-28.38,24.24-51.75,56.37-76.48,90.39-43.44,59.74-92.67,127.44-187.66,184.72-93.55,56.41-210.55,86.58-357.7,92.24Q1163.51,749.45,1137.11,749.45Z"/><path class="cls-23" d="M1126.38,736.78c-67.82,0-142-4.81-221.37-14.38C793.26,708.93,667.28,685.57,530.59,653l1.07-4.47c136.52,32.56,262.32,55.89,373.9,69.34,103,12.41,197.19,16.8,280,13,141.87-6.44,255.62-36.37,347.75-91.52,94.64-56.65,143.91-122.61,187.38-180.82,24.77-33.16,48.16-64.48,76.45-88.15,31.37-26.26,66-40.89,108.88-46,40.21-4.83,76.16,4.9,113.16,30.62,32.75,22.77,62.09,55.14,93.15,89.41,31.52,34.76,64.1,70.71,103.1,99.8,44.12,32.91,90,51.7,140.13,57.45,161.3,18.4,302.64-78.84,452.28-181.79C2947.78,323.58,3092.47,224,3268,206.5c73.42-7.33,150.88-5.08,230.25,6.71,87.88,13,180.59,38.15,275.56,74.61,103.59,39.76,212.76,94.14,324.47,161.63,120.54,72.82,247.39,162.92,377,267.8l-2.89,3.58c-129.48-104.75-256.16-194.73-376.52-267.44C3984.41,386,3875.49,331.77,3772.15,292.11c-94.66-36.33-187-61.35-274.59-74.35-79-11.73-156.08-14-229.12-6.68-174.33,17.42-318.53,116.62-458,212.55-137.85,94.83-268.71,184.84-415.14,184.85a354.62,354.62,0,0,1-40.27-2.29c-51-5.84-97.57-24.92-142.36-58.33-39.35-29.36-72.09-65.47-103.76-100.4-30.88-34.07-60.05-66.25-92.37-88.72-36-25-71-34.53-110-29.83-91.53,11-131.54,64.57-182.19,132.39-43.73,58.54-93.29,124.9-188.71,182-92.8,55.55-207.26,85.69-349.9,92.16Q1157,736.78,1126.38,736.78Z"/><path class="cls-24" d="M4462.3,740.18C4333.6,630.31,4207.65,535.83,4088,459.36c-110.9-70.85-219.29-128.06-322.15-170-94.26-38.47-186.29-65.13-273.53-79.25-78.76-12.74-155.65-15.59-228.53-8.45C3086.53,219,2940.66,322.74,2799.6,423.11c-138,98.15-268.9,191.3-415.18,191.31a342.28,342.28,0,0,1-38.9-2.21c-51.33-5.88-98.14-25.56-143.09-60.14-39.51-30.4-72.38-67.91-104.18-104.18-31.08-35.46-60.44-69-93.12-92.47-36.43-26.22-71.89-36.29-111.58-31.7-88.77,10.27-128.46,62-178.71,127.4-44,57.33-93.9,122.3-189.74,179.24-92,54.69-203.95,84.81-342.1,92.09-80.31,4.23-171.32.64-270.5-10.68C805.28,699.53,684.68,677.83,554,647.27l1-4.48C685.55,673.31,806,695,913,707.2c98.93,11.29,189.68,14.88,269.74,10.66,137.39-7.24,248.6-37.16,340-91.45,95.08-56.49,144.68-121.09,188.44-178.09,50.91-66.3,91.12-118.68,181.83-129.17,40.9-4.73,77.37,5.61,114.79,32.53,33.11,23.82,62.63,57.51,93.89,93.17,31.65,36.11,64.38,73.45,103.52,103.57,44.27,34.06,90.33,53.43,140.81,59.22,160.51,18.33,301.55-82,450.89-188.28C2938.49,318.65,3084.86,214.5,3263.31,197c73.28-7.17,150.57-4.32,229.71,8.49,87.58,14.17,179.95,40.93,274.53,79.53,103.12,42.09,211.75,99.42,322.89,170.43,119.87,76.58,246,171.19,374.85,281.2Z"/><path class="cls-25" d="M4452.19,759.53c-127.92-115-253.13-214-372.16-294.2C3969.7,391,3861.85,330.82,3759.47,286.52c-93.86-40.61-185.53-68.92-272.46-84.15-78.52-13.76-155.21-17.19-227.94-10.22C3079,209.42,2931.48,317.81,2788.83,422.63,2639,532.72,2497.52,636.7,2336,618.22c-51.66-5.93-98.69-26.19-143.8-61.94-39.66-31.43-72.67-70.32-104.59-107.94-31.28-36.86-60.82-71.67-93.87-96.23-36.86-27.4-72.83-38.07-113.2-33.58-86,9.57-125.4,59.4-175.23,122.48-44.3,56.08-94.51,119.65-190.77,176.41-91.28,53.82-200.63,83.92-334.3,92-77.56,4.7-165.11,1.91-260.23-8.29-102.71-11-218-31.06-342.52-59.57l1-4.48c124.39,28.47,239.46,48.48,342,59.48,94.86,10.17,182.16,13,259.46,8.28,132.92-8,241.6-37.94,332.24-91.39,95.51-56.32,145.44-119.53,189.49-175.3,50.5-63.93,90.38-114.43,178.33-124.2,41.59-4.62,78.59,6.33,116.45,34.46,33.47,24.88,63.18,59.88,94.63,96.95,31.78,37.45,64.64,76.16,103.94,107.31,44.41,35.2,90.69,55.14,141.47,61,159.72,18.27,300.52-85.19,449.59-194.73,70.57-51.86,143.54-105.48,221.24-148.12,87.88-48.23,170.07-75.45,251.28-83.24,73.15-7,150.25-3.56,229.18,10.27,87.29,15.29,179.31,43.71,273.49,84.46C3863.94,326.71,3972,387,4082.6,461.52c119.21,80.35,244.59,179.46,372.67,294.59Z"/><path class="cls-26" d="M4442.09,778.89c-127.14-120.11-251.62-223.59-370-307.58-109.74-77.87-217.06-141-319-187.59-93.46-42.74-184.77-72.7-271.4-89-78.28-14.77-154.77-18.8-227.36-12-81.83,7.68-164.6,35.66-253,85.54-78.41,44.22-152,100-223.19,154-149.57,113.38-290.84,220.46-451.67,202-52-6-99.24-26.82-144.5-63.72-39.8-32.45-72.94-72.72-105-111.67-31.48-38.26-61.22-74.39-94.64-100-37.3-28.59-73.78-39.87-114.83-35.5-83.33,8.88-122.36,56.87-171.78,117.63-42.38,52.1-95.12,117-191.77,173.51-90.5,53-197.29,83-326.49,91.94-74.8,5.16-158.89,3.17-250-5.91-98.2-9.79-208.07-28.17-326.58-54.64l1-4.49c118.33,26.43,228,44.78,326,54.55,90.81,9.05,174.65,11,249.18,5.89,128.47-8.86,234.61-38.73,324.48-91.33,95.93-56.14,146.19-117.92,190.52-172.44,50.08-61.58,89.64-110.22,174.86-119.3,92.52-9.86,151.29,61.55,213.5,137.16,31.91,38.77,64.9,78.87,104.35,111,44.56,36.33,91,56.84,142.12,62.71,159,18.22,299.56-88.33,448.37-201.13,71.3-54,145-109.93,223.71-154.31,89-50.2,172.38-78.37,254.87-86.11,73-6.85,149.94-2.8,228.64,12,87,16.41,178.67,46.49,272.46,89.38,102.17,46.73,209.74,110,319.71,188,118.54,84.11,243.19,187.73,370.49,308Z"/><path class="cls-27" d="M4432,798.25C4305.63,673,4181.88,565,4064.17,477.29,3955,395.91,3848.23,329.85,3746.79,280.92c-93.05-44.88-184-76.49-270.33-93.94-78-15.78-154.33-20.41-226.77-13.75-83.08,7.63-167,36.55-256.54,88.4-79.37,46-153.71,104-225.6,160.18-138.27,108-269.47,210.45-415.29,210.46a308.9,308.9,0,0,1-35.31-2c-52.28-6-99.77-27.44-145.18-65.48-39.95-33.47-73.22-75.11-105.39-115.38-31.69-39.66-61.62-77.13-95.41-103.81-37.73-29.8-74.75-41.69-116.47-37.44-80.65,8.22-119.35,54.39-168.35,112.85-42.65,50.88-95.72,114.19-192.75,170.54-89.7,52.09-193.94,82.14-318.68,91.87-72,5.62-152.68,4.44-239.69-3.52-93.68-8.57-198.2-25.29-310.64-49.71l1-4.5C737.64,650.07,842,666.76,935.46,675.31c86.75,7.93,167.13,9.11,238.91,3.51,124-9.68,227.63-39.53,316.73-91.26,96.33-55.94,149.12-118.91,191.53-169.51C1732.3,358.79,1771.53,312,1854,303.57c94.08-9.58,153.27,64.51,215.94,143,32,40.09,65.15,81.55,104.75,114.72,44.7,37.45,91.39,58.52,142.75,64.44,158.3,18.17,298.65-91.45,447.24-207.5,72-56.25,146.49-114.41,226.13-160.53,90.13-52.19,174.66-81.31,258.42-89,72.88-6.7,149.63-2,228.1,13.82,86.7,17.53,178,49.26,271.42,94.31,101.7,49,208.73,115.27,318.13,196.82,117.88,87.87,241.79,196,368.3,321.39Z"/><path class="cls-28" d="M4421.88,817.61c-125.58-130.36-248.6-242.85-365.64-334.35-108.58-84.88-214.82-153.9-315.79-205.14-92.65-47-183.25-80.27-269.27-98.84-77.79-16.79-153.89-22-226.18-15.51-84.32,7.58-169.37,37.44-260,91.28-80.32,47.71-155.39,108.06-228,166.42-138.38,111.24-269.66,216.76-415.32,216.77a299.33,299.33,0,0,1-34.26-2c-52.59-6.07-100.3-28.06-145.86-67.23-40.09-34.47-73.48-77.47-105.77-119.06-31.89-41.07-62-79.86-96.18-107.62-38.17-31-75.71-43.53-118.13-39.4-35.87,3.49-65.44,14.72-93.05,35.37-25.35,18.95-46.92,43.9-71.9,72.78-42.91,49.62-96.31,111.38-193.7,167.49-88.89,51.22-190.58,81.24-310.87,91.8-69.28,6.08-146.47,5.7-229.42-1.13-89.17-7.34-188.32-22.41-294.69-44.78l.95-4.5C755,642.31,853.95,657.35,942.93,664.68c82.69,6.81,159.61,7.19,228.64,1.13,119.61-10.5,220.67-40.33,309-91.21,96.71-55.72,149.83-117.15,192.51-166.51,49.26-57,88.17-102,168-109.72,95.65-9.3,155.27,67.49,218.39,148.78,32.15,41.41,65.4,84.22,105.14,118.39,44.84,38.55,91.74,60.19,143.38,66.15,157.64,18.13,297.79-94.54,446.17-213.82C2826.85,359.42,2902,299,2982.65,251.09c91.24-54.2,176.92-84.26,261.94-91.9,72.75-6.54,149.31-1.29,227.56,15.6,86.41,18.65,177.38,52,270.38,99.24,101.23,51.37,207.73,120.55,316.54,205.62,117.21,91.64,240.4,204.27,366.12,334.78Z"/><path class="cls-29" d="M4411.79,837C4287,701.49,4164.7,584.49,4048.32,489.23c-108-88.39-213.71-160.37-314.2-213.92-92.25-49.16-182.49-84.06-268.21-103.74-77.55-17.8-153.45-23.62-225.59-17.27-85.55,7.52-171.73,38.33-263.45,94.16-81.26,49.47-157,112.11-230.33,172.69-138.48,114.47-269.84,223-415.35,223a290.46,290.46,0,0,1-33.28-1.91c-52.89-6.11-100.82-28.67-146.52-69-40.23-35.47-73.74-79.82-106.16-122.71-32.1-42.48-62.42-82.61-97-111.44-38.61-32.23-76.67-45.38-119.8-41.4-75.36,7-111.53,47.46-161.59,103.53-43.17,48.34-96.89,108.5-194.61,164.36-88.06,50.34-187.19,80.34-303,91.73q-54.13,5.32-113.21,5.33c-112.7,0-239.65-14.54-384.69-43.92l.91-4.51c195.32,39.56,357.74,52.17,496.54,38.52C1284,641.48,1382.5,611.67,1470,561.66c97.07-55.49,150.51-115.34,193.46-163.43,25-28,46.64-52.23,71.89-70.63,27.71-20.2,57.17-31.13,92.72-34.41,97.21-9,157.27,70.51,220.86,154.65,32.27,42.71,65.65,86.88,105.53,122,45,39.65,92.08,61.84,144,67.84,157,18.08,297-97.62,445.17-220.11,73.41-60.68,149.33-123.43,230.87-173.07,92.33-56.21,179.16-87.23,265.44-94.81,72.62-6.39,149-.54,227,17.37,86.12,19.77,176.74,54.82,269.35,104.16,100.76,53.69,206.72,125.83,315,214.42,116.55,95.4,239,212.54,363.94,348.18Z"/><path class="cls-30" d="M4401.69,856.33c-124-140.61-245.57-262.11-361.3-361.13C3933,403.3,3827.8,328.37,3727.78,272.51c-91.85-51.29-181.73-87.85-267.15-108.64-77.31-18.82-153-25.22-225-19-86.78,7.46-174.08,39.21-266.87,97.06-82.19,51.24-158.68,116.18-232.65,179-138.58,117.67-270,229.26-415.37,229.27a281.76,281.76,0,0,1-32.36-1.86C2235.19,642.15,2187,619,2141.2,577.62c-40.37-36.46-74-82.15-106.53-126.35-32.31-43.89-62.83-85.35-97.75-115.27-39-33.45-77.64-47.26-121.48-43.43-72.77,6.35-108.64,45.21-158.29,99-43.42,47-97.45,105.57-195.46,161.14-87.21,49.45-183.78,79.43-295.23,91.66-133.35,14.63-287.64,4.4-471.69-31.28l.88-4.52c183.59,35.59,337.43,45.8,470.31,31.22,110.82-12.16,206.81-42,293.46-91.09,97.39-55.22,151.15-113.46,194.35-160.26,24.91-27,46.41-50.28,71.17-67.85,27.11-19.24,55.74-29.6,90.1-32.6,98.8-8.62,159.29,73.55,223.33,160.56,32.39,44,65.89,89.51,105.91,125.66,45.11,40.74,92.42,63.48,144.63,69.52,156.39,18,296.21-100.67,444.23-226.35,74.1-62.91,150.71-128,233.19-179.38,93.42-58.24,181.38-90.21,268.9-97.74,72.49-6.24,148.69.2,226.48,19.14,85.83,20.89,176.1,57.59,268.31,109.09,100.29,56,205.72,131.11,313.36,223.21,115.89,99.16,237.6,220.81,361.75,361.58Z"/><path class="cls-31" d="M4391.6,875.69C4268.37,730,4147.54,603.95,4032.47,501.17c-106.83-95.42-211.48-173.3-311-231.48-91.44-53.44-181-91.63-266.09-113.54-77.07-19.83-152.57-26.82-224.41-20.78-88,7.4-176.41,40.1-270.26,100-83.11,53-160.29,120.27-234.93,185.31-138.69,120.85-270.22,235.45-415.4,235.46a273.74,273.74,0,0,1-31.49-1.81c-53.49-6.2-101.85-29.87-147.83-72.38-40.5-37.44-74.26-84.47-106.9-130-63.72-88.78-123.91-172.64-221.7-164.6-70.21,5.77-105.79,43-155,94.55-43.66,45.7-98,102.57-196.26,157.83-86.33,48.56-180.34,78.52-287.41,91.59-127.44,15.57-273.16,7.73-445.48-24l.83-4.52c171.86,31.6,317.12,39.42,444.09,23.92,106.46-13,199.91-42.78,285.71-91,97.66-54.93,151.74-111.53,195.19-157,49.95-52.28,86-90,158-96,100.4-8.25,161.31,76.64,225.81,166.5,32.51,45.3,66.13,92.14,106.29,129.26,45.24,41.82,92.75,65.1,145.24,71.18,155.82,18,295.47-103.7,443.34-232.55,74.77-65.15,152.08-132.53,235.48-185.72,94.5-60.28,183.58-93.21,272.35-100.67,72.36-6.08,148.38,1,225.94,20.91,85.54,22,175.46,60.37,267.27,114,99.82,58.33,204.71,136.39,311.78,232,115.23,102.92,236.2,229.08,359.57,375Z"/><path class="cls-32" d="M4381.5,895.05c-122.45-150.86-242.54-281.37-357-387.91-106.25-98.94-210.36-179.77-309.45-240.26-91-55.58-180.21-95.42-265-118.44-76.82-20.84-152.13-28.42-223.82-22.53-89.22,7.33-178.73,41-273.63,102.88-84,54.8-161.89,124.38-237.19,191.67-148.51,132.71-288.78,258-446.09,239.85-53.79-6.24-102.36-30.47-148.48-74.06-40.64-38.41-74.51-86.77-107.27-133.53-64.18-91.62-124.78-178.18-224.18-170.54-67.7,5.2-103,40.85-151.87,90.21-43.89,44.33-98.52,99.5-197,154.42-85.42,47.65-176.87,77.59-279.58,91.53-121.53,16.49-258.68,11-419.27-16.64l.78-4.53c160.12,27.61,296.81,33,417.87,16.62,102.13-13.86,193-43.62,278-91,97.88-54.6,152.25-109.52,195.94-153.64,49.57-50.06,85.38-86.23,154.79-91.56,102-7.83,163.34,79.76,228.29,172.49,32.63,46.58,66.37,94.74,106.67,132.83,45.38,42.89,93.08,66.71,145.85,72.83,37.33,4.32,74.44.74,113.45-10.93,35-10.49,71-27.37,109.88-51.61,72.72-45.32,143.85-108.88,219.16-176.17S2865.79,279.94,2950.1,225c95.56-62.33,185.77-96.22,275.77-103.62,72.22-5.93,148.07,1.69,225.4,22.67,85.24,23.13,174.82,63.15,266.23,118.95,99.35,60.65,203.71,141.67,310.18,240.82,114.56,106.68,234.81,237.35,357.39,388.38Z"/><path class="cls-33" d="M4371.41,914.41c-121.67-156-241-291-354.78-401.3-105.67-102.45-209.25-186.24-307.86-249-90.64-57.72-179.45-99.21-264-123.33-76.58-21.85-151.68-30-223.23-24.28-90.43,7.26-181,41.87-277,105.81-84.93,56.6-163.47,128.51-239.42,198.06-75.43,69.06-146.67,134.29-219.6,180.94-39.18,25.06-75.41,42.55-110.76,53.46-39.52,12.2-77.13,16-115,11.61-54.09-6.28-102.87-31.05-149.13-75.73-40.77-39.37-74.76-89-107.64-137.09C1938.4,359.05,1877.36,269.82,1776.39,277c-65.24,4.64-100.29,38.76-148.8,86-44.12,42.94-99,96.37-197.59,150.9-84.47,46.73-173.36,76.65-271.75,91.46C1042.61,622.75,914,619.69,765.18,596l.72-4.54c148.38,23.61,276.49,26.66,391.65,9.32,97.84-14.73,186.23-44.47,270.21-90.93,98-54.23,152.69-107.43,196.61-150.17,49.21-47.9,84.77-82.5,151.69-87.27,103.55-7.38,165.37,82.92,230.78,178.51,32.74,47.85,66.6,97.33,107,136.38,45.51,43.95,93.42,68.31,146.46,74.47,37.2,4.32,74.19.57,113.09-11.44,34.94-10.79,70.81-28.1,109.64-52.94,72.6-46.43,143.7-111.53,219-180.46,76.08-69.66,154.76-141.7,240-198.49,96.62-64.39,187.94-99.25,279.17-106.57,72.1-5.78,147.76,2.44,224.86,24.44,85,24.24,174.17,65.92,265.18,123.88,98.88,63,202.71,147,308.59,249.62,113.9,110.44,233.41,245.61,355.2,401.77Z"/><path class="cls-34" d="M4361.33,933.78c-120.88-161.12-239.51-300.65-352.61-414.69-105.08-106-208.13-192.72-306.28-257.83-90.23-59.86-178.69-103-262.92-128.23-76.33-22.86-151.24-31.62-222.64-26-91.64,7.18-183.33,42.76-280.33,108.76-85.83,58.4-165,132.66-241.64,204.47-75.4,70.68-146.61,137.45-219.42,185.21-39.12,25.66-75.27,43.59-110.53,54.8-39.43,12.54-76.93,16.5-114.66,12.13-54.38-6.33-103.37-31.64-149.78-77.38-40.91-40.33-75-91.31-108-140.62C1927.4,357,1865.92,265.12,1763.36,271.81c-62.83,4.11-95.86,35-145.86,81.87-44.32,41.51-99.48,93.17-198.08,147.26-83.47,45.79-169.79,75.68-263.91,91.39-109.73,18.31-229.73,17.66-366.85-2l.65-4.55c136.64,19.6,256.18,20.26,365.44,2,93.6-15.62,179.45-45.35,262.46-90.88,98.09-53.81,153-105.25,197.15-146.58,48.9-45.8,84.23-78.89,148.7-83.1,105.18-6.89,167.4,86.12,233.27,184.58,66.48,99.37,135.22,202.11,254.49,216,37.07,4.3,73.95.4,112.74-11.94,34.86-11.09,70.64-28.84,109.4-54.26,72.48-47.55,143.55-114.18,218.8-184.72,76.73-71.93,156.07-146.31,242.2-204.92,97.68-66.46,190.1-102.29,282.56-109.54,72-5.64,147.45,3.18,224.32,26.2C3525.5,154,3614.37,197.31,3705,257.42c98.41,65.29,201.7,152.23,307,258.42C4125.23,630,4244,769.72,4365,931Z"/><path class="cls-35" d="M4351.24,953.14c-120.1-166.26-238-310.29-350.44-428.09-104.5-109.49-207-199.19-304.7-266.62-89.83-62-177.93-106.8-261.86-133.13-76.09-23.87-150.79-33.22-222.06-27.77-92.84,7.1-185.62,43.64-283.66,111.71-86.73,60.22-166.59,136.82-243.83,210.91-75.37,72.3-146.57,140.58-219.26,189.46-39,26.25-75.13,44.62-110.31,56.13-39.33,12.88-76.74,17-114.36,12.64-54.68-6.37-103.88-32.22-150.42-79-41-41.27-75.27-93.56-108.37-144.12-65.58-100.17-127.51-194.8-231.63-188.61-60.48,3.58-93.33,33.14-143.06,77.89-44.51,40.05-99.91,89.9-198.43,143.48-82.4,44.82-166.16,74.69-256.07,91.32-103.83,19.21-215.25,20.94-340.64,5.3l.57-4.56c124.91,15.58,235.88,13.86,339.23-5.26,89.42-16.54,172.74-46.26,254.71-90.84,98-53.33,153.22-103,197.55-142.86,50.45-45.4,83.78-75.39,145.87-79.07,106.79-6.32,169.43,89.37,235.75,190.69,66.66,101.83,135.6,207.12,255.47,221.09,36.95,4.3,73.71.23,112.4-12.44,34.77-11.38,70.48-29.56,109.18-55.58,72.36-48.65,143.42-116.8,218.64-189,77.37-74.21,157.36-150.94,244.39-211.37,98.72-68.55,192.25-105.35,285.93-112.52,71.84-5.49,147.13,3.91,223.78,28,84.37,26.47,172.89,71.47,263.1,133.74,97.94,67.6,200.7,157.51,305.41,267.23C4116.71,639.83,4234.75,784,4355,950.45Z"/><path class="cls-36" d="M4341.15,972.5C4221.84,801.11,4104.67,652.58,3992.89,531,3889,418,3787,325.35,3689.78,255.61,3600.35,191.46,3512.6,145,3429,117.58c-75.84-24.89-150.35-34.81-221.47-29.51-94,7-187.91,44.53-287,114.67-87.61,62-168.13,141-246,217.37C2599.18,494,2528,563.82,2455.42,613.8c-39,26.84-75,45.64-110.1,57.45-39.24,13.21-76.55,17.51-114.08,13.14-55-6.41-104.39-32.79-151.07-80.64-41.18-42.21-75.52-95.78-108.74-147.6-66-103-128.4-200.32-234.12-194.72-58.21,3.07-90.93,31.32-140.47,74.08-44.67,38.56-100.27,86.55-198.57,139.55C1260.39,549.4,1117.84,585.32,957,585.32a1195.4,1195.4,0,0,1-121.36-6.39l.47-4.58c211.32,21.55,389.27-11.29,560-103.35,97.85-52.76,153.24-100.57,197.75-139,50.25-43.38,83.46-72,143.23-75.19,108.33-5.73,171.45,92.67,238.23,196.84s136,212.09,256.47,226.15c36.83,4.29,73.49.06,112.08-12.93,34.69-11.68,70.33-30.28,109-56.88,72.25-49.75,143.29-119.42,218.5-193.18,78-76.49,158.65-155.59,246.56-217.84,99.76-70.64,194.39-108.42,289.28-115.5,71.72-5.35,146.83,4.65,223.24,29.72,84.08,27.59,172.25,74.24,262.06,138.67,97.47,69.92,199.69,162.79,303.82,276,111.92,121.71,229.22,270.41,348.65,442Z"/><path class="cls-37" d="M4331.07,991.87C4212.54,815.34,4096.1,662.3,3985,537c-103.33-116.53-204.78-212.15-301.53-284.2-89-66.29-176.42-114.38-259.75-142.93C3348.1,84,3273.78,73.45,3202.81,78.61c-95.24,6.93-190.18,45.41-290.27,117.64-88.5,63.87-169.66,145.21-248.15,223.87-75.34,75.5-146.5,146.81-219,197.88-38.93,27.43-74.88,46.65-109.9,58.76-39.16,13.54-76.38,18-113.8,13.64C2098.42,676,2028.5,564.73,1960.89,457.12c-66.5-105.84-129.32-205.8-236.59-200.88-56,2.57-88.68,29.57-138.12,70.43-42.44,35.08-100.58,83.12-198.46,135.44-80,42.74-158.6,72.57-240.37,91.18-92,20.94-186.23,27.46-288.2,19.94l.34-4.59c101.5,7.48,195.33,1,286.84-19.84,81.37-18.52,159.62-48.21,239.22-90.76,97.48-52.1,155.4-100,197.7-134.93,50.16-41.45,83.29-68.84,140.84-71.48,109.95-5,173.47,96,240.7,203,67,106.69,136.35,217,257.47,231.16,36.71,4.28,73.27-.11,111.76-13.42,34.61-12,70.18-31,108.75-58.18,72.15-50.84,143.17-122,218.37-197.37,78.62-78.79,159.92-160.26,248.71-224.35C3010.65,119.78,3106.37,81,3202.48,74c71.59-5.21,146.52,5.38,222.7,31.48,83.79,28.7,171.61,77,261,143.59,97,72.24,198.69,168.07,302.23,284.84,111.26,125.47,227.83,278.68,346.47,455.37Z"/><path class="cls-38" d="M4321,1011.23C4203.24,829.57,4087.53,672,3977.07,543c-102.75-120.05-203.67-218.63-300-293-88.62-68.44-175.66-118.18-258.7-147.83-75.35-26.91-149.46-38-220.29-33-96.43,6.84-192.45,46.29-293.55,120.63-89.38,65.71-171.18,149.43-250.29,230.38-75.33,77.09-146.48,149.9-218.85,202.06-38.87,28-74.76,47.66-109.71,60.07-39.08,13.87-76.21,18.49-113.53,14.13-124-14.5-194.07-128.27-261.87-238.29-67-108.66-130.17-211.28-239.06-207.08-53.92,2.09-84.85,26.52-136.1,67-42.54,33.6-100.79,79.61-198,131.12-78.51,41.59-154.57,71.39-232.51,91.11-86,21.75-171.65,30.67-262,27.25l.17-4.6c89.87,3.4,175.13-5.48,260.66-27.12,77.59-19.63,153.31-49.31,231.49-90.72,96.87-51.31,154.94-97.18,197.33-130.67,52-41.06,83.36-65.84,138.77-68a157,157,0,0,1,75.83,15.68c21.51,10.33,42,25.63,62.67,46.76,38.31,39.18,70.53,91.46,104.64,146.82,67.23,109.09,136.74,221.9,258.49,236.14,36.6,4.28,73.06-.27,111.45-13.9,34.54-12.26,70-31.71,108.56-59.46,72-51.92,143.06-124.6,218.25-201.54,79.24-81.09,161.17-164.94,250.85-230.88,101.82-74.86,198.63-114.61,296-121.51C3269.26,59.49,3344,70.68,3420,97.8c83.5,29.82,171,79.79,260,148.52,96.53,74.55,197.68,173.35,300.63,293.64,110.6,129.22,226.43,286.94,344.29,468.77Z"/><path class="cls-39" d="M4310.9,1030.6c-117-186.81-232-348.88-341.75-481.73C3867,425.26,3766.58,323.69,3670.77,247c-88.23-70.62-174.92-122-257.65-152.75-75.12-27.91-149-39.54-219.68-34.57-97.68,6.62-194.82,47-297,123.47C2806.19,250.73,2723.74,336.9,2644,420.23c-75.28,78.67-146.39,153-218.63,206.21-38.8,28.59-74.61,48.66-109.47,61.36-39,14.2-76,19-113.22,14.63-124.62-14.59-194.93-130.84-262.93-243.25-67.42-111.46-131.08-216.71-241.51-213.32-51.78,1.6-82.7,24.93-133.93,63.57-42.62,32.16-101,76.19-197.75,126.8-75.43,39.74-151,70.4-224.57,91.11-78.68,22.15-158,33.76-235.79,34.5l0-4.6c77.37-.74,156.29-12.29,234.58-34.33,73.27-20.62,148.52-51.16,223.68-90.75,96.43-50.43,154.63-94.34,197.12-126.4,52-39.2,83.31-62.85,136.55-64.5a158.42,158.42,0,0,1,76.83,16.64c21.76,10.73,42.48,26.52,63.35,48.27,38.68,40.32,71.09,93.9,105.4,150.63,67.42,111.47,137.14,226.73,259.52,241.07,36.48,4.27,72.82-.44,111.11-14.38,34.45-12.55,69.88-32.42,108.32-60.74,71.92-53,142.89-127.17,218-205.69,79.87-83.46,162.46-169.77,253-237.57,102.88-77,200.82-117.69,299.41-124.38,71.29-5,145.86,6.71,221.6,34.85,83.19,30.91,170.31,82.54,258.92,153.47,96.06,76.88,196.67,178.67,299.05,302.53,109.93,133,225,295.24,342.11,482.21Z"/><path class="cls-40" d="M4300.82,1050C4184.65,858,4070.39,691.45,3961.24,554.86c-101.59-127.13-201.44-231.64-296.79-310.64-87.82-72.76-174.15-125.8-256.6-157.65-74.87-28.92-148.59-41.15-219.1-36.35-98.85,6.56-197,47.95-300.19,126.52-91.14,69.43-174.22,158-254.55,243.6-75.29,80.24-146.41,156-218.56,210.35-38.75,29.16-74.51,49.66-109.31,62.65-38.91,14.52-75.87,19.47-113,15.12-125.29-14.69-195.81-133.38-264-248.17-67.87-114.23-132-222.11-243.93-219.61-50,1.12-79.48,22.3-133,60.75C1509.61,332,1451.29,373.86,1356,423.29c-73.26,38.2-146.17,68.82-216.72,91-72.38,22.77-142.86,36.85-209.47,41.84l-.34-4.59c66.26-5,136.39-19,208.44-41.64,70.29-22.11,143-52.63,216-90.71,95-49.28,153.16-91,195.63-121.53,52.51-37.7,84.2-60.45,135.61-61.61a160.22,160.22,0,0,1,77.81,17.65c22,11.14,43,27.43,64,49.79,39,41.46,71.64,96.32,106.16,154.41,67.63,113.83,137.56,231.53,260.58,246,36.38,4.26,72.63-.6,110.84-14.86,34.38-12.83,69.76-33.12,108.15-62,71.84-54.07,142.83-129.72,218-209.82,80.47-85.76,163.68-174.44,255.12-244.11,103.89-79.14,202.89-120.83,302.67-127.45,71.19-4.85,145.57,7.48,221.07,36.65,82.91,32,169.67,85.32,257.87,158.39C3763,319.87,3863.06,424.61,3964.84,552c109.27,136.75,223.64,303.49,339.92,495.6Z"/><path class="cls-41" d="M4290.74,1069.33c-115.39-197.07-228.91-368.16-337.4-508.5-101-130.64-200.32-238.1-295.21-319.41-87.41-74.89-173.39-129.58-255.54-162.54C3328,49,3254.45,36.13,3184.06,40.76c-100,6.5-199.26,48.89-303.4,129.59-92,71.29-175.69,162.21-256.62,250.14-75.3,81.81-146.43,159.08-218.51,214.46-38.71,29.73-74.41,50.64-109.15,63.92-38.83,14.84-75.71,19.95-112.75,15.6-126-14.79-196.71-135.91-265.12-253-68.32-117-132.86-227.43-246.33-225.95-48.36.65-78.41,21.13-133,58.32-42.44,28.94-100.57,68.57-193.8,116.54-136.69,70.53-275.9,120.27-392,140.07l-.77-4.54c115.62-19.72,254.35-69.31,390.63-139.62,93-47.84,151-87.38,193.32-116.25,55.28-37.69,85.74-58.46,135.49-59.12a162.29,162.29,0,0,1,78.77,18.73c22.26,11.56,43.42,28.35,64.68,51.34,39.41,42.6,72.19,98.73,106.9,158.16,67.84,116.16,138,236.27,261.68,250.79,36.29,4.26,72.45-.75,110.58-15.33,34.32-13.12,69.64-33.81,108-63.27,71.77-55.13,142.76-132.26,217.93-213.92,81.06-88.07,164.88-179.13,257.18-250.66,104.89-81.28,205-124,305.92-130.54,71.08-4.68,145.28,8.26,220.54,38.45,82.63,33.15,169,88.1,256.83,163.32C3756.25,319.44,3855.79,427.14,3957,558c108.61,140.49,222.25,311.74,337.73,509Z"/><path class="cls-42" d="M4280.67,1088.7c-114.6-202.21-227.39-377.79-335.23-521.88C3845,432.67,3746.24,322.25,3651.81,238.64c-87-77-172.62-133.37-254.49-167.44C3323,40.26,3249.63,26.83,3179.38,31.3,3078.19,37.73,2977.9,81.13,2872.77,164c-92.85,73.16-177.15,166.47-258.67,256.71-75.32,83.37-146.45,162.11-218.46,218.54-38.66,30.3-74.32,51.62-109,65.18-38.77,15.16-75.58,20.42-112.53,16.07-126.66-14.89-197.64-138.41-266.27-257.87-34.78-60.53-67.62-117.69-107.05-161.07-21.09-23.21-42.06-40.2-64.09-51.93a159.81,159.81,0,0,0-76.91-19.32h-.62c-47,.16-76.08,19-134.06,56.45C1483,314,1425.24,351.27,1334.86,397.4c-111.42,56.87-231.75,106.4-357.63,147.23l-1.42-4.38c125.66-40.75,245.75-90.2,357-147,90.17-46,147.77-83.25,189.83-110.43,56.88-36.76,88.21-57,136.54-57.19a164.24,164.24,0,0,1,79.71,19.86c22.51,12,43.88,29.29,65.33,52.9,39.76,43.75,72.73,101.13,107.64,161.87,68.07,118.47,138.45,241,262.82,255.59,36.18,4.25,72.27-.91,110.32-15.79,34.26-13.4,69.53-34.5,107.83-64.52,71.7-56.19,142.71-134.79,217.88-218,81.65-90.38,166.08-183.84,259.24-257.24,105.89-83.44,207-127.15,309.16-133.65,71-4.51,145,9,220,40.25,82.34,34.27,168.4,90.87,255.78,168.24,94.66,83.82,193.66,194.46,294.26,328.87,108,144.24,220.85,320,335.55,522.37Z"/></svg>