<svg id="Layer_1" data-name="Layer 1" xmlns="http://www.w3.org/2000/svg" viewBox="0 0 346.35 114.64"><defs><style>.cls-1{fill:#df00ff;}.cls-2{fill:#d800ff;}.cls-3{fill:#d200ff;}.cls-4{fill:#cb00ff;}.cls-5{fill:#c500ff;}.cls-6{fill:#bf00ff;}.cls-7{fill:#b800ff;}.cls-8{fill:#b200ff;}.cls-9{fill:#ab00ff;}.cls-10{fill:#a500ff;}.cls-11{fill:#9e00ff;}.cls-12{fill:#9800ff;}.cls-13{fill:#9100ff;}.cls-14{fill:#8b00ff;}.cls-15{fill:#8400ff;}.cls-16{fill:#7e00ff;}.cls-17{fill:#7800ff;}.cls-18{fill:#7100ff;}.cls-19{fill:#6b00ff;}.cls-20{fill:#6400ff;}.cls-21{fill:#5e00ff;}.cls-22{fill:#5700ff;}.cls-23{fill:#5100ff;}.cls-24{fill:#4a00ff;}.cls-25{fill:#40f;}</style></defs><title>FLOAT_LOGO-pack_01</title><path d="M154.64,16.58h34.11a2,2,0,0,1,2,2v6.56a2,2,0,0,1-2,2H165.63V43.06h19.31a2,2,0,0,1,2,2v6.39a2,2,0,0,1-2,2H165.63V76.36a2,2,0,0,1-2,2h-9a2,2,0,0,1-2-2V18.61A2,2,0,0,1,154.64,16.58Z"/><path d="M201,16.58h8.43a2,2,0,0,1,2,2V63.07c0,4.43,1.15,5.4,3.9,5.4h.18a2,2,0,0,1,2,2v6a2,2,0,0,1-1.72,2,34.16,34.16,0,0,1-4.75.34c-8.41,0-12.13-4.07-12.13-15V18.61A2,2,0,0,1,201,16.58Z"/><path d="M245.29,79.55c-13.64,0-21.08-9.39-21.08-23.74s7.44-23.73,21.08-23.73,21.08,9.39,21.08,23.73S258.93,79.55,245.29,79.55Zm0-37.46c-6.2,0-8.41,5.4-8.41,13.73s2.21,13.73,8.41,13.73,8.41-5.4,8.41-13.73S251.49,42.09,245.29,42.09Z"/><path d="M308.33,78.39h-6.94a2,2,0,0,1-2-1.48,15.62,15.62,0,0,1-.4-3.56c-3.37,4.16-8.24,6-13.73,6-8.5,0-13.64-5.76-13.64-13,0-6.91,3.72-11.87,14.44-14.52l7-1.77c3.63-.89,4.78-2.13,4.78-4.25s-2-3.81-6.38-3.81a47.18,47.18,0,0,0-13.57,2.24,2,2,0,0,1-2.63-1.94V36.45a2,2,0,0,1,1.33-1.91,46.16,46.16,0,0,1,15.85-2.46c10.8,0,17.89,4.07,17.89,16.65V76.36A2,2,0,0,1,308.33,78.39ZM297.87,56.25A5.63,5.63,0,0,1,295,57.67l-5.14,1.51c-4.76,1.41-5.83,3.35-5.85,6a4.93,4.93,0,0,0,4.92,5c5.49.12,8.89-3,8.89-8.06Z"/><path d="M322,42.71h-3.72a2,2,0,0,1-2-2V35.26a2,2,0,0,1,2-2H322V24.35a2,2,0,0,1,1.28-1.89,38,38,0,0,1,8.9-2.25,2,2,0,0,1,2.31,2v11h8.42a2,2,0,0,1,2,2v5.41a2,2,0,0,1-2,2h-8.42v20c0,5.49,1.5,6.64,5.22,6.64a21.74,21.74,0,0,0,4.23-.44,2,2,0,0,1,2.41,2v5.72a2,2,0,0,1-1.64,2,41.27,41.27,0,0,1-7.74.75c-10.89,0-15-5.49-15-15.68Z"/><path class="cls-1" d="M35.13,5.2l1-.74,1.14-.85a57.42,57.42,0,0,0-10.17,5q-2.45,1.76-4.77,3.31a57.61,57.61,0,0,0-7,6.42C21.49,15.3,28,10.5,35.13,5.2Z"/><path class="cls-2" d="M41.35,3c-2.47,1.78-4.87,3.51-7.22,5.15l-.58.41C25.74,14,19,18.74,12.72,21.3c-.78,1-1.51,2-2.23,3C17.83,22,25.55,16.6,34.7,10.21l.58-.41C37.63,8.15,40,6.42,42.52,4.64,44.3,3.36,46.1,2.06,47.93.76c-1.66.27-3.29.63-4.9,1Z"/><path class="cls-3" d="M42.29,7.38c-3.12,2.15-6.07,4.18-9,6.13C23.74,19.77,16.11,24.79,9,26.48q-.72,1.13-1.4,2.3c8.12-1.34,16.57-6.9,26.82-13.65,2.91-1.92,5.87-4,9-6.11C47.75,6,52.22,3,56.87,0,55.56,0,54.25.06,53,.15,49.29,2.56,45.74,5,42.29,7.38Z"/><path class="cls-4" d="M32.52,18.77c-10,6.15-18.17,11.19-26,11.93-.37.7-.71,1.41-1.05,2.13,8.58-.34,17.32-5.72,28.09-12.36,3.48-2.15,7-4.5,10.82-7C50.95,9.15,57.87,4.59,65.23.55L64.9.49c-1-.14-2.07-.24-3.1-.32C55.3,3.89,49.15,7.94,43.29,11.81,39.53,14.3,36,16.64,32.52,18.77Z"/><path class="cls-5" d="M44.35,16.31c-4.42,2.8-8.6,5.45-12.63,7.76-11.21,6.43-19.35,10.79-27,10.55-.27.64-.54,1.28-.79,1.93C13,37.16,22,31.95,32.71,25.81c4.07-2.34,8.26-5,12.7-7.81C54,12.58,63.16,6.76,73.11,2.21c-1-.29-2-.54-3.06-.78C60.86,5.86,52.33,11.26,44.35,16.31Z"/><path class="cls-6" d="M45.46,20.88c-5.11,3.11-9.93,6-14.54,8.5C19.41,35.51,11.21,39.51,3.23,38.31c-.22.63-.42,1.28-.62,1.92,8.69,1.44,17.48-2.82,29.25-9.08,4.66-2.48,9.51-5.43,14.64-8.56,10.33-6.29,21.62-13.16,34-17.71q-1.33-.59-2.7-1.11C66,8.36,55.31,14.88,45.46,20.88Z"/><path class="cls-7" d="M31,36.49c5.27-2.58,10.79-5.82,16.63-9.24,11.88-7,25.08-14.7,39.64-18.81Q86.09,7.71,84.88,7C70.82,11.33,58.11,18.78,46.62,25.52c-5.81,3.41-11.29,6.63-16.5,9.17-11.31,5.54-19.66,9.22-28,7.14-.18.64-.36,1.29-.51,1.94C10.39,46,19.21,42.26,31,36.49Z"/><path class="cls-8" d="M47.82,30.22c-6.53,3.7-12.69,7.19-18.5,9.78-12.17,5.43-20.14,8.13-28,5.38-.14.65-.27,1.3-.39,2,8.87,3,17.56-.29,29.25-5.51C36,39.19,42.23,35.68,48.8,32,62,24.48,76.91,16,93.33,12.69q-1-.83-2.09-1.61C75.19,14.71,60.7,22.92,47.82,30.22Z"/><path class="cls-9" d="M29.27,47.16C35.8,44.53,42.71,40.74,50,36.73c13-7.15,27.8-15.25,43.84-18.45,1.58-.32,3.13-.58,4.67-.79q-.87-.9-1.77-1.76c-1.09.17-2.18.37-3.29.59C77.13,19.58,62.22,27.76,49.06,35,41.8,39,34.94,42.72,28.52,45.3c-12.35,5-20.17,6.88-27.89,3.56,0,.3-.1.59-.14.89s-.08.76-.12,1.14C9.39,54.5,18.11,51.66,29.27,47.16Z"/><path class="cls-10" d="M50.34,39.79c-8,4.27-15.58,8.3-22.61,10.83C15.63,55,8,56.43.21,52.46c-.06.72-.1,1.44-.13,2.16,8.11,3.79,16.22,2.22,28.33-2.13,7.17-2.58,14.8-6.64,22.87-10.94C63.65,35,77.67,27.49,92.67,24.21A73.35,73.35,0,0,1,103,22.7c-.49-.64-1-1.27-1.5-1.89a75.84,75.84,0,0,0-9.27,1.45C77,25.6,62.82,33.14,50.34,39.79Z"/><path class="cls-11" d="M27.54,57.83c7.83-2.47,16.18-6.81,25-11.4C64.26,40.36,77.5,33.48,91.48,30.15a75.88,75.88,0,0,1,15.15-2.07q-.59-1-1.21-1.95A77.82,77.82,0,0,0,91,28.2C76.8,31.59,63.44,38.53,51.65,44.65c-8.77,4.55-17,8.86-24.71,11.27C15.21,59.62,7.78,60.64,0,56.16c0,.76,0,1.52,0,2.27C8,62.63,15.88,61.5,27.54,57.83Z"/><path class="cls-12" d="M26.67,63.16c8.49-2.3,17.58-6.92,27.21-11.81,11.52-5.86,23.44-11.92,36.4-15.27a81,81,0,0,1,19.13-2.71c-.31-.67-.62-1.34-1-2a83.19,83.19,0,0,0-18.67,2.76C76.61,37.55,64.59,43.66,53,49.57,43.44,54.41,34.44,59,26.15,61.23c-11,3-18.36,3.59-26.08-1.25q.05,1.21.16,2.41C8.09,66.8,15.81,66.1,26.67,63.16Z"/><path class="cls-13" d="M25.8,68.49c9.16-2.07,19-7,29.4-12.18C66,50.93,77.12,45.36,89.08,42a83.61,83.61,0,0,1,22.49-3.26c-.23-.67-.46-1.34-.72-2a85.68,85.68,0,0,0-22.31,3.34c-12.15,3.39-23.38,9-34.24,14.43-10.3,5.15-20,10-28.95,12C14,69.1,7.15,68.67.39,64.1c.1.87.23,1.73.37,2.59C7.54,70.69,14.75,71,25.8,68.49Z"/><path class="cls-14" d="M24.93,73.82c9.84-1.77,20.41-7,31.6-12.51C66.54,56.37,76.9,51.26,87.89,48a85.11,85.11,0,0,1,25.22-3.89c-.16-.67-.32-1.33-.5-2a87.14,87.14,0,0,0-25.3,4c-11.15,3.35-21.58,8.5-31.67,13.48C44.58,65,34.14,70.13,24.57,71.86,14.14,73.74,7.56,73,1.1,68.54q.28,1.4.62,2.77C8.1,75.1,14.9,75.63,24.93,73.82Z"/><path class="cls-15" d="M24.06,79.15c10.52-1.42,21.83-7,33.79-12.81,9.25-4.53,18.81-9.21,28.84-12.45a86.35,86.35,0,0,1,27.41-4.56c-.09-.67-.19-1.34-.31-2A88.35,88.35,0,0,0,86.08,52C75.91,55.26,66.28,60,57,64.54,45.15,70.33,34,75.8,23.79,77.17c-9.33,1.25-15.5.4-21.48-3.72q.44,1.49,1,2.95C9,79.68,15.29,80.33,24.06,79.15Z"/><path class="cls-16" d="M23.18,84.48c11.21-1,23.24-6.87,36-13.09C67.63,67.25,76.4,63,85.5,59.82a88.83,88.83,0,0,1,28.28-5.33h.81c0-.67-.07-1.34-.13-2h-.71a90.78,90.78,0,0,0-28.9,5.44c-9.21,3.18-18,7.49-26.57,11.66C45.71,75.73,33.84,81.53,23,82.49c-7.9.7-13.49-.16-18.76-3.51Q4.88,80.52,5.6,82C10.57,84.49,16,85.11,23.18,84.48Z"/><path class="cls-17" d="M22.3,89.8c11.89-.49,24.64-6.74,38.13-13.35A257.19,257.19,0,0,1,84.3,65.75c10.21-3.76,19.1-5.69,28-6.08.79,0,1.56,0,2.33,0,0-.67,0-1.33,0-2-.81,0-1.62,0-2.46,0C103.1,58.07,94,60,83.61,63.88A258.47,258.47,0,0,0,59.55,74.66C46.25,81.17,33.69,87.33,22.22,87.8c-6.22.26-10.94-.6-15-2.64.55,1,1.13,1.94,1.73,2.89A34,34,0,0,0,22.3,89.8Z"/><path class="cls-18" d="M61.67,81.53c6.94-3.43,14.12-7,21.43-9.84,10.3-4,19.09-6.22,27.68-6.83q1.74-.13,3.4-.15c.09-.67.15-1.33.21-2q-1.84,0-3.76.15c-8.79.63-17.77,2.85-28.26,7-7.39,2.9-14.61,6.47-21.59,9.91-14,6.92-27.25,13.46-39.35,13.39a32.16,32.16,0,0,1-10-1.47c.67.9,1.36,1.78,2.08,2.64a37.3,37.3,0,0,0,7.92.83C34,95.2,47.44,88.56,61.67,81.53Z"/><path class="cls-19" d="M81.91,77.62C92.3,73.28,101,70.87,109.28,70c1.37-.14,2.7-.22,4-.26.15-.67.3-1.33.42-2-1.51,0-3,.12-4.62.28-8.49.86-17.37,3.31-27.95,7.73-6.52,2.72-12.95,5.94-19.16,9C47.27,92.18,33.37,99.13,20.66,98.45c-1.29-.07-2.49-.2-3.66-.38q1.18,1.17,2.43,2.28c.37,0,.73.07,1.11.09,13.24.71,27.37-6.36,42.32-13.84C69.06,83.51,75.45,80.31,81.91,77.62Z"/><path class="cls-20" d="M80.71,83.55c10.63-4.71,19-7.28,27.07-8.34,1.42-.18,2.79-.31,4.13-.38.21-.67.42-1.34.61-2q-2.44.09-5,.43c-8.3,1.08-16.82,3.7-27.63,8.5-5.68,2.52-11.32,5.39-16.78,8.17-13.86,7.06-27,13.74-39.23,14,.89.64,1.81,1.25,2.74,1.85C38.49,104.66,51,98.33,64,91.67,69.46,88.91,75.08,86,80.71,83.55Z"/><path class="cls-21" d="M79.52,89.48c10.72-5,19-7.84,26.77-9.1,1.27-.2,2.51-.35,3.73-.46q.44-1,.84-2.07c-1.59.11-3.21.29-4.88.56-8,1.28-16.41,4.14-27.31,9.26-5.09,2.39-10.18,5.09-15.1,7.7-11,5.82-21.5,11.41-31.46,13.44q1.47.72,3,1.36c9.44-2.44,19.24-7.64,29.4-13C69.41,94.54,74.48,91.85,79.52,89.48Z"/><path class="cls-22" d="M78.32,95.41c11-5.46,19-8.41,26.47-9.85.91-.17,1.79-.31,2.67-.44q.59-1.06,1.14-2.16c-1.37.15-2.76.35-4.19.63-7.71,1.48-15.78,4.48-27,10-4,2-8.07,4.18-12,6.27C56.71,104.57,48.22,109.11,40,112c1.07.34,2.16.65,3.26.93,7.5-2.91,15.2-7,23.09-11.25C70.3,99.56,74.33,97.4,78.32,95.41Z"/><path class="cls-23" d="M102.87,88.78C93.54,90.86,84.15,95.4,76.2,99.57c-3.28,1.73-6.59,3.56-9.79,5.33C60.48,108.17,54.68,111.38,49,114l.77.12q1.47.2,2.94.32c4.82-2.38,9.71-5.08,14.67-7.83,3.2-1.77,6.5-3.59,9.76-5.31C85,97.23,94.21,92.76,103.3,90.73l.73-.15q.82-1.14,1.58-2.33C104.71,88.4,103.8,88.57,102.87,88.78Z"/><path class="cls-24" d="M99,96.71q1.28-1.35,2.47-2.78l-.13,0c-8.95,2.28-18,6.9-26.35,11.55-2.55,1.42-5.1,2.88-7.65,4.34-2.85,1.63-5.67,3.24-8.46,4.79,1.57,0,3.12-.15,4.65-.31l4.8-2.74c2.54-1.45,5.09-2.91,7.63-4.32C83.32,103.17,91.17,99.12,99,96.71Z"/><path class="cls-25" d="M71.21,112.95a57.13,57.13,0,0,0,10.71-3.84q2.15-1.17,4.27-2.26a57.66,57.66,0,0,0,8.33-5.9C86.79,103.91,79,108.37,71.21,112.95Z"/><path d="M152.74,89.89a21.4,21.4,0,0,1,3.28-.22c2.4,0,4.16,1,4.16,3.43s-1.47,3.63-3.83,3.83c-1.92.16-2,.16-2,2.24V101h-1.6Zm1.6,6.15a4.79,4.79,0,0,1,2.06-.48c1.55-.18,2.11-.86,2.11-2.46,0-1.18-.71-2-2.59-2a8.75,8.75,0,0,0-1.58.13Z"/><path d="M178.63,89.89a21.4,21.4,0,0,1,3.28-.22c2.82,0,4.16,1.3,4.16,3.51a3.19,3.19,0,0,1-2.5,3.14,21.72,21.72,0,0,1,3.11,4.66h-1.84A25.25,25.25,0,0,0,182,96.65l-.59.1c-1.09.18-1.18.45-1.18,2.14V101h-1.6Zm1.6,5.87a4.56,4.56,0,0,1,1.9-.46c1.38-.16,2.27-.75,2.27-2.13s-.67-2.1-2.59-2.1a8.75,8.75,0,0,0-1.58.13Z"/><path d="M209.22,101.16c-3.12,0-4.82-2.37-4.82-5.78s1.7-5.78,4.82-5.78,4.83,2.37,4.83,5.78S212.34,101.16,209.22,101.16Zm0-10.15c-2.4,0-3.15,2-3.15,4.37s.75,4.37,3.15,4.37,3.17-2,3.17-4.37S211.62,91,209.22,91Z"/><path d="M234.6,91.21h-3.12V89.8h7.84v1.41h-3.12V101h-1.6Z"/><path d="M261.57,101.16c-3.12,0-4.82-2.37-4.82-5.78s1.7-5.78,4.82-5.78,4.83,2.37,4.83,5.78S264.69,101.16,261.57,101.16Zm0-10.15c-2.4,0-3.15,2-3.15,4.37s.75,4.37,3.15,4.37,3.17-2,3.17-4.37S264,91,261.57,91Z"/><path d="M291.85,100.82a6.23,6.23,0,0,1-2.32.34c-3.28,0-4.82-2-4.82-5.79s1.54-5.76,4.82-5.76a6.23,6.23,0,0,1,2.32.34v1.44a7.32,7.32,0,0,0-2.32-.37c-2.56,0-3.15,1.71-3.15,4.35s.59,4.39,3.15,4.39a7.32,7.32,0,0,0,2.32-.37Z"/><path d="M314.39,101.16c-3.12,0-4.82-2.37-4.82-5.78s1.7-5.78,4.82-5.78,4.83,2.37,4.83,5.78S317.52,101.16,314.39,101.16Zm0-10.15c-2.4,0-3.15,2-3.15,4.37s.75,4.37,3.15,4.37,3.17-2,3.17-4.37S316.8,91,314.39,91Z"/><path d="M338,89.8h1.6v9.76h4.21V101H338Z"/></svg>